<svg xmlns="http://www.w3.org/2000/svg" viewBox="0 0 1728 840"><defs><style>.cls-1{fill:#fff;}.cls-2{fill:none;}</style></defs><title>W-Logo-7</title><g id="Layer_2" data-name="Layer 2"><g id="Layer_1-2" data-name="Layer 1"><path class="cls-1" d="M468.92,291.88c1.5-.77,1.34-1.68-.55-3.45-2.36-2.21-4-3.29-5.26-3.35a2.71,2.71,0,0,0-2.1.95,3.29,3.29,0,0,0-.9,1.25c0,.47,6.54,5.15,7.21,5.15A4.92,4.92,0,0,0,468.92,291.88Z"/><path class="cls-1" d="M551.5,459.89c.21,0,.79-.66,1.29-1.46,1.08-1.7,1.18-2.57.28-2.56s-3.74,1.37-3.74,1.82A4.59,4.59,0,0,0,551.5,459.89Z"/><path class="cls-1" d="M436.55,285.23a2.29,2.29,0,0,0-.5-.05c-1.06.07-1.53,1-1.75,3.45-.2,2.16-.11,2.8.45,3.75.9,1.53,2,1.48,3.4-.15A4.09,4.09,0,0,0,439.3,290C439.29,288.55,437.44,285.36,436.55,285.23Z"/><path class="cls-1" d="M515.11,463.11a6.26,6.26,0,0,1,2.55.64c1,.66,1.37.66,2.26,0h0a2,2,0,0,1,2.72,0c.77.92,2,.63,3.25-.75a7.28,7.28,0,0,0,1.14-1.5c0-1.49-5.9-5.87-7.41-5.49a18.39,18.39,0,0,0-3.68,2.67c-2.35,2-2.82,2.62-2.73,3.39S513.49,463,515.11,463.11Z"/><path class="cls-1" d="M494.14,417.67l2.94,1.73-2.21,2.3c-2.8,2.92-2.88,3.74-.58,6a5,5,0,0,0,3.88,1.87,12.76,12.76,0,0,1,4.31,1.37,18.63,18.63,0,0,0,2.32,1.13,8.94,8.94,0,0,0,1.55-2.3h0a10.11,10.11,0,0,0,1.3-3.28,33.75,33.75,0,0,0-2.64-6.26c-2.56-5.13-2.69-5.32-4.3-6-2.91-1.25-3.44-1.27-6.57-.23-1.7.57-2.94,1.18-2.94,1.46S492.52,416.72,494.14,417.67Z"/><path class="cls-1" d="M449.36,557.89l4.75-.25a49.62,49.62,0,0,0,5-.4c.59-.34.21-1.2-.85-2-.86-.61-1.91-.85-4.8-1.1a22.35,22.35,0,0,1-5.1-1,4,4,0,0,0-1.21-.4,1,1,0,0,0-.75.3c-.72.6-.66.67,1.31,2.9Z"/><path class="cls-1" d="M500.46,450.89a14.46,14.46,0,0,0,3.77,3.15c.07,0,1.56-.82,3.31-1.83h0a29.23,29.23,0,0,1,3.48-1.83c1.09,0-.83-3.9-2.2-4.44-.86-.33-1.41-.17-4.28,1.28-1.81.92-3.61,1.9-4,2.19C499.86,449.91,499.86,450,500.46,450.89Z"/><path class="cls-1" d="M508.44,549.39a25.88,25.88,0,0,0-5.55,1c-2.12.5-6,1.67-8.61,2.6-3.87,1.37-5.31,2.09-7.5,3.75-3.77,2.85-3.9,3.09-2,3.9s3.7.39,9.75-1.9c2.92-1.1,6.11-2.25,7.11-2.55,2.2-.66,8.23-4.79,8.25-5.65S509.5,549.41,508.44,549.39Z"/><path class="cls-1" d="M428.74,296.18l.75-1.15c.91-1.43.63-2.8-.7-3.4a1.33,1.33,0,0,0-.8-.2h0c-.41.09-.89.57-1.95,1.75a9.52,9.52,0,0,0-2.2,3.61c-.22.87-.6,1.68-.9,1.8a6,6,0,0,1-2.55-.8,20.17,20.17,0,0,0-2.1-1,28.6,28.6,0,0,0-2.45,2.05,18.72,18.72,0,0,1-3.51,2.5c-1.42.61-1.48,1.06-.3,2.25s1,1.06,3.66.15c2.32-.8,3.1-.57,3.1.9,0,.93.57,1.65,1.85,2.5s1.44.78,3.75-.25a12,12,0,0,0,5.3-5.3c.56-1.15.58-1.31-.15-3.3Z"/><path class="cls-1" d="M456.91,560.79a27.5,27.5,0,0,1-5.2-.7,9.31,9.31,0,0,0-3-.4h0a1.42,1.42,0,0,0-1.26.95,3.24,3.24,0,0,0,1.11,3.1c1.57,1.53,8.36,2,11.3.75,1.21-.5,1.3-1.42.25-2.75C459.43,560.88,459.1,560.81,456.91,560.79Z"/><path class="cls-1" d="M381.87,288c0-1.18-1.06-2.85-1.8-2.85a1.71,1.71,0,0,0-1.21.7c-.34.49-1.91,1.1-5.2,1.95-5.23,1.34-5.59,1.65-4.2,3.6a10.54,10.54,0,0,0,4.55,2.85,4.56,4.56,0,0,0,1.5-.65,14.44,14.44,0,0,1,2.45-1.1C379.46,292,381.87,289.2,381.87,288Z"/><path class="cls-1" d="M389.07,292.58a1,1,0,0,0-.4,0h0a39.52,39.52,0,0,0-7.5,2.6c-1.45.75-2.38,2.47-1.86,3.46a4.48,4.48,0,0,0,3.21,1.85,5.19,5.19,0,0,0,2.4-1.4,15.42,15.42,0,0,1,2.7-2,4.24,4.24,0,0,0,1.55-1.36C389.71,294.72,389.67,292.81,389.07,292.58Z"/><path class="cls-1" d="M452.26,460.84c2.29.88,3.14,1,3.36.3h0a5.05,5.05,0,0,0-1.17-2.1c-1.42-1.86-2.34-2.13-3.77-1.13S449.78,459.89,452.26,460.84Z"/><path class="cls-1" d="M540,277.17a5.4,5.4,0,0,0-3.8-1.9c-1,0-1.17.17-1.85,2a20,20,0,0,0-.75,2.26,43.88,43.88,0,0,0,4.3,6.75,6.31,6.31,0,0,1,1.2,2.6c1.39,7.13,1.47,7.21,4.6,9.06,2.37,1.4,3.88,1.33,4.2-.2a24.52,24.52,0,0,0,.25-3.46c0-2.07-.15-2.86-1.55-5.95A66,66,0,0,0,540,277.17Z"/><path class="cls-1" d="M557.37,275.3c0-1-5.37-8.05-7-9.25a68.22,68.22,0,0,0-6.11-3.16l-4.94-2.33-4.57.19-4.57.19-5-2.34c-2.78-1.29-5.19-2.35-5.34-2.35a2.39,2.39,0,0,0-.93.73c-.55.61-.59.88-.22,1.77.82,2,4.15,4.82,7.18,6.14a11.8,11.8,0,0,1,3.35,2c.61.88,4,2.91,4.91,2.92a3.26,3.26,0,0,0,1.6-1.19c2.53-3,3.46-2.87,9.18,1.47,4.57,3.46,4.78,3.68,7.62,8h0a25.31,25.31,0,0,0,3.33,4.48,1.45,1.45,0,0,0,.87-.54c.36-.44.36-.66,0-1.1s-.35-1,.13-2.68A15.89,15.89,0,0,0,557.37,275.3Z"/><path class="cls-1" d="M514.19,263.77a.85.85,0,0,0-.4,0,4.13,4.13,0,0,0-1.75,1,5.55,5.55,0,0,0-1.45,1.45,45.82,45.82,0,0,0,6.56,4.7,3.56,3.56,0,0,0,1-.55,2,2,0,0,0,.85-1.25C519,268.26,515.21,264.09,514.19,263.77Z"/><path class="cls-1" d="M590.94,337.06c1.62-.87,2.64-.45,5.15,2a13.89,13.89,0,0,0,2.81,2.35c.22,0,.67-.93,1-2.1a17.73,17.73,0,0,0,.6-2.85,23.57,23.57,0,0,0-3-4.9c-1.63-2.31-3.14-4.54-3.35-5s-.64-.81-1-.75h0c-1,.2-4,4.35-4.6,6.36-.77,2.64-.71,3.14.5,4.3C590,337.3,590.32,337.39,590.94,337.06Z"/><path class="cls-1" d="M589.54,320.7l1.55-.2a3.52,3.52,0,0,0,2.2-1,2.94,2.94,0,0,0,.65-1.15,5.34,5.34,0,0,0-2.05-1.25,7.54,7.54,0,0,0-2.85-.85c-1,0-1.06.93-.25,2.75Z"/><path class="cls-1" d="M511.69,275.27c0-1.07-1.72-2.87-6.9-7.1-3.25-2.66-3.5-2.75-5.25-2.75a8.27,8.27,0,0,0-1,0h0a3.85,3.85,0,0,0-2.31,1.3c-1.2,1.09-1.59,1.23-2.4,1-1.62-.47-2.31-.38-7,.9a1.41,1.41,0,0,0-1.05,1c-.15,1.06,2.65,4,4.75,5.1,1.56.79,2,.88,3.15.55,1.93-.53,2-.49,3.65,1a52,52,0,0,0,6.56,3.9c4.52,2.38,5.15,2.86,6.3,4.56,1.33,1.95,6.28,6.3,7.16,6.3a1.3,1.3,0,0,0,.9-.7c1-1.93.23-3.95-4-10.26C512.74,277.78,511.69,275.81,511.69,275.27Z"/><path class="cls-1" d="M471.87,295.38c-.16,0-2.11-.35-4.3-.75a25.53,25.53,0,0,0-3.56-.5,1.94,1.94,0,0,0-1.35.45c-2.11,1.56-1.2,3.1,3.66,6.06,3,1.85,3,1.8,4.75,1.3,1.58-.46,3.7-2.45,3.7-3.5C474.77,297.69,472.56,295.38,471.87,295.38Z"/><path class="cls-1" d="M458.25,492.27c-.72.45-.23,1.24,1.44,2.31,3.57,2.28,6.31,2.76,8.47,1.46h0a17.58,17.58,0,0,0,2-1.41,32.35,32.35,0,0,1,5.08-2.41c5.7-2.31,9.31-5.27,9.34-7.66a10,10,0,0,0-1.55-3.1c-1.62-2.46-1.92-2.61-4-2.07l-1,.26,1.12-1.55c1.35-1.86,1.29-2.78-.23-3.77a4.65,4.65,0,0,1-1.68-2.2c-.77-2.07-1.53-1.89-3,.71a10.3,10.3,0,0,1-3.38,3.67,9.92,9.92,0,0,0-4.2,6.77c-.52,2.63-1,2.82-3.21,1.3a8.31,8.31,0,0,0-2.54-1.29c-.84,0-3.34,1.74-3.34,2.33a14.87,14.87,0,0,0,.69,2.49C458.92,490,458.92,491.85,458.25,492.27Z"/><path class="cls-1" d="M474.48,466.82a10.55,10.55,0,0,0,2.07-.89h0a13.32,13.32,0,0,0,4.86-4.83,2.57,2.57,0,0,0-.19-2.22c-.53-1.34-.52-1.53.25-3.41,1.1-2.69,2.67-5.09,3.33-5.09.86,0,.64-1.14-.43-2.26s-1.95-1.28-3.22-.45-1.65.41-1.65-1.14c0-1.71-1.42-4.56-2.28-4.56a9,9,0,0,0-2.49.92c-2.26,1.15-2.28,1.51-.49,6.89,1.29,3.86,1.31,4,.81,5.85a5.81,5.81,0,0,0-.17,3.21c.31,1.22.22,1.5-1.18,3.49a9.61,9.61,0,0,0-1.51,2.77C472.19,465.64,473.71,466.78,474.48,466.82Z"/><path class="cls-1" d="M491.6,468.29a41.21,41.21,0,0,0,3.26-4.11c4-5.39,4.06-5.59,2.82-8.13s-1.95-2.58-3.68-.46c-1.51,1.84-5.12,9.92-4.83,10.81A4.88,4.88,0,0,0,491.6,468.29Z"/><path class="cls-1" d="M460.3,504.51h0c.76-1.48.7-2-.39-3.28s-2.17-1.44-2.88-.05-.71,2.3.19,3.44C458.26,506,459.58,505.9,460.3,504.51Z"/><path class="cls-1" d="M494.85,447.46c-1.28-1.28-1.66-.92-2.92,2.74-1,2.78-.51,3.05,2,1.22h0C495.81,450.1,496.12,448.72,494.85,447.46Z"/><path class="cls-1" d="M440.16,215.55a184,184,0,0,0,0,367.9c101.59,0,184-82.36,184-184S541.75,215.55,440.16,215.55ZM294.3,352.62c-1.91.36-2.88-.72-3.68-4.11-.62-2.64-.62-2.72.08-3.37a15.71,15.71,0,0,1,4.38-1.5c3.06-.7,3.82-.76,4.53-.39s1,.31,2.64-1.33l1.79-1.8-.59-1.4c-.75-1.81-.51-2.72,1.55-5.87,2.25-3.46,3-4.21,4.14-4.21.53,0,4.49.75,8.8,1.67,9.53,2,9.54,2,9.44,5.88l-.07,2.63,1.74,2a15.92,15.92,0,0,0,1.92,2c.09,0,1.68-1.44,3.54-3.2,8.83-8.38,9.67-9,13-10.14,1.71-.57,4.23-1.48,5.59-2l2.49-1,.7.75c.59.63.7,1.29.69,3.9a62.07,62.07,0,0,0,1.13,9.54c.63,3.52,1.24,7.47,1.35,8.78l.2,2.39-3,3.41c-1.63,1.88-2.87,3.57-2.76,3.74a1.62,1.62,0,0,0,1.14.32c.7,0,1.84-.86,4.31-3.25a34,34,0,0,1,4.52-3.85c1.06-.55,1.22-.55,2.08,0,1.69,1.11,1.76,1.75.35,3.44a5.66,5.66,0,0,0-1.28,2.12,4.67,4.67,0,0,0,1.3,1.91,7.3,7.3,0,0,1,1.81,3.3c.5,1.87.49,2-.25,2.78a15.46,15.46,0,0,1-2.13,1.76l-1.36.95-2.09-.78a10.48,10.48,0,0,1-5.34-4.21c-.43-.69-.9-1.18-1.06-1.08a7.47,7.47,0,0,0-.72,2.39c-.44,2.21-.44,2.22-2.52,3.21a5.47,5.47,0,0,0-3.24,3.17,8.06,8.06,0,0,1-1.59,2.33c-.23.08-1.28-.75-2.34-1.84-2.15-2.22-2.4-3.14-2.4-8.82,0-3.14-.2-3.68-2.26-6.12a6.72,6.72,0,0,1-1.4-2.22c0-.3,1.07-1.23,2.38-2.06,2.33-1.49,2.63-2,2.38-3.74-.1-.73-1.11-1.83-1.67-1.83S329,358.49,327.3,360.42c-.75.85-1.28,1.14-2,1.06s-1.22-.74-3.22-5.11a58.43,58.43,0,0,0-3.51-6.71l-1.23-1.72-1.4,1.58c-1,1.17-1.33,1.76-1.15,2.32.58,1.76.52,6.19-.16,11.17l-.71,5.3.8,1.64c1.83,3.72,12.09,21.16,13.51,23,1.21,1.52,2.74,2.69,7.27,5.48,3.15,2,6.44,3.91,7.31,4.37a8.48,8.48,0,0,1,2.21,1.64c.73.95.84,2.85.21,3.49h0a1.62,1.62,0,0,1-1,.42,47.52,47.52,0,0,1-5.87-3c-6.9-3.9-8.73-5.77-20-20.55-9.34-12.24-10.94-14.59-11.26-16.6-.36-2.21-.71-2.71-3.4-4.79-1.76-1.36-2.72-2.4-3-3.23-.23-.67-1-2.44-1.67-3.93C297.59,353.1,296.43,352.22,294.3,352.62Zm77.81-15c1.19,1.11,1.26,1.75.27,2.73-1.64,1.64-3.15.57-2.66-1.89C370.09,336.56,370.74,336.33,372.11,337.61Zm-.39-22.39.11-2.12,2.38-.24a17.18,17.18,0,0,0,3.4-.64c1.49-.57,4.89-.51,5.12.09.29.76-.05,1.11-4.33,4.44a25.44,25.44,0,0,1-4.62,3.12c-.33,0-1-.57-1.39-1.26A5,5,0,0,1,371.72,315.22Zm-1.78,30.24c1.54,0,1.66.09,4.29,3.2,1.49,1.76,3.52,4.06,4.51,5.12,1.64,1.75,1.76,2,1.38,2.83a4.55,4.55,0,0,1-1.61,1.64c-1.35.83-2.93.95-3.49.28a136.55,136.55,0,0,1-6.66-12.5C368.36,345.6,368.76,345.46,369.94,345.46Zm-14.16,68.19c-.13.5-.43.9-.68.89a23,23,0,0,1-3.56-1.76c-3-1.7-3.1-1.78-3-3,.11-1.5.89-2.17,2.49-2.17,1,0,1.41.31,3.08,2.56C355.61,412.2,356,412.93,355.78,413.65Zm-21.39,76.93h0a7.17,7.17,0,0,1-2.55.38c-2.13,0-2,.15-4.17-5.48-1.36-3.55-3.15-6.08-4.06-5.73a27.84,27.84,0,0,1-2.74.63c-1.87.37-2.91.34-6.34-.17-2.26-.34-4.38-.7-4.72-.8-.66-.19-3.28-3.74-9.57-12.94-4.1-6-4.55-7.2-3.25-8.71.78-.91,10.49-5.34,11.14-5.09a18.13,18.13,0,0,1,2.2,4.22c1.83,4.25,2.15,6.27,1.18,7.55-.75,1-.69,1.54.57,5.46.88,2.76,1.36,3.68,2.39,4.58,1.46,1.28,1.43,1.27,3.54.71,1.36-.37,2-.3,4.94.56,3.14.9,3.46.93,4.46.41a6.85,6.85,0,0,1,1.28-.55c.32,0,.94,1.78,1.31,3.75.24,1.27,1,2.57,2.72,4.9,2,2.6,2.38,3.4,2.38,4.55S334.89,490.31,334.39,490.58Zm3.46,8.33a39.85,39.85,0,0,1-.93-4.8c0-.25.75-1,1.66-1.66,1.58-1.13,1.7-1.16,2.54-.61,1.31.86,1.7,1.84,1.58,4-.11,1.86-.15,1.93-1.76,2.71h0C339.06,499.44,338.06,499.57,337.85,498.91Zm21.66,38.8L359.4,539l-3.47.6h0c-1.91.33-3.88.62-4.39.63-.92,0-2.92-1.21-2.92-1.8a4.88,4.88,0,0,1,1.27-1.48c.7-.64,1.19-1.3,1.08-1.46a8.2,8.2,0,0,0-2.4-.92c-1.85-.52-2.6-1-4.56-2.93-2.33-2.3-2.34-2.32-3.11-5.84-.69-3.11-.72-3.7-.29-5a8.48,8.48,0,0,1,1.11-2.24l.62-.77,1.08.8a12.69,12.69,0,0,0,3.23,1.42,9.65,9.65,0,0,1,2.83,1.21c.9.78,6.31,8.63,8.46,12.27C359.26,535.77,359.6,536.67,359.51,537.71Zm7.05-35.49c.62.85,1.41,1.56,1.74,1.58a6.54,6.54,0,0,1,1,.13c.21,0,.55.11.77.14.64.09,1.25,1.79,1.25,3.54,0,1.49-.13,1.72-1.52,2.73-1.64,1.18-2.38,1.28-4.28.59s-3.77-2.47-8.48-8.52c-4.93-6.33-7.38-9.91-7.18-10.51a11.62,11.62,0,0,1,2.29-1.93c1.77-1.26,2.47-1.54,3.81-1.55a36,36,0,0,1,7.58,1.05c1.9.52,5.88,3.74,6.37,5.17a5.19,5.19,0,0,0,1.54,1.93c1,.74,1.28.82,1.79.44s2.53-.54,5.47-.67a42.38,42.38,0,0,0,6.06-.59,12.68,12.68,0,0,0,3.42-2.41c3.59-3.32,3.63-3.34,5.89-2.38a11.67,11.67,0,0,1,2.84,1.68l.93.87,1.94-1.45c1.52-1.14,2.07-1.38,2.59-1.1,1,.53,2.57,2.53,2.57,3.27s-2.67,3.85-3.92,4.35-19.86,2.62-23,2.62c-1.3,0-4.42-.25-6.92-.56C365.48,500,365,500.11,366.56,502.22Zm59.63-47.08a42.45,42.45,0,0,0,5.38-1.35c4.49-1.34,4.53-1.35,5.66-.69.63.36,1.78,1,2.56,1.41l1.41.74,1.51-.75c.83-.42,1.92-.92,2.42-1.11.75-.29,1.19-1.09,2.33-4.25s1.61-4,2.37-4.41a6.32,6.32,0,0,0,1.63-1.29c.82-1,1.34-.82,2.21.67.64,1.11.65,1.22.05,2.12s-.6,1,.63,2.21l1.26,1.25,2.81-1.28a10.27,10.27,0,0,1,3.27-1.11,12.38,12.38,0,0,1,2,2.56c.86,1.31,1.71,2.29,1.88,2.18a5.24,5.24,0,0,0,.86-1.78,3.07,3.07,0,0,0,.07-2.71,2.62,2.62,0,0,0-1.24-1.36c-.63-.2-.76-.54-.76-2,0-1.65-.13-1.91-1.83-3.58a8.88,8.88,0,0,1-1.83-2.21c0-.55.81-1.34,3.51-3.41,2.17-1.67,2.26-1.81,3.44-5.3,2.23-6.59,2.17-6.51,4.89-7.41l2.39-.8,2.24-3.63c1.24-2,2.46-3.63,2.73-3.63a8.34,8.34,0,0,1,2.22,2.44l1.74,2.44,1-1.17c2-2.42,2.05-2.6,1.14-7.24a31.15,31.15,0,0,1-.68-4.38,35.44,35.44,0,0,1,4.18-.38l4-.23,3.06,2c3.79,2.49,4.89,3.05,6.6,3.36,1.21.22,1.59.08,3.52-1.35,3.07-2.26,4.31-2.72,5.47-2.06,1.71,1,1.79,1.51.71,4.83a25,25,0,0,0-1,3.64,11,11,0,0,1-1.36,2.87l-1.35,2.27,1.05,3.88c1.8,6.66,2.12,5.83-3.33,8.58-6,3-6.2,3.16-5.65,4.19s1.34,1,2.85-.15A2.8,2.8,0,0,1,506,437a7.69,7.69,0,0,1,1.66,2.59c1.25,2.67,2.47,3.85,4,3.85a2.73,2.73,0,0,0,2.52-2.4,7.41,7.41,0,0,0-.54-2.11,3.59,3.59,0,0,1-.36-1.8,5.82,5.82,0,0,1,2.5-1.74c.63,0,2.79,2.39,2.79,3.08a12.81,12.81,0,0,1-2.75,6.63,15.77,15.77,0,0,0-1.64,2.37,9.38,9.38,0,0,0,1.68,1.81c1.23,1.13,1.79,1.44,2.08,1.14.59-.59,3.36-.5,5.8.19s3.31.53,5.06-.93l1.27-1.06-1-3.23a44.19,44.19,0,0,0-1.78-4.67,6.78,6.78,0,0,1-.11-5.14c.17-.56-.09-.94-1.09-1.58-1.28-.82-1.37-.82-3.27-.27-3,.88-3.23.82-4.35-1.54-1.3-2.72-1.27-5.32.07-5.51a5.87,5.87,0,0,1,2.34.48c1.68.67,1.85.57,2.47-1.37.41-1.29.36-1.5-.69-3.14a7.27,7.27,0,0,1-1.13-2.48,4.85,4.85,0,0,1,1.43-2.11c1.54-1.5,1.22-1.46,5.4-.75a3.3,3.3,0,0,0,2.79-.52c2.48-1.53,3.17-.62,2.5,3.33-.21,1.26-.49,3.53-.63,5a7.85,7.85,0,0,1-.82,3.4c-.54.61-.4,1,1.9,5.64,2.71,5.44,5,8.77,6.39,9.11.6.16,1.81-.28,4.09-1.47a12.38,12.38,0,0,1,3.71-1.5,7.27,7.27,0,0,1,1.57,2.06c.61,1,1.39,2.24,1.74,2.69l.64.83,3.3-.84,3.31-.84,1.09.92c1.73,1.45,2,2.17,1.87,5.95-.12,5.32-.07,5.2-3.56,7.52-3.29,2.19-3.19,2-4.18,6.55a4,4,0,0,0,.22,3.2c.34.76.85,1.38,1.14,1.38a7,7,0,0,0,2.15-1.13,39.9,39.9,0,0,1,7.2-2.94c3.05-1,5.75-1.91,6-2,.62-.26,2,1.2,1.72,1.86a54.44,54.44,0,0,1-5,4.85c-6.45,5.78-7.52,6.68-7.93,6.68a4.05,4.05,0,0,1-1.36-1.15c-.55-.63-1.22-1.37-1.49-1.64s-1.35-.5-3-.5h-2.53l-2.73,2.47c-1.5,1.35-4.2,3.8-6,5.44-2.64,2.4-3.65,3.09-5.29,3.57-3.6,1-5.38.68-5.38-1.1a40.53,40.53,0,0,1,1.72-5.69c1.36-3.85,2-5.2,3.15-6.43a5.2,5.2,0,0,1,2-1.55,11,11,0,0,0,2-.39c1.2-.34,1.68-.84,3.55-3.68,2.06-3.13,2.15-3.37,1.94-5-.32-2.48-.54-2.63-3.84-2.63-2.76,0-5.06-.57-5.56-1.39-.13-.2.43-1.2,1.23-2.22a15.61,15.61,0,0,0,1.47-2c0-.1-.34-.36-.75-.58-.62-.33-1.16-.18-3.08.9a10.31,10.31,0,0,1-3.42,1.3c-.86,0-1.27.27-1.86,1.23-1,1.58-1,1.74.37,8.56,1,5,1.07,5.92.68,7-.69,2-1.35,2.49-4.42,3.46-2.4.76-3.72.92-8.25,1l-5.39.11-.78-1.48c-.43-.81-1.79-2.94-3-4.73-2.26-3.26-2.26-3.27-2.2-5.74.07-2.67-.61-4.33-1.78-4.32-.65,0-2.22.91-3.61,2.08-.71.59-5.75,8.54-7.2,11.33a53.9,53.9,0,0,0-1.69,7.84c-1.56,9.37-1.18,8.42-3.23,8.15-1.58-.21-1.78-.15-2.21.65a6.28,6.28,0,0,0-.36,2.67c.11,1.67.05,1.82-.89,2.16s-2.69.08-4.68-.69a2.13,2.13,0,0,0-1.58.57l-1,.79.94,1a3.5,3.5,0,0,1,.94,1.4,58.89,58.89,0,0,1-4.4,8.32c-.18.11-2.18-1.53-4.45-3.65a36.08,36.08,0,0,0-4.54-3.85c-.55,0-5.25,2.67-5.25,3,0,.49,3.94,2.49,4.91,2.49,1.26,0,2.4.61,2.4,1.28s-1.39,1.37-2.88,1.19c-1.34-.16-3.79.84-7.08,2.9-1.8,1.13-2.56,1.07-4.12-.3L454.24,508l-1.08,1c-1.32,1.27-1.34,1.77-.17,3.31s1.16,1.87-.45,2.34c-3.68,1.08-4.76.95-8.84-1.05a22.46,22.46,0,0,0-4.61-1.87c-1.15,0-2.49,1.17-4.41,3.87h0c-1.78,2.5-1.82,2.52-2.79,2s-1.44-1.67-1-3.23c.3-1.13,1.06-2,3.58-4.23l3.19-2.79,3.11.23,3.1.24,2.45-4.92,2.44-4.92,2.4-1.12a7.45,7.45,0,0,0,2.4-1.46c0-.18-.68-.63-1.51-1-2-.89-3.24-1.9-3.24-2.6a18.66,18.66,0,0,1,2.62-3.85c3.09-3.87,3-4.07-1.36-3.73-2.47.19-3,.13-3.44-.38-.73-.88.36-2.16,3.86-4.52,4.32-2.91,4.18-2.76,3.79-4.16a48.85,48.85,0,0,0-5.56-8.62,48.64,48.64,0,0,0-4.66-2.12,20.52,20.52,0,0,0-7.86-2.06c-4.82-.4-5.55-.41-7.53-.1-2.8.43-5.45-1.36-5.45-3.69C423.2,457,424.84,455.13,426.19,455.14Zm-2.62-14.54c0-1.27.77-3.38,1.23-3.38a3.74,3.74,0,0,1,2.05,2.1c0,.22-.43.75-1,1.16h0C424.7,441.42,423.56,441.48,423.57,440.6Zm50.65-50.13a5.8,5.8,0,0,1-.57-1.44,28.13,28.13,0,0,1,2.26-3.68c2.51-3.7,2.56-3.73,6.15-2.9,1.49.35,2,.66,2.43,1.51s.5,1.21-.06,2.47a9.27,9.27,0,0,1-1.68,2.39,3.6,3.6,0,0,0-1,1.4,10,10,0,0,0,2.39,2.15c2.73,2,3.06,2.55,2.15,3.55h0c-.59.66-1.13.72-6.17.7-4.31,0-5.78-.16-6.7-.62-.66-.32-1.19-.74-1.19-.92a8,8,0,0,1,1.3-1.92C474.76,391.61,474.78,391.55,474.22,390.47Zm-5.08-10.28c1.07,0,3.05,1.79,3.05,2.76,0,1.18-.93,1.17-2.47-.05C468.42,381.87,468.05,380.19,469.14,380.19Zm21,9.42.95-.71,2.34,1.17c3.79,1.91,4.41,2.45,4.28,3.78-.1,1-.24,1.15-1.39,1.21a8,8,0,0,1-6.14-2.31C488.81,391.18,488.8,390.61,490.14,389.61Zm38-36.95a14.84,14.84,0,0,1-.42-2.21c0-.74,3.07-2.18,4-1.89.64.21,3.3-1,3.3-1.47a15.87,15.87,0,0,0-2-1.66c-2.46-1.86-2.56-2.59-.45-3.39s2.51-.8,5.8,1.07a31,31,0,0,0,4.48,2.14c1.31.39,10.88,5.7,15.23,8.44A3.77,3.77,0,0,1,560,358a2.92,2.92,0,0,1-.74,1.18c-.22.13-3,.72-6.12,1.3l-5.72,1.06-2.65-.89c-2.39-.8-2.76-.84-3.69-.37-.71.35-3.57.63-9.08.9-11,.52-10.14.58-11.15-.8-1.18-1.58-1.17-3.41,0-4.33.69-.53,1.52-.69,3.66-.69C528.19,355.33,528.75,354.92,528.18,352.66Zm16.21-15a12,12,0,0,0-3.45-1.45c-2.56-.49-4.44-2.58-3.59-4,.41-.7.69-.76,2.76-.57a59.9,59.9,0,0,0,7.86-.33c6.36-.61,8.28-.65,9-.21.42.27.41.72-.08,2.83-.33,1.38-.68,3-.78,3.51-.27,1.4-1.57,1.65-4,.74-1.86-.72-1.95-.72-3.55-.07h0C546.45,339,546.51,339.05,544.39,337.71Zm53.87,69.67c1.25-.95,1.74-1.14,2.26-.86,1.31.7,1.33,2.09.11,5.37-.67,1.8-1,2-8.32,3.94h0a47.83,47.83,0,0,1-5.53,1.28c-1.09,0-1.43-1.43-.75-3.07.6-1.42,1.12-1.76,3.69-2.38A29.86,29.86,0,0,0,598.26,407.38Zm-5.06-15.61c0-1,2-2.81,3.09-2.81a3.15,3.15,0,0,1,1.86.9,4.23,4.23,0,0,1,.26,4.91h0a3.31,3.31,0,0,1-3.66.71C594,395.09,593.2,393.25,593.2,391.77Zm10.2,38.41c.87-1.15,1.87-2.1,2.22-2.1,1.25,0,2.93.81,2.92,1.41s-9.42,12.9-12,15.53h0c-2.3,2.36-2.75,2.58-3.54,1.72-.48-.54-.57-1-.38-2.19s1.16-2.57,4.72-6.87C599.81,434.71,602.53,431.34,603.4,430.18Zm-17.53,28.7c-1.55,1.88-2.33,1.79-3.06-.34a14.15,14.15,0,0,1-.58-2c0-.36,4.89-3.58,5.46-3.58C588.65,452.94,587.39,457,585.87,458.88Zm.2-54.7h0a45.55,45.55,0,0,1-5.39,1.95c-.38,0-1.39-1-2.5-2.54-1.73-2.38-1.95-2.56-3.23-2.56-1.82,0-5.15-1-5.15-1.57s6.65-3.66,8.54-4.12a2.28,2.28,0,0,0,1.59-1.58c1.05-2.58,5.31-10.83,5.72-11.1.67-.43,1.19-.32,2.09.4s.85,1,.9,4.48a43.87,43.87,0,0,0,1.08,8.55c.57,2.62,1,5.07,1.06,5.46C590.81,402.12,589.91,402.62,586.07,404.18ZM573.63,450c-.92,1-2,.89-3.37-.4s-1.46-1.64-.42-2.19a3.35,3.35,0,0,1,3.85,1C574.24,449.24,574.24,449.35,573.63,450Zm-6-65.08c-3.24,4.33-2.83,4-5.15,4.54-1.09.27-2.38.58-2.89.69-1.18.26-7.67-1.82-7.67-2.45,0-.26.86-.87,1.91-1.36a16,16,0,0,0,3.43-2.25,12,12,0,0,1,3.47-2.06c1.09-.37,3.34-1.3,5-2.07,3.38-1.55,4.18-1.47,4.37.42C570.18,381.25,569.65,382.21,567.6,385Zm-5.52,35.25,1.31-.89.87.87c1.41,1.41,1.14,2.51-1.29,5.24h0c-2.39,2.68-2.68,2.88-3.33,2.23C558.38,426.39,559.92,421.66,562.08,420.2Zm.44-16.55c.64-.4.9-.38,1.64.11,1,.66,1.12,1.52.32,2.67h0c-.76,1.08-1.78,1-2.3-.12C561.56,405,561.66,404.19,562.52,403.65ZM551.28,423c-.45,0-1.39-1-1.69-1.88a10.26,10.26,0,0,1,.49-3.29,25.25,25.25,0,0,0,.7-3.36c0-1.11,1.1-3.08,1.81-3.26a4.26,4.26,0,0,1,3.14,1.2,5.78,5.78,0,0,1-.21,2.48c-.38,1.57-.39,2.06,0,2.18.95.32.34,1.67-1.68,3.75h0A11.58,11.58,0,0,1,551.28,423Zm-27-36.34,7.5-1.57c4.12-.86,7.75-1.56,8.07-1.56.83,0,1.92,1.31,3.21,3.88.86,1.74,1.44,2.41,2.51,2.93s1.41.94,1.49,1.63c.11.9,0,1-2,1.16a7.79,7.79,0,0,0-3.58,1.22,43.58,43.58,0,0,1-7,3.79,7.89,7.89,0,0,1-2-1.09,8,8,0,0,0-2-1.1,10.85,10.85,0,0,0-2.44,1.83h0a8.18,8.18,0,0,1-2.74,1.83c-.48,0-1-.72-1.86-2.38-.64-1.31-1.39-2.38-1.65-2.38a8.57,8.57,0,0,0-2.41,1.65,10.59,10.59,0,0,1-2.28,1.64c-.48,0-2.17-1.84-2.51-2.74a1.79,1.79,0,0,1,0-1.31,42.2,42.2,0,0,1,5-4ZM522.5,490.4a1.9,1.9,0,0,1-1.42.92c-1,0-3.19-1.37-3.19-2,0-.8,1.52-1.63,3-1.63,1.12,0,1.47.18,1.8.9A1.54,1.54,0,0,1,522.5,490.4Zm-15.74,1.46c-1.34.31-2.48.56-2.52.56-.26,0-.93-.68-1.45-1.43s-.51-1-.17-1.42.27-.66-.42-1.21c-1-.84-1.57-.86-3-.12-.86.45-1.22.48-1.63.14-.91-.75-.58-1.36,1.55-2.88,1.8-1.3,2.32-1.48,4-1.48a33.53,33.53,0,0,1,4.49.41c2.26.37,2.63.56,3.63,1.81a5.11,5.11,0,0,1,1.11,1.87,5.55,5.55,0,0,1-1.59,1.83,8.57,8.57,0,0,1-4,1.92ZM489.4,509.71c-1.3-1.58-1.32-1.68-.55-2.45s2.44-.74,3.83,0c1.54.8,1.32,1.79-.74,3.21h0C490.73,511.28,490.69,511.27,489.4,509.71Zm-23.58,20.62h0c-.31.8-1.22.55-8.53-2.37-4.84-1.94-7-3-7-3.38,0-.8,4.73-8.41,5.39-8.66s3.6,1.28,4.5,2.4a9.44,9.44,0,0,1,1.12,3.11,5.33,5.33,0,0,0,1.48,3.22C464,525.83,466.07,529.66,465.82,530.33Zm-40.95-58.54a4.29,4.29,0,0,1,2.67,1,37.66,37.66,0,0,0,4.32,3.27c2.06,1.4,3.84,2.87,4,3.27.28.88-1.25,3.61-2.62,4.69s-1.46,1-3.7-.53a48.9,48.9,0,0,0-5-2.77c-2.46-1.18-3.41-1.86-4.59-3.35a5.39,5.39,0,0,1-1.38-2.61c.07-.45.92-1.22,2.19-2C422.65,471.61,422.94,471.55,424.87,471.79Zm-2,21.54c-.63.91-1.34,1.63-1.58,1.61-2.92-.31-5-1.24-5.53-2.43a7.57,7.57,0,0,1,1.11-2.83c1.59-2.88,2.21-3,4.83-.93C424.09,490.67,424.25,491.28,422.84,493.33Zm-1.94-43c-.54.87-.8,1-2.89,1H415.7l-.1,2.44c-.11,2.32-.18,2.5-1.56,3.74h0c-2.85,2.58-3.81,1.64-3.85-3.77a47.1,47.1,0,0,0-.66-7.11c-.48-2.49-.53-3.35-.2-3.75.57-.68,2.31-.65,3.7.07,2,1.05,8,5.35,8.24,5.91A2.18,2.18,0,0,1,420.9,450.34Zm-7.28-72h0a4,4,0,0,1-2.12.44c-2.11,0-2.56-.45-2.56-2.56s.45-2.56,2.56-2.56,2.56.45,2.56,2.56A4.07,4.07,0,0,1,413.62,378.29Zm-1.6,100c.65,1.21.66,1.36.12,1.91s-.88.53-2.69.17c-3.23-.65-3.89-.55-5.54.86-1.17,1-1.53,1.59-1.62,2.61h0a2.34,2.34,0,0,1-.9,1.84c-.72.47-.89.43-2-.56a11.2,11.2,0,0,1-1.84-2.14c-.59-1-.58-1.11.13-2.23,1-1.58,8.82-6.29,10.43-6.29Q410,474.51,412,478.34Zm-14.23-32.2c-1.57,1-2.77,1-6-.26-2.46-.94-3.13-1.35-3.22-2a4.51,4.51,0,0,1,2-3.18c1.4-.54,8.16,3.1,8.16,4.38C398.7,445.35,398.29,445.82,397.79,446.14ZM613.65,398.7c-.29-4.41-.22-5.56.4-5.66a1,1,0,0,1,.3,0c.3.06.49.39.65,1,.06,1.82.1,3.63.1,5.46A175.17,175.17,0,0,1,396.77,569.05a5.16,5.16,0,0,1-.25-2.25,7.78,7.78,0,0,0-1.75-2.46c-2.42-2.61-4.1-4.86-4.1-5.45s2.64-2.1,3.75-2.1a6.21,6.21,0,0,1,2.2.7l1.4.7,3.36-1.65a18.31,18.31,0,0,1,4.1-1.6c.54,0,1.21.54,1.95,1.55a8.32,8.32,0,0,1,1.15,1.85,9.62,9.62,0,0,1-1.65,2,12.81,12.81,0,0,0-1.65,2c0,.13.4.48.9.8.85.56,1,.57,2.2-.2,1-.62,2.67-1,7-1.55l5.65-.7,2.9,1.15c3.21,1.33,3.3,1.34,6.05-.75L431.5,560l4.1,1.9c5.87,2.7,6.2,2.26,1.65-2-3.09-2.92-3.78-3.43-4.55-3.25-.51.11-2,.29-3.31.4a7.32,7.32,0,0,1-4.8-.9,18.2,18.2,0,0,1-4-2.55,7.32,7.32,0,0,0-2.05-1.5,8,8,0,0,0-2.2,1.05c-2.12,1.3-2.55,1.37-3.66.35-.94-.88-.91-1.84.2-4.2.58-1.22,1.54-1.91,7.41-5.36,3.69-2.16,7-4,7.45-4.15a23.73,23.73,0,0,1,5,.75c4.41,1,5.2.88,6.45-.5.69-.77.71-.85.1-2.55-.81-2.27-.83-2.48.2-3.15.81-.53,1.14-.44,5.2,1,4.22,1.49,4.57,1.66,11,6.55a65.75,65.75,0,0,0,8.2,5.65,45.08,45.08,0,0,1,5.11,2.66l3.45,2.05,1.15-1.35c1.41-1.64,2.1-1.71,3.1-.3s.91,2,.15,3.85c-.57,1.37-.54,1.37.65,2.6,1.36,1.4,2.1,1.55,3,.55.52-.57.61-1.09.4-2.9l-.25-2.2,1.21-.75a20.22,20.22,0,0,1,3.55-1.55c1.25-.42,2.25-.95,2.25-1.21a7.43,7.43,0,0,0-1.85-2.2c-1.85-1.7-1.87-1.73-1.7-3.5.2-2.15-.08-2.63-3.71-6.8a22.32,22.32,0,0,1-2.6-3.35c0-.37.75-.6,3.66-1,3.44-.49,6-1.35,7-2.41a3.28,3.28,0,0,1,1.6-1c1,0,5.3-2.53,5.3-3.1,0-.28-.35-.62-.75-.75-1-.33-.9-.8.65-2.35,1.27-1.27,2.26-1.68,13.41-5.3,9.06-3,12.61-4.26,14.26-5.31,1.21-.76,6-3.36,10.66-5.8,6.74-3.53,8.78-4.45,9.95-4.45a8.3,8.3,0,0,0,2.05-.2,10.06,10.06,0,0,0,2-3.06l1.45-2.8,5.06-2.15a50.18,50.18,0,0,0,5.6-2.65c.76-.64,2.09-.6,4,.1,1.3.46,1.66.49,1.91.1s1-1.72,1.9-3.25c1.41-2.46,1.74-2.82,2.85-3a17.23,17.23,0,0,0,4.15-2c1.58-1,5.64-3.38,9.06-5.31a50.35,50.35,0,0,0,7.55-4.9,164.2,164.2,0,0,0,12.66-17.26c2.13-3.64,2.29-4,2.3-6.15a12.17,12.17,0,0,1,.7-4.11c1.45-3.69,3.7-11.62,3.7-13.15a13,13,0,0,1,.4-3.06l.45-1.5-3-2.8c-1.65-1.53-3-3-3-3.4,0-1.4,3.52-7.38,5.9-10.06s2.41-2.79,2.6-5.15A60.68,60.68,0,0,0,613.65,398.7ZM576.18,295.08a11.14,11.14,0,0,0,.85,2.71c.8,1.54,12.19,14.4,12.76,14.4.23,0,.48-.24.6-.55s.46-.41.75-.55a174.45,174.45,0,0,1,15.46,34.47c-.37.3-1.22-.05-2.55-.7l-2-1-5,.8-5,.75-7.85-2.55c-9.85-3.2-9-2-9.61-13.86-.35-6.84-.63-9.34-1.35-12.25-1.65-6.66-1.57-6.4-2.45-6.41a35.22,35.22,0,0,1-4.8-1.2L561.92,308v-4.75c0-4.45-.08-4.94-1.2-7.86-2.06-5.38-3-5.36-3,.15v3.31l-2.8,2.7c-4.23,4-3.93,3.88-9.41,2.55l-4.6-1.1-1.8,1.65a12.43,12.43,0,0,1-2.05,1.7c-1.39,0-5.95-2-8.86-3.8-4.86-3.08-4.82-3.42.2-5.65,2.06-.92,3.76-1.84,3.76-2.06,0-.41-7-4.6-7.66-4.6-.22,0-.86.86-1.45,1.9-1.07,1.87-1.15,1.92-6.5,4.31-5,2.21-5.49,2.54-6.11,3.8s-.66,1.34.25,3.25a21,21,0,0,0,3.85,4.8l2.91,2.9,1-1.5c.57-.82,1.24-1.49,1.5-1.5.51,0,1.54,2.08,1.55,3.15A7.75,7.75,0,0,0,523.3,314c1.45,1.6,2.36,2.2,5.75,3.7l4.06,1.75,6.15-.15,6.1-.1,4.56-3.1a35.86,35.86,0,0,1,5.05-3.11c.62,0,2.75,2.4,2.75,3.11a8.15,8.15,0,0,1-1.7,2.5c-1.51,1.72-2.3,2.2-5.8,3.7-9.43,4-8.87,3.89-13.86,3.75-3.78-.1-4.61-.22-5.26-.8s-.86-.67-2.9-.1c-3.28.92-3.54.85-6.6-1.9a12.94,12.94,0,0,0-5.85-3.5c-2.91-1-3.19-1-6.56-.65a22.25,22.25,0,0,1-4.1.2,17,17,0,0,1-2.35-1.55,31,31,0,0,0-2.6-1.75c-1-.54-4.54-6.51-5.86-9.91a12.42,12.42,0,0,0-1.35-2.85c-.18-.12-.79.19-1.3.7-.9.9-.89,1-.35,2.15.79,1.7,1.89,8.49,1.6,10a2.49,2.49,0,0,1-1,1.65c-.68.36-1,.18-2.85-1.8a17.37,17.37,0,0,0-2.35-2.25c-.41,0-1.35,2.13-1.35,3.05a8,8,0,0,0,.7,2.45c.84,1.89.68,2.68-.8,3.6a25.58,25.58,0,0,0-3.3,2.9l-2.16,2.2,2,3.76c2.26,4.26,3.13,5.09,6.35,5.8,2.81.62,3.45,1,3.45,1.95,0,.62-.85,1.39-3.4,3.2-4.32,3.07-4.24,3.05-8.06,4-4.08,1-4.63,1-7.7-.26s-3.42-1.82-2.2-4.45,1.08-3.1-.25-4.05l-1.1-.75-1.05,1.1a5.45,5.45,0,0,1-1.3,1.15,18.17,18.17,0,0,1-2.41-2.1c-1.89-1.8-2.44-2.12-4.1-2.35-4.31-.62-4.88-.5-7.4,1.55-2.23,1.81-3.31,3.57-3,4.85a60.57,60.57,0,0,0,6.3,5.8l6.2,5.26,10.06,3.35,10.06,3.3,9.35,1.3c9.23,1.29,12.34,2,13.16,3,.33.41.06.87-1.25,2.26-1.65,1.74-1.65,1.75-4.05,1.75-1.75,0-2.5-.16-2.76-.55s-.54-.37-1.3.55c-1,1.26-1.12,1.9-.4,3.3a2.38,2.38,0,0,1,.35,1.45c-.09.25.46.94,1.2,1.55,1.25,1,1.57,1.14,4.71,1.25,3.32.12,3.41.15,4.9,1.5a5.9,5.9,0,0,0,1.95,1.35c.58,0,5.05,7.35,5.05,8.31a2.11,2.11,0,0,1-.7,1.3c-.87.79-1.84.74-7.55-.45-6.72-1.4-14-3.79-16.16-5.3l-3.7-2.66-1.95-1.4-5.21-.05c-4.16,0-5.45-.19-6.45-.7-1.68-.86-1.82-1.16-1.2-2.65.33-.79.41-1.44.2-1.65a25.8,25.8,0,0,0-4.65-1.2l-4.36-.85-2.2.7c-3.34,1.12-3.29,1.1-2.55,3.05.62,1.64.59,1.73-.2,3-.93,1.52-1.42,1.59-2.45.45-1.46-1.6-1.61-2.31-.95-3.95.34-.86.43-1.62.25-1.8-.64-.61-4.84-2.2-5.3-2a13,13,0,0,0-2.26,2.55L444,374.68h-2.8c-1.55,0-4.49-.25-6.5-.5l-3.65-.45-4.56,1.65c-5.67,2-6,2.05-6.45,1.45a28.23,28.23,0,0,1-1.55-4.05c-.67-2-1.46-3.72-1.8-3.9a48.78,48.78,0,0,0-5.56-1.25c-9.45-1.79-8.59-1.73-10.45-.55a9.8,9.8,0,0,1-1.95,1.05c-.46,0-1.22-6-1-7.46a1.64,1.64,0,0,0-.56-1.85,12.62,12.62,0,0,1-2.55-4.4,13.35,13.35,0,0,1,.9-2.45c.91-2.05,1.18-2.26,4.26-3.2a3.59,3.59,0,0,0,1.95-1.5c.73-1.24.84-1-1.7-4.06l-1.4-1.65.1-3.6.1-3.55,1.9-1.05,1.85-1.1,3.25.75,3.25.7,2.95-1.6c3.22-1.76,4-1.9,7.71-1.25,2.6.45,2.75.4,5.7-2.16a35.11,35.11,0,0,1,4.9-3.15c4.13-2.22,4.2-2.32,3.76-3.15-1.23-2.29-2.48-2.32-5.11-.15-3,2.45-3.45,2.47-5.45.3a35.85,35.85,0,0,0-3.8-3.4c-1.85-1.4-2.19-1.55-3-1.2s-.87.59-.7,1.8c.21,1.59,0,1.85-3.11,3.7-2.71,1.63-3.27,1.55-4.2-.65-1-2.48-1.91-2.74-5.55-1.75-3.21.87-4.72.57-4.5-.9.09-.67,1-1.16,5.4-2.9,4.21-1.67,5.31-2.26,5.4-2.85.07-.42,0-.75-.2-.75a7.17,7.17,0,0,1-1.7-.95c-1.18-.81-1.55-.84-2.5-.51a3.13,3.13,0,0,1-3.75-.65c-1.79-1.42-1.73-2.77.2-4.65a6,6,0,0,0,1.45-1.85,4,4,0,0,0-1.1-1.45,3.7,3.7,0,0,1-1.1-1.5c0-.25.62-.8,1.35-1.25,1.36-.84,1.38-.87,3.8.15.37.15,1.13-.26,2.15-1.2,1.34-1.24,1.49-1.52,1.15-2.15a1.74,1.74,0,0,0-2.5-.75c-.61.38-.95.29-2.2-.71a6,6,0,0,0-2.05-1.2c-1,0-6.21,2.81-7.21,3.91-.52.57-2.33,3.09-4,5.55l-3,4.45H385c-3.22,0-3.45-.05-4.15-.95a9,9,0,0,1-1.21-2.15,3.23,3.23,0,0,0-3.1-2,35.26,35.26,0,0,0-5.25,3.8c-6.42,5.21-6.31,5.14-7.1,4.25-.57-.62-.58-1.13-.35-4.15l.25-3.45,1.35-.25c1.65-.28,9.33-4.55,8.9-4.95s-13-3.66-14.31-3.66c-2.11,0-7.3,3.12-10.85,6.56-1.81,1.75-3.85,3.58-4.56,4.1a66.75,66.75,0,0,1-7.75,3.7l-6.5,2.75-4.51.25c-5.75.33-6.31.06-10.55-4.85s-4.43-5.22-3.71-6.25a8,8,0,0,1,2.56-1.75c2.17-1,2.26-1.36,1.4-3.8s-.69-3.2,1.75-6.91c1.68-2.56,2.72-3.79,4-4.6,1-.61,2.84-1.79,4.2-2.65,2.82-1.8,9-6.67,9.16-7.26.07-.21-.46-.68-1.15-1.05l-1.25-.7-2.06,1.65c-4.06,3.19-4.94,3.72-5.5,3.5-.83-.32-1.08-2-.5-3.1a30.26,30.26,0,0,1,5.55-5.75,3.36,3.36,0,0,0,1.61-2.75c.26-2.11.64-2.5,3.75-4,2.11-1,2.82-1.36,3-2.4a12.43,12.43,0,0,1,.7-3.15,174.09,174.09,0,0,1,101.41-32.37h0a174.72,174.72,0,0,1,53.43,8.31l2.7,2.9c3.51,3.74,3.21,3.64,7.41,1.9l1.45-.6a175.36,175.36,0,0,1,72.94,54.83,4.48,4.48,0,0,1-1.2,1.1C576,293.54,576,293.78,576.18,295.08Zm-79.85,41.39c-.8,1.87-1.36,2.06-2.47.85s-1.34-2.33-.47-3.75,1.75-1.61,2.86-.43,1,1.23.08,3.33Z"/><path class="cls-1" d="M126.26,253.54A48.35,48.35,0,0,0,78,301.83V501.71A48.35,48.35,0,0,0,126.26,550H260.47V492H136V311.56H260.47v-58H126.26Z"/><path class="cls-1" d="M1608.65,432.57h.63a48.35,48.35,0,0,0,48.29-48.3V301.83a48.34,48.34,0,0,0-48.29-48.29H1467.9V550h58V432.57h16.38l69.47,111.21,3.88,6.22H1682l-12.64-20.24Zm-9.1-121v63h-73.62v-63Z"/><path class="cls-1" d="M1291.08,253.54h-13.23V550h182.51V492H1335.88V425.74h73.32v-58h-73.32V311.56h124.48v-58H1291.08Z"/><path class="cls-1" d="M1077.6,253.54h-13.23v58h74.49V550h58V311.56h74.49v-58H1077.6Z"/><path class="cls-1" d="M796.49,253.54H783.26V492H691.35V253.54h-58V501.71A48.34,48.34,0,0,0,681.61,550H793a48.35,48.35,0,0,0,48.3-48.29V253.54h-44.8Z"/><path class="cls-1" d="M1013.1,253.54H999.87V425.82L906.24,260.25l-3.8-6.71H849.93V550h58V377.71l93.63,165.57,3.8,6.72h52.52V253.54h-44.8Z"/><path class="cls-1" d="M475.77,596.79H125.38a47.42,47.42,0,1,0,0,94.83H475.77a47.42,47.42,0,1,0,0-94.83Zm0,83.65H125.38a36.24,36.24,0,1,1,0-72.47H475.77a36.24,36.24,0,0,1,0,72.47Z"/><path class="cls-1" d="M152.64,634.31H138.21c-.84-5.82-4.53-8.84-9.28-8.84s-10.62,3.19-10.62,13.31v10.85c0,10.12,5.92,13.31,10.62,13.31s8.44-3,9.28-8.84h14.43c-3.25,8.22-12.75,13.59-23.15,13.59-11.74,0-25.83-7.66-25.83-23.49s14.09-23.48,25.83-23.48C139.89,620.72,149.39,626.09,152.64,634.31Z"/><path class="cls-1" d="M195.44,651.53c0,9.11-8.5,16.72-19.68,16.72s-19.68-7.61-19.68-16.72,8.5-16.72,19.68-16.72S195.44,642.42,195.44,651.53Zm-25.27-4.81v9.62c0,5.37,2,8.33,5.59,8.33s5.59-3,5.59-8.33v-9.62c0-5.37-2-8.33-5.59-8.33S170.17,641.35,170.17,646.72Z"/><path class="cls-1" d="M239.59,666.57H226.28v-3.3a15,15,0,0,1-11.07,4.53c-7.27,0-14.65-4.47-14.65-14.76V636.49h13.31v18.9c0,4.53,3.24,6.26,6.2,6.26s6.21-1.73,6.21-6.26v-18.9h13.31Z"/><path class="cls-1" d="M285.85,650v16.55H272.54v-18.9c0-4.53-3.24-6.26-6.21-6.26s-6.2,1.73-6.2,6.26v18.9H246.82V636.49h13.31v3.3a15,15,0,0,1,11.07-4.53C278.47,635.26,285.85,639.73,285.85,650Z"/><path class="cls-1" d="M307.21,636.49v30.08h-13.3V636.49h-7.38v-4.36h7.38V626h13.3v6.15h7.38v4.36Z"/><path class="cls-1" d="M352.08,656.06c-2.68,8.05-11,12.19-18.95,12.19-11.18,0-19.68-7.61-19.68-16.72s8.5-16.72,19.68-16.72,19.68,7.61,19.68,16.72H327.54v4.81c0,5.37,1.73,8.33,5.59,8.33s5.59-3,5.59-8.33v-.28Zm-24.54-9.34v.45h11.18v-.45c0-5.37-1.73-8.33-5.59-8.33S327.54,641.35,327.54,646.72Z"/><path class="cls-1" d="M371.36,639.79a15,15,0,0,1,11.07-4.53V642a12.22,12.22,0,0,0-3.18-.44c-3.36,0-7.89,1.79-7.89,6.09v18.9h-13.3V636.49h13.3Z"/><path class="cls-1" d="M402.93,632.13h7.77v4.36h-7.77v30.08H389.62V636.49h-5.87v-4.36h5.92c.45-6.6,5.37-10.85,16.95-10.85a29.89,29.89,0,0,1,5.81.39v4.87a7.72,7.72,0,0,0-3.3-.62C405.83,625.92,403,627.65,402.93,632.13Z"/><path class="cls-1" d="M449.21,656.06c-2.68,8.05-11,12.19-18.95,12.19-11.18,0-19.68-7.61-19.68-16.72s8.5-16.72,19.68-16.72,19.68,7.61,19.68,16.72H424.67v4.81c0,5.37,1.73,8.33,5.59,8.33s5.59-3,5.59-8.33v-.28Zm-24.54-9.34v.45h11.18v-.45c0-5.37-1.73-8.33-5.59-8.33S424.67,641.35,424.67,646.72Z"/><path class="cls-1" d="M455.16,630.84v-9h13.31v9Zm0,35.73V636.49h13.31v30.08Z"/><path class="cls-1" d="M491.94,636.49v30.08h-13.3V636.49h-7.38v-4.36h7.38V626h13.3v6.15h7.38v4.36Z"/><rect class="cls-2" width="1728" height="840"/></g></g></svg>