<svg xmlns="http://www.w3.org/2000/svg" viewBox="0 0 1728 840"><defs><style>.cls-1{fill:none;}</style></defs><title>B-Logo-8</title><g id="Layer_2" data-name="Layer 2"><g id="Layer_1-2" data-name="Layer 1"><path d="M1498.59,301.94c-11-49.33-33.84-72.95-83.15-86-23.37-52.73-60.1-58.75-99.32-58.75h-1.49c-20.35-41.15-73.92-49.55-106.73-42.27-36.57-35.29-66.27-37.18-110.12-27.36-25.65-19.13-50.51-26.58-75.92-22.78-22.67,3.4-42.14,14.93-61,26.09-24.79,14.68-46.41,27.49-69.89,18.49,8.34-17,17.49-44,5.47-64.66a37.13,37.13,0,0,0-30.64-18.42,5.4,5.4,0,0,0-1.45-.1l-.35,0-.38,0a5,5,0,0,0-1.39.1,37.1,37.1,0,0,0-30.67,18.4c-12,20.71-2.88,47.68,5.45,64.68-23.49,9-45.12-3.81-69.91-18.49-18.83-11.16-38.31-22.69-61-26.09-25.41-3.8-50.27,3.65-75.92,22.78C586.39,77.78,556.7,79.67,520.11,115c-32.8-7.28-86.36,1.13-106.7,42.26-39.75-.15-77.14,5.3-100.81,58.75-49.3,13-72.13,36.65-83.18,86-48,33.21-59.53,70.89-36.21,118.27-7.26,22.74-13.29,42.53-9.42,61.87,4.08,20.43,18.92,39.36,48,61.19,6.22,26.43,13.48,42.17,24.86,54.05,12.12,12.64,29.14,21,56.66,27.88,2.16,3.36,4.16,6.62,6.11,9.79,17.65,28.74,30.48,49.62,98.25,51.1,13.52,23.37,34.39,33.91,49.8,38.65,18.18,5.59,38.47,5.85,55.07.81,35,36.32,67.09,34.62,111,27,24.52,19.22,49,26.5,74.83,22.25,22.87-3.77,42.92-15.68,62.31-27.2,24.76-14.71,46.38-27.56,67.4-19-9,17-19.09,44.27-7,65.75a37.94,37.94,0,0,0,32.55,19.38h.6a38,38,0,0,0,32.57-19.39c12-21.48,1.94-48.71-7.06-65.74,21-8.6,42.65,4.24,67.41,19,19.39,11.52,39.44,23.43,62.3,27.2,25.81,4.25,50.32-3,74.83-22.25,44,7.6,76,9.3,111.05-27,16.6,5,36.9,4.78,55.07-.8,15.42-4.74,36.29-15.28,49.8-38.66,67.77-1.48,80.6-22.37,98.27-51.12,1.94-3.16,3.94-6.41,6.09-9.77,27.53-6.85,44.55-15.24,56.66-27.87,11.38-11.88,18.64-27.62,24.84-54.06,29.13-21.82,44-40.74,48.06-61.18,3.87-19.35-2.16-39.14-9.42-61.88C1558.12,372.83,1546.6,335.16,1498.59,301.94Zm11.24,120.4c5.51,19.8,5.6,38.18.28,54.66-5.6,17.34-17.4,33.17-35.08,47a5.51,5.51,0,0,0-1.73,2.37c-15.82,42.37-38.58,65-73.77,73.2a5.4,5.4,0,0,0-3.34,2.37c-30,47.43-68.42,55.58-95.36,54.06a5.4,5.4,0,0,0-4.39,1.86c-36.13,41.55-68.48,41.66-98.52,38.2a5.41,5.41,0,0,0-4,1.18c-33.25,27.07-46.9,32.52-104.74,23.84a5.43,5.43,0,0,0-3.91.93c-53.12,37.29-83.54,17.37-115.75-3.72-19.17-12.55-38.77-25.38-62.81-25.38-12.8,0-26.87,3.64-42.81,12.9-45.86-26.67-76.24-6.77-105.63,12.48-32.2,21.09-62.62,41-115.72,3.72a5.43,5.43,0,0,0-3.91-.93c-57.89,8.69-71.53,3.24-104.74-23.84a5.4,5.4,0,0,0-4-1.18c-30,3.46-62.4,3.36-98.52-38.2a5.43,5.43,0,0,0-4.39-1.86C400,657.55,361.57,649.4,331.55,602a5.4,5.4,0,0,0-3.34-2.37c-35.2-8.25-58-30.83-73.77-73.2a5.43,5.43,0,0,0-1.73-2.36c-17.66-13.87-29.45-29.69-35.05-47-5.32-16.48-5.23-34.87.25-54.69a5.34,5.34,0,0,0-.54-4.17c-15.85-27.19.29-72.21,33.87-94.45a5.43,5.43,0,0,0,2.31-3.41c5.94-28.48,33.35-65,72.46-76.47a5.44,5.44,0,0,0,2.5-1.57c2.88-3.21,5.66-6.77,8.6-10.55,15.13-19.37,34-43.49,87.46-46a5.38,5.38,0,0,0,3.78-1.79A133.53,133.53,0,0,1,475.29,151c13.54-5.59,33.65-11,52.52-4.86a5.42,5.42,0,0,0,6.11-2.07c18.52-26.64,81.49-32.92,100.69-23.34a5.39,5.39,0,0,0,5.59-.46c55.33-40,85.53-19.57,117.51,2.1,18.91,12.81,38.22,25.9,62.35,25.9,13,0,27.35-3.79,43.8-13.45,47,27.61,77.07,7.25,106.15-12.45,32-21.67,62.19-42.14,117.5-2.1a5.41,5.41,0,0,0,5.6.46c19.19-9.61,82.18-3.34,100.71,23.34a5.41,5.41,0,0,0,6.12,2.06c18.86-6.11,39-.73,52.51,4.86a133.61,133.61,0,0,1,46.94,32.92,5.38,5.38,0,0,0,3.78,1.79c53.53,2.53,72.35,26.67,87.48,46.07,2.94,3.76,5.71,7.32,8.58,10.52a5.46,5.46,0,0,0,2.5,1.58c39.11,11.51,66.52,48,72.46,76.46a5.4,5.4,0,0,0,2.31,3.41c33.58,22.25,49.72,67.27,33.87,94.45A5.41,5.41,0,0,0,1509.83,422.34ZM863.51,91.53c-5.66-6.4-6.56-16.36-5.4-23.69,1.1-7,3.8-10.57,4.81-11a5.17,5.17,0,0,0,1.18,0c1,.41,3.7,4,4.81,10.9C870.09,75.11,869.21,85.1,863.51,91.53ZM864,748.47c5.71,6.44,6.59,16.45,5.4,23.82-1.11,6.91-3.79,10.45-4.8,10.86a4.74,4.74,0,0,0-1.19,0c-1-.4-3.68-3.91-4.8-10.81C857.41,765,858.28,754.92,864,748.47Z"/><path d="M924.92,471.54h0l64.33-24.37c-1.62-94.9-86.32-66.48-86.32-66.48-75.57,30-40.21,180.69,79.61,125.45V467C964.33,479.87,933,486.05,924.92,471.54Zm18-46.08L911.82,437C904.84,416.08,935.4,405.89,942.9,425.46Z"/><path d="M1250.74,471.54h0l64.33-24.37c-1.62-94.9-86.31-66.48-86.31-66.48-75.58,30-40.21,180.69,79.61,125.45V467C1290.15,479.87,1258.79,486.05,1250.74,471.54Zm18-46.08L1237.63,437C1230.65,416.08,1261.21,405.89,1268.71,425.46Z"/><path d="M772.74,431.72v84.62H728.22v-76c.55-21.08-26.27-24.3-29.49-6.62v82.55H654.24v-134h44.49v6.63c31.11-23.78,75.6-6.63,74,42.81Z"/><path d="M528,466.87V382.25h44.52v76c-.55,21.08,26.27,24.3,29.48,6.63V382.28h44.5v134H602v-6.62c-31.11,23.77-75.6,6.62-74-42.82Z"/><path d="M458.09,376.7c-36.58,0-66.23,31.68-66.23,70.75s29.65,70.76,66.23,70.76,66.23-31.68,66.23-70.76S494.67,376.7,458.09,376.7Zm0,96.92C447,473.62,438,461.91,438,447.45s9-26.16,20.09-26.16,20.09,11.71,20.09,26.16S469.19,473.62,458.09,473.62Z"/><path d="M1067.05,378.35a49.69,49.69,0,0,0-28.85,10.56v-6.63H993.71v134h44.49V435c0-7.71,5.52-12,12.3-12.67s16.55,3.2,16.55,3.2Z"/><circle cx="1343.68" cy="346.64" r="26.9"/><rect x="1321.44" y="382.28" width="44.49" height="134.03"/><polygon points="1457.6 382.28 1434.19 382.28 1434.19 346.64 1389.69 346.64 1389.69 382.28 1372.29 382.28 1372.29 429.76 1389.69 429.76 1389.69 516.31 1434.19 516.31 1434.19 429.76 1457.6 429.76 1457.6 382.28"/><polygon points="861.05 382.28 837.63 382.28 837.63 346.64 793.14 346.64 793.14 382.28 775.74 382.28 775.74 429.76 793.14 429.76 793.14 516.31 837.63 516.31 837.63 429.76 861.05 429.76 861.05 382.28"/><polygon points="1186.57 369.76 1186.57 322.24 1122.63 322.24 1120.98 322.24 1073.31 322.24 1073.31 517.41 1122.63 517.41 1122.63 437 1186.57 437 1186.57 389.47 1122.63 389.47 1122.63 369.76 1186.57 369.76"/><path d="M388.7,452c-5.92,11.41-15.83,19.24-30,19.22-25.4,0-37.13-25.16-36.71-51-.42-25.81,11.31-51,36.71-51,14.18,0,24.09,7.82,30,19.23V325.71a105.16,105.16,0,0,0-30-4.62c-63.87,1.06-89.92,49.34-88.21,97.62-1.71,48.28,24.34,96.57,88.21,97.62a105.17,105.17,0,0,0,30-4.61Z"/><circle cx="557.56" cy="346.64" r="26.9"/><circle cx="616.83" cy="346.64" r="26.9"/><rect class="cls-1" width="1728" height="840"/></g></g></svg>