<svg xmlns="http://www.w3.org/2000/svg" viewBox="0 0 1728 840"><defs><style>.cls-1{fill:none;}.cls-2{fill:#fff;}</style></defs><title>Asset 20</title><g id="Layer_2" data-name="Layer 2"><g id="Layer_1-2" data-name="Layer 1"><rect class="cls-1" width="1728" height="840"/><polygon class="cls-2" points="1339.15 442.6 1304.47 310.61 1246.39 310.61 1210.86 441.53 1180.65 310.61 1120.9 310.61 1180.83 552.33 1237.34 552.33 1274.28 414.21 1310.11 552.33 1367.01 552.33 1426.61 310.61 1370.16 310.61 1339.15 442.6"/><path class="cls-2" d="M1273.77,126C1112.35,126,981,257.3,981,418.71s131.31,292.74,292.73,292.74S1566.5,580.13,1566.5,418.71,1435.18,126,1273.77,126Zm0,514.59c-122.34,0-221.86-99.52-221.86-221.86s99.52-221.85,221.86-221.85,221.85,99.52,221.85,221.85S1396.1,640.57,1273.77,640.57Z"/><path class="cls-2" d="M454.17,623.57c-113.1,0-204.8-91.69-204.8-204.8S341.07,214,454.17,214a205.56,205.56,0,0,1,28.9,2v-88.5q-14.26-1.39-28.9-1.42c-161.64,0-292.67,131-292.67,292.67s131,292.68,292.67,292.68q14.63,0,28.9-1.43V621.53A205.56,205.56,0,0,1,454.17,623.57Z"/><path class="cls-2" d="M895.62,126.1C734,126.1,603,257.12,603,418.74V711.45h87.88V462.56H865.9v-88H695.63C715.84,282.71,797.7,214,895.62,214a205.46,205.46,0,0,1,28.9,2v-88.5Q910.27,126.13,895.62,126.1Z"/></g></g></svg>