<svg xmlns="http://www.w3.org/2000/svg" viewBox="0 0 1728 840"><defs><style>.cls-1{fill:none;}</style></defs><title>B-Logo-3</title><g id="Layer_2" data-name="Layer 2"><g id="Layer_1-2" data-name="Layer 1"><path d="M1600.92,495.74l-1-3.76-.24-.87-.35-.83-.87-2.1-.31-.72-.38-.69-1.76-3.18-.16-.31-.19-.29-1.84-3-.23-.37-.26-.37-3.86-5.45-.57-.81-.68-.72-.37-.41-.32-.45-.86-1.27-1.12-1-1.69-1.6-1.35-1.51-.11-.11-.1-.11-2.84-3-.47-.49-.5-.45-2.21-1.94-.09-.09-.1-.08-1.72-1.46-.43-.36-.45-.33-.28-.21-1.28-1.8-1.29-1.59-.35-.37-.29-.42-2.06-2.41-1.67-1.59-1.34-1.49-.22-.23-2.84-3-1-1-2.21-1.95-.2-.17-1.72-1.46-.91-.72-1.51-1.09-4.83-3.59-1-.69-1.87-1.16-1.83-1.26-1.27-.78c-4.14-2.27-8.29-4.22-12.3-6.1a136.84,136.84,0,0,1-14.18-7.31,65.66,65.66,0,0,1-9.33-7.5l-.79-1.07-1-1.4-1-1.5-.66-1-1.46-2.91.39-.14,2.63-.92.27-.1.27-.1,5.09-2,3.76-1.14,1.1-.33,1-.5,4.52-2.19,1.65-.78.48-.22.46-.25,2.8-1.57.91-.41.23-.1.23-.1,5-2.41.4-.18.38-.22,7-3.93.23-.12.22-.14,1.81-1.1,3.51-2,.59-.34.56-.4,5.05-3.6.75-.54.68-.63,3.79-3.52,1.52-1.4,1-1.74.68-.76.25-.28.23-.28,1.47-1.83.19-.23.18-.25,1.39-1.88.21-.28.19-.29,1.26-1.88.25-.39.23-.4,1.12-1.93.14-.24.13-.25,1-2,.17-.33.15-.33.9-1.94.14-.29.12-.29.82-2,.1-.24.09-.24.74-2,.11-.29.09-.31.63-2,.13-.4.1-.41.52-2,0-.16,0-.16.46-2,.09-.36.06-.37.36-2,0-.17,0-.18.3-2,0-.19,0-.19.25-2,0-.29,0-.3.16-2,.05-.6V318.91l-.06-.66-.16-1.77v-.14l0-.13-.19-1.72,0-.13v-.12l-.22-1.69,0-.15,0-.14-.25-1.64,0-.28-.05-.27-.29-1.53-.26-1.45,0-.15,0-.15-.3-1.47,0-.21-.05-.21-.33-1.4-.08-.32-.09-.32-.13-.48-.72-2.63-.1-.41-.14-.4-.84-2.53-.11-.34-.13-.32-1-2.46-.12-.3-.13-.3-1-2.35-.16-.34-.17-.34-1.14-2.26-.15-.29-.15-.28-1.23-2.18-.14-.24-.15-.25-1.31-2.12-.19-.32-.21-.31-1.4-2-.19-.27-.2-.27-1.47-1.94-.21-.27-.22-.26-1.55-1.86-.15-.17-.15-.17-1.61-1.81-.2-.21-.2-.21-1.66-1.72-.25-.25-.25-.24-1.72-1.61-.13-.12-.13-.11-1.77-1.59-.31-.27-.32-.26-1.86-1.47-.09-.08-.09-.07-1.49-1.14-1.31-1.91-.41-.55-1.47-1.94-.45-.56-1.55-1.85-.31-.36-1.61-1.8-.41-.44-1.66-1.72-.52-.51-1.72-1.61-.27-.25-1.77-1.58-.66-.55-1.86-1.48-.18-.13-1.88-1.45-.51-.38-1.94-1.36-.43-.29-2-1.28-.33-.21-2-1.23-.33-.2-2-1.17-.48-.27-2-1.09-.27-.14-2.1-1.07-.36-.17-2.08-1-.28-.13-2.13-.95-.37-.16-2.1-.88-.38-.15-2.13-.82-.15,0-2.13-.8-.26-.09-2.11-.74-1.75-.49-1.6-.35-1.62-.48-.25-.07-2.08-.57-2-.56-.55-.15-1.94-.46-2-.47-.24-.06-2-.44-.32-.06-1.94-.38-1.86-.38-.55-.09-1.85-.3-1.73-.29-.15,0-1.74-.27-.69-.09-1.57-.17-1.47-.2h-.12l-1.52-.2-.27,0-1.53-.17-1.58-.08h-.65l-.54-.06-1.54-.08H1442l-2.09-.13-.69,0-9.67-.17h-6.43l-5.41-.23h-18l-72.77-.63h-2.26l-1.63.09-2.24.24-4.38,1.18-.93.41-4.21,2.79-.46.44-1.87,2.84-.65-1.21-1.91-2.73-.63-.71-2.26-2-1.47-1.08-1.82-1.14-1.66-.87-3.88-1.37-2.14-.42-2.78-.27h-3.58l-3,.31-.86.19-1,.23-3.44,1-2.73.71-6.1,1.24-4.57.59-.18,0-2.68.38h-99l-.72-.53-1.82-1.13-1.66-.86-3.88-1.37-2.13-.42-2.8-.27H1146l-3,.32-.87.18-.94.24-3.44,1-2.73.71-6.1,1.25-4.57.6-.18,0-1.83.26h-23.82l-2,.13-.15,0-63.46.09,0,0-70.74.09-2.67-.38-.18,0-4.57-.59-6.11-1.23-2.73-.71-3.44-1-.94-.23-.87-.18-3-.32h-3.58l-2.79.28-2.13.42-3.87,1.37-1.66.87-1.82,1.14-1.48,1.08-2.24,2.05-.63.71-1.91,2.73-1.42,2.64-.79,1.72-1,2.63-.76,2.88L903.8,289a25.66,25.66,0,0,0,18.58,28.74,25.78,25.78,0,0,0,5.25,9.92,26.66,26.66,0,0,0,3.25,3.13l-.07,19.54,0-.05,0-.05L929.3,348l-1.39-2.2-1.48-2.3L925,341.28l-1.38-2.17-1.39-2.21,0,0,0-.05-1.37-2.14-1.33-2.12,0-.06,0-.07-1.34-2.08-1.31-2.08-1.29-2.07-1.3-2.08-1.29-2.05-1.23-2-1.26-2-1.16-1.85-1.13-1.82,0-.08-.05-.08-1.11-1.74-1-1.67,0,0,0-.05-1.08-1.71-1-1.57-.94-1.52-1-1.56,0,0,0,0-.89-1.42-.83-1.33-.06-.1-.07-.1-.68-1.05-.6-1,0-.08-.05-.08-.71-1.16,0-.05,0,0-.66-1.05-.58-.95,0-.06,0-.07-.31-.48v-.18L894,291.63l-.82-1.32-1.08-1.94-.67-1.87,2.3-1.11.47-.23.44-.25,1.61-.92,1.47-.85,1.23-1.16,1.34-1.26,1.79-1.68,1.12-2.18.77-1.47.88-1.7.4-1.88.21-1,.18-.83.08-.84.19-1.92.14-1.46-.16-1.46-.24-2.19-.08-.79-.18-.77-.42-1.9-.36-1.65-.74-1.51-.42-.87-1.58-3.24-2.91-2.12-1.06-.76-.73-.54-.8-.43-1.11-.61-1.69-.92-1.87-.45-1.77-.42-1.64-.4h-.55l-.06-.59-.26-1.57-.42-1.89-1.1-3.16-.42-.87-4.5-5.36-1.05-.77-1.54-1-1.1-.6-3.57-1.38-1.76-.42-3.34-.39H765.37l-2.13.16-2.64.39-1.2.24-1.77.42-2.21.72-1.13.47-4.61,3.1-.45.45-.61.84-1.44-1.32-1.63-.92-1.56-.76-1.71-.71-5.51-1.1H736l-61.76.24H673l-2.55.22-2.63.48-3.53,1.12-1.19.55-1.4,1-3.08-1.54-2-.71-2.9-.69-3.24-.42-1.86-.12h-5.33l-1.83-.16-1.23-.05H638l-78.47-.5h-1.88l-2.2.17-1.87.29-2.66.68-.41-.22-.34-.18-2-1-.27-.13-2.05-1-.52-.23-2.16-.92-.39-.16-2.21-.87-.43-.16-2.29-.82-.28-.1-2.37-.79-.68-.2-2.44-.69-.39-.1-2.63-.66-.4-.09-2.63-.58-.41-.08-2.63-.5-.55-.1-2.63-.39-.4-.06-2.82-.34-.56-.06-2.9-.23-1.17,0H488.62l-1.32.06-1.71.16h-.17l-1.77.19-.14,0-1.84.21-.34,0-1.79.25-1.81.22-.3,0-2,.29-.34.05-2,.34-.18,0-2,.36-2.18.41-.17,0-2.11.42-.46.1-2.14.5-.12,0-2.16.53-.16,0-2.16.55-.42.11-2.19.64-.2.06-2.16.65-.25.08-2.19.72-.29.1-2.19.76-.14.05-2.19.79-.48.18-2.16.87-.33.14-2.13.92-.28.12-2.13,1-.32.15-2.11,1-.45.23-2.08,1.1-.38.21-2,1.16-.24.14L430,235.9l-.44-.24-.87-.29-4.55-.74h-1.24l-2.07.16-1.27.18-2.55.62-1,.33-.9.16-.37.13-.38.14-.47.18-.45.19-.55.23-.13.06-.66.29-.09,0-.76.34-.38.18-.68.33-.78.35-.59.29-.9.46-1,.5-.24.12-1.1.58-.32.17-1.18.65-1.33.75-.27.16-1.29.76-.15.09-1.34.82-1.45.88-1.26.87-1.44,1.1-1.1.73-.32.23-1.53,1.08-.17.12L390.88,250l-.19.14-1.61,1.21-.25.2-1.64,1.29-.11.09-1.63,1.31-.33.28L383.46,256l-.2.18-.15.13-.39-.59-3.32-3.54-.76-.58-5.11-2.47-.92-.24-5.29-.35-1.32.16v.05l-1.87.29a77.68,77.68,0,0,1-40.24-11.23h0l-.94-.57-1-.61-.63-.37-.44-.24-.66-.46-1.24-.77-1.24-.68-.12-.07-1.32-.71-.5-.26-1.17-.58-1.31-.69-.25-.14-1.51-.76-.62-.3-1.58-.71-1.71-.76-1.77-.77-.28-.13-1.79-.73-.41-.16-1.82-.69-1.82-.69-.35-.13-1.95-.68-2-.71-.32-.11-2.05-.65-.26-.08-2.11-.64-.4-.11-2.16-.58-2.23-.59-.39-.1-2.24-.52-.1,0-2.32-.53-.64-.13-2.34-.42-2.4-.42-.38-.07-2.45-.36-.3-.05-2.45-.31-.4,0-2.64-.26-.28,0-2.63-.21-.29,0L261,218l-.86,0h-7.9l-.72,0-2.63.13h-.29l-2.63.19-.48,0-2.79.29-.38,0-2.82.37-1.05.18-2.54.53-2.4.36-.8.14-2.9.61-.57.13-2.92.74-.48.13-3,.87-.25.07-3,.93-.4.13-3,1-.46.17-3,1.13-.33.13-3,1.24-.41.17L206.14,229l-.4.19-3.06,1.47-.44.22-3.05,1.61-.47.26-3.21,1.84-.22.13-3.08,1.84-.33.21-3.11,2-.4.27-3.08,2.1-.36.25-3,2.21-2.56,1.82-.6.45-.63.5.15.2-.27.11-.15-.19-.34.26-.24.21h0l-.82.7-.31.29-.42.38-.31.29-.58.55-.24.23-.47.47-.54.51-.38.36-.82.82-.89.9-.15.14-.92.95-.11.12-1,1-.12.12-1,1.11-.19.2-1.1,1.24-1.12,1.25-.17.18-1.18,1.37-.07.09-1.22,1.42-1.24,1.45-.4.48-1.21,1.54L159,266.71l-.33.43-1.32,1.76L156,270.67l-.23.31-1.34,1.9-1.36,1.89-.22.32-1.37,2-.14.21-1.37,2.1-1.42,2.2-.52.88-1.21,2.2-1.25,2.12-.19.33-1.32,2.37-1.38,2.52-.31.58-1.29,2.64-1.29,2.63-.1.21-1.23,2.63,0,.11-1.21,2.63-.18.39-1.18,2.79-.13.3-1.13,2.85-.11.29-1,2.74-1,2.61-.35,1-1,3.05-.07.25-.92,3.08-.09.31-.87,3.16-.11.4-.79,3.24-.05.24-.74,3.27-.15.73-.58,3.37-.58,3.41-.05.35-.5,3.45-.06.47-.4,3.53,0,.23-.34,3.58,0,.25-.29,3.74,0,1.11v21.49l.12,1.84.18,1.43,0,.19.21,1.47.05.33.26,1.58,0,.1.29,1.66,0,.1.32,1.74v.09l.34,1.82.11.5.42,1.86.46,2,.08.31.5,2,0,.12.55,2.1,0,.16.58,2.11.11.38.66,2.16.05.16.71,2.24.11.33.79,2.29.08.23.84,2.32.07.16.89,2.37.13.34,1,2.39.06.15,1,2.45.14.3,1.1,2.48L138,426l.15.33L139.4,429l.15.31,1.34,2.63.16.3,1.42,2.63.16.29,1.5,2.64.16.27c.5.83,1,1.71,1.63,2.6l0,0a157.89,157.89,0,0,0,32.52,38.09,162.42,162.42,0,0,0,19.31,19.14c14.2,11.88,29.92,19.21,43.41,24.81l.12,0,.12.05,2.87,1.13.17.07.16.06,2.95,1.08.2.07.2.07,3,1,.11,0,.1,0,3.08,1,.21.06.21.06,3.16.9.17,0,.18,0,3.18.82.16,0,.16,0,3.29.76.17,0,.18,0,3.31.68.15,0,.15,0,3.42.63.23,0,.23,0,3.47.52.12,0,.12,0,3.53.47.33,0,.33,0,3.61.31h.11l3.63.29.57,0h19.95l.75-.09,1.61-.17,1.68-.14.35,0,.35,0,1.93-.26h.08l.08,0,1.95-.29.15,0,.16,0,2-.34,2.16-.38.14,0,.14,0,2.13-.42.13,0,.13,0,2.19-.47.14,0,.14,0,2.21-.52.2,0,.19-.05,2.26-.61.13,0,.13,0,2.29-.66.15,0,.15,0,2.37-.73.16,0,.16-.06,2.34-.79.09,0,.09,0,2.39-.84.22-.07.21-.08,2.44-.95.19-.07.18-.08,2.45-1,.1,0,.09,0,2.48-1.08.23-.1.23-.11,2.47-1.18.08,0,.09,0,2.5-1.24.27-.14.26-.14,2.5-1.37,2.66-1.46.14-.08.14-.08,2.63-1.53.19-.1.18-.11,2.63-1.64.17-.1.17-.12,2.63-1.73.3-.2.29-.21,2.48-1.82.16-.12.17-.13,2.5-1.94.17-.14.17-.14,2.48-2.06.13-.11.13-.11,2.45-2.13.22-.2.21-.2L385,499.4l.11-.11.12-.11,2.42-2.4.3-.29.28-.31,2.36-2.64,2.4-2.69,2.37-2.69.25-.28.23-.3,2.3-2.9,0,0A156.22,156.22,0,0,0,450,518.8a49.18,49.18,0,0,0,5.86,1.84c.78.21,1.51.41,2.09.59l.15,0,.16.05,3.21.94.12,0,.12,0,3.24.9.26.07.26.06,3.35.79.12,0,.13,0,3.4.74.25,0,.26,0,3.74.66h0a158.9,158.9,0,0,0,26,2.41c2.74,0,5.4-.11,8-.31a23.85,23.85,0,0,0,4,1.66c.34.11.6.21.81.3l.2.17.78.66.51.46.53.5.34.35.54.62.48.57.14.19a19.41,19.41,0,0,0,2.28,5.72,18.51,18.51,0,0,0,1.78,2.41l0,.08.42,1.47.36,1.46.29,1.45.26,1.69.23,1.88.19,2.16,0,.3.36,3.35.35,5.43.25,3.67.17,6.76.13,1.57,0,.19-.08,1.39v95.94c0,.75,0,1.5,0,2.07,0,.27,0,.54,0,.8h0v30.81l-.19,2.94,0,.93v.86l-.6,5.24-.42,3-.43,2.11-.19.63-.35,1.35,0,.09-.73,1.82L521.48,726l-.65.74-1.06,1.17-1,1L517,730.38l-.77.58a33.47,33.47,0,0,1-3.82,2.68l-.42.22a30,30,0,0,0-4.35,2.69A19.28,19.28,0,0,0,500.51,747a20.93,20.93,0,0,0-.63,4.7,25.4,25.4,0,0,0,.82,7.45,19.38,19.38,0,0,0,6.67,10.19A20.14,20.14,0,0,0,518,773.41a22.59,22.59,0,0,0,.67,3.69,19.47,19.47,0,0,0,6.67,10.2,21.41,21.41,0,0,0,13.48,4.22l1.36,0h3.52l2.64,0h3.84l4.05,0,9.61,0,5.33,0,5.33,0,11,.05,5.32,0,5.33,0,9.59,0,3.92,0,3.91,0H619l4,0c1.76,0,3.53,0,5.3,0h.55a16.74,16.74,0,0,0,5.31-.82,18.93,18.93,0,0,0,4.26-2.06l1.55-.79,1.5-1.43a23,23,0,0,0,5.23-7.25,28,28,0,0,0,1-2.65l.08-.21a21.72,21.72,0,0,0,1.26-5.11,18.93,18.93,0,0,0-.33-5.91l0-.14a19.51,19.51,0,0,0-4.36-9.63,20.09,20.09,0,0,0-9.2-5.81,16.79,16.79,0,0,0-2.71-.67l-.27-.26-.31-.31-.34-.29-.42-.36-.31-.37,0-.14,0-.14a19.49,19.49,0,0,0-4.36-9.61,17.2,17.2,0,0,0-1.88-1.85l-.45-2.63-.12-1.19-.26-4.53,0-.34,0-.33-.08-.77-.18-6.67V677.34l0-.46.07-.56,0-.55.13-3.16,0-.3V657.22l2-.21,6.3-.61,1-.09,10.54-.14,4.5.42,7.09,1.06,5.1,1.07,4,1,.51.13.52.09.81.14,3.6,1,4.33,1.31,5.31,2,.24.09.24.08,2.6.89,11.36,4.5,5.26,2.54v43l-.12,1-.26,1.7-.3,1.44-.36,1.47-.42,1.46-.4,1.25-.46,1.24-.43,1-.42.87-.56,1.07-.41.73-.4.61-.72,1-.43.59-.48.56-.53.62-.34.35a11.79,11.79,0,0,1-1.88,1.54l-.66.25a29.69,29.69,0,0,0-5.22,2.48,19.49,19.49,0,0,0-9.34,16.92v2.63l.11,1.75.16,1.29L677,765l.31.53,3.17,3.68.76.64,3.77,2.25,1.11.44,3.43.92,1.53.21,1.69.12v1.38l.1.87.16,1.29.37,3L695,783l.32.53,1.26,2.11,1.9,1.57.77.63,1.71,1.42,2.06.83,1.1.45,1.66.67,1.77.24,1.53.21,1,.14h1l130,0h.18l10.44-.13h4l.92-.12.31,0,1.49.08.4,0h6.29l3.8.15h17.9l8.61.13h6.07a79.43,79.43,0,0,0,8.37.55,41.11,41.11,0,0,0,6.07-.43,21.6,21.6,0,0,0,9.19-3.35h0l1.32.81,1.47.51,1.83.64,2.29.8h6.69l12.94.06,20.07.09,21.72.09,8.85,0,8.85,0c1.57,0,3.15,0,4.74.06,2,0,3.94.08,5.9.08,1.08,0,2.16,0,3.23,0a24,24,0,0,0,11.54-2.72c.43-.23.85-.49,1.26-.75l1,.59,1.92,1.15,2.18.52,1.79.42,1.62.38h3.37l4.64.15,3.2.17.39,0H1117l.39,0,3.2-.17,4.64-.15h3.37l1.62-.38,1.79-.42,2.18-.52,1.92-1.15,1.06-.63,1.27-.76,1.08-1,.69-.64,1.61-1.49,1.09-1.9.51-.87,1.3-2.26.42-2.57.37-2.24.19-1.16v-8.38l-.82-2.33-.32-.89-.31-.89-.43-.85-.71-1.39L1142,756.5l-1.88-1.74-1.81-1.69-.11-.09-.1-.09-3.07-2.74-.74-.9-.47-.72,0-.09-.6-1.2-.49-.65v0l-.23-.74-.16-.54-.15-.69v-.1l-.24-1.1-.22-1.14-.23-1.26-.16-1-.15-1.26,0-.2,0-.2-.18-1.25-.12-1.28v-.15l-.18-1.71-.16-1.48-.12-1.49-.13-1.75V729l-.1-1.13V695l-.29-8.64v-3.15l-.24-6.86-.2-11.13V653.72l-.76-33.75v-6l-.13-4.87V596l-.06-.64-.27-3.08-.19-2.87-.15-2.85-.12-2.54v-9.64l.1-1.76.16-1.94L1128,569l.25-1.75,0-.26,1.87.69,2,.82,2,.87,2.18,1,1,.44,2.25,1.07,3.74,1.9.45.23.46.19,1.33.56,1.42.71.93.59.66.52.71.55.77.46,2.35,1.42,1.19,1,.79.7.88.58,4.37,2.87.64.41.68.35.27.14,1,.83.21.18.22.16,3.79,2.92.74.57.8.46,1.91,1.11,1.81,1.18.46.29.47.26,1.88,1,1.81,1.09.51.31.53.27,5.19,2.59,1.61.82.49.25.51.22,2,.84.12,0,.12,0,2.64,1.05,1,.4,1.06.24,2.24.52a25.37,25.37,0,0,0,5.87.68,25.73,25.73,0,0,0,25.37-29.76l-7.77-49h30.35l10.44-.13h4l.91-.12.32,0,1.49.08.4,0h6.29l3.8.14h17.9l8.61.13h6.08a79.41,79.41,0,0,0,8.36.55,42.44,42.44,0,0,0,6.07-.42,22.31,22.31,0,0,0,8.15-2.71l.27.09,1.8.63,2.3.8h4.7l81.43.36h.48l6.47-.19v0h3.06l1.81-.48.93-.25,1.5-.39,1.37-.71,1.12-.57,1.86-1,1.51-1.44,1.2-1.14,1.06-1,.83-1.21.74-1.06,1.26-1.81.65-2.11.39-1.23.13-.41.1-.43.79-3.22.58-2.38-.23-2.43c-1.14-11.84-9-15.58-12.76-17.37l-.71-.34a22.21,22.21,0,0,1-4.34-2.81,22.34,22.34,0,0,0-1.39-4.59l1.34.84,1,.6,1,.44,3.25,1.37,1.05.44,1.1.27,3.47.85.78.19.8.1,1.91.25.91.11h4.06l1.41-.28,2.57-.52,1.92-.39,1.75-.89,2.89-1.48.27-.13.26-.15,2.18-1.23.66-.37.61-.43.64-.46,1.39,5.1.63,2.87.7,3.63.22,1,.24.9,1.11,2.91,1.67,3.31,1.56,2.46,1.38,1.77,3.08,2.95,1.58,1.13,1.91,1.16,1.68.86,3,1.13,1,.25.66.1.34,1.27.67,1.34,1.68,3.32.63,1.25.86,1.11,1.39,1.78,1.28,1.64,1.7,1.21,1.58,1.13.87.63,1,.48,1.69.86,1.36.7,1.48.39,1,.25,1.62.43,1.68,0,3.1.08.95,0,.94-.1,2-.21,1.35,0,1.28,0,1.26-.2,1.17-.19,1.32-.18,5.74-.44h1.74l.87-.12h.27l.71,0,.72,0,11.42-.34,9-.15h.54l1.42-.08,1.43,0h.45l.46,0h.37l1,.17,1.6-.06,1.43-.06,2.06,0h4.26l6.87,0,6.1,0h1.24l1.22-.22,2.61-.46,1.08-.19,1-.35,1.86-.63,2.06-.71,1.77-1.28,1.09-.8,1.71-1.23,1.27-1.68.61-.8,1.6-2.1.75-2.52.55-1.87.38-1.29.14-1.33.13-1.26,0-.24,0-.24.16-2.34.17-2.46ZM918,291.23l7.86-50.43,1-2.63,1.42-2.64.63-.71,1.47-1.08,1.66-.87,2.13-.42h3.58l.87.19,3.61,1,3.26.83,7,1.42,5.09.65,3.68.52L1033,237v0l47.55-.06-.14,1.19-.11,1.74v2.64l.26,2.71.35,1.85h0v.07c.74,3.87,3.5,11,13.65,15.21l.57.24c.68.28,1.57.65,2,.87l.24.22.35.37.53.61.48.57.46.63.69,1,.4.61.41.72.56,1.07.42.87.42,1.05.47,1.23.4,1.26.42,1.46.09.37-3-1.54-2.5-1.18-1-.47-2.4-1.1-2.37-1-2.34-.95-2.34-.86-2.32-.79-2.29-.71-2.27-.6-2.21-.58-2.21-.49-2.14-.45-1.37-.24h0l-.5,1.18-.5,1.29-.47,1.34-.45,1.45-.44,1.53-.43,1.61-.39,1.65-.34,1.79-.35,1.87-.28,2-.29,2-.22,2.16-.18,2.24-.13,2.34v10.37l.13,2.93.16,3,.21,3.13.29,3.24v12.69l.13,5.05v5.74l.76,33.91v11.32l.21,11.38.24,7v2.9l.29,8.87v33l.16,1.77.13,1.76.13,1.74.19,1.69.18,1.71.16,1.63.24,1.6.18,1.56.24,1.47.26,1.45.26,1.4.29,1.31.27,1.24.34,1.16.31,1,.35,1,.37.86.39.77.4.68.42.55.39.79,1.34,2.08,2,2.4,3.9,3.48.31.29a20.41,20.41,0,0,0-1.48,7.69v2.63l0,.41-21.35,0,0,0-62,.08-.12-.2-.37-2.24v-4.74l.32-.89.71-1.4,1.81-1.68,3.9-3.48,2-2.4,1.34-2.08.39-.79.42-.55.4-.68.39-.77.37-.86.35-1,.31-1,.34-1.16.27-1.24.29-1.31.26-1.4.26-1.45.24-1.47.18-1.56.24-1.6.16-1.63.18-1.71.19-1.69.13-1.74.13-1.76.16-1.77v-33l.29-8.87v-2.9l.24-7,.21-11.38V369l.76-33.91v-5.74l.13-5.05V311.62l.29-3.24.21-3.13.16-3,.13-2.93V289l-.13-2.34-.18-2.24-.22-2.16-.29-2-.28-2-.35-1.87-.34-1.79-.39-1.65-.43-1.61-.44-1.53-.45-1.45-.47-1.34-.5-1.29-.47-1.09-1.42.25-2.13.45-2.22.5-2.21.58L1001,267l-2.29.72-2.31.79-2.35.87-2.34.95-2.37,1-2.39,1.1-1,.48-2.5,1.19-3.92,2-1.73.74L975.3,278l-2.15,1.38-1.24,1-3.5,2.11-2.18,1.95-4.37,2.88-1.68.87L958,290.05,954.18,293l-2.21,1.3-2.1,1.37-2.16,1.19-2.08,1.26-5.26,2.64-1.68.87-2,.85-2.63,1.05-2.24.53A11.35,11.35,0,0,1,918,291.23ZM1102.48,428l-.28-8.64v-3.15l-.23-6.86-.21-11.14V386.66l-.76-33.75v-6l-.13-4.87V329l-.06-.64-.27-3.08-.2-2.86-.15-2.86-.11-2.54v-9.64l.1-1.76.16-1.94.17-1.74.25-1.75,0-.25,1.87.68,2,.83,1.19.5,0,1.3.12,1.58,0,.18-.08,1.39v142l-.13,1-.26,1.69-.29,1.44L1105,454l-.42,1.46-.4,1.26-.47,1.23-.42,1.05-.42.86-.33.63V428Zm-345-104.1.11-1.52.16-1.8.18-1.71.2-1.6.24-1.59.23-1.47.24-1.33.23-1.22.26-1.14.23-1,.27-1v-.06l0-.06.26-1,.22-.75.21-.67.24-.67,0,0,0-.06.19-.54.17-.45.21-.52.07-.17.07-.16.16-.34,0,0,1.71-3.06v-1.13l.94-2.31,1.12-2.31.45-.64.2-.29.18-.3.54-.86.43-.59c.11,1,.2,2,.2,2.72l0,1.07.13,1.77,0,.14.1,1.26v1.34l0,.9.13,2.11.13,2.15.11,1.84V363L768,367.3v20.08l-.29,9.37v4.48c-.54-2.59-1-5.14-1.51-7.69l0-.15,0-.15-.43-2.08-.35-1.84-1.93-10.47-.61-3.27-.18-1.48-.13-1-.27-1-.11-.43,0-.11,0-.56-.11-.55h0v-.73l-.29-1.42-.73-3.57-.62-3.5,0-.09,0-.1-.64-3.3-.49-3-.42-3.16-.39-3-.29-2.92v-.14l-.3-2.74-.16-2.54-.13-2.38ZM746.11,475.1c1.48-1.7,3.85-2.21,6-2.83A35.37,35.37,0,0,0,767,463.66l1.37-1.48,1.26-1.5,1.19-1.55,1.1-1.61,1.06-1.63a97.19,97.19,0,0,0,5.92-15.77l.47-1.71.4-1.71.39-1.63.32-1.64.26-1.58.26-1.55.22-1.5.18-1.45.16-1.37.13-1.29v-8.45l.26-3,.13-6v-10l.29-9.58V367.72l.14-4.47V306.41l-.14-2.29-.13-2.19-.13-2.11v-1.94L782,296l-.13-1.77c0-3-.57-6.08-.83-9.11a42.63,42.63,0,0,0-3.44-13.5c-1.12-2.53-1.92-5.34-3.55-7.56l-1-1.24L770.85,261,766,258.17l-4.39-2.31-1.5-1.08-.66-.63-.87-1.72-.19-1.23v-5.27l.27-1.58.73-1.45.45-.44L761,242l1.77-.42,2.63-.39H868.6l1.76.42,1.11.6,1,.77.42.87.42,1.89.24,2.19-.18,1.92-.21,1-.77,1.48-1.34,1.26-1.61.92-3.65,1.77-1.85,1.1-1.6,1.56-1.24,1.39-1.5,2-.4.84-.65,3.08.31,3.42.55,2.5,1.5,4.22,1.85,3.29,1,1.6v.16l.18.29.24.37.29.53.37.58.42.68.5.79.55.87.61,1,.66,1.06.71,1.15.73,1.24.82,1.27.87,1.39.89,1.42,1,1.53,1,1.58,1,1.63,1.08,1.71,1.08,1.74,1.16,1.82,1.16,1.86,1.18,1.9,1.24,1.95,1.24,2,1.29,2.06,1.29,2.05,1.31,2.11,1.35,2.13,1.36,2.13,1.37,2.19,1.43,2.21,1.39,2.21,1.4,2.21,1.42,2.24,1.45,2.26,1.42,2.24,1.45,2.26,1.42,2.27,1.47,2.24,1.42,2.23,1.45,2.24,1.42,2.21,1.42,2.22,1.43,2.18,1.39,2.16,1.37,2.16,1.4,2.08,1.34,2.1,1.34,2,1.32,2,1.31,1.95,1.29,1.92,1.24,1.89,1.21,1.85,1.21,1.79,1.16,1.71,1.11,1.66,1.1,1.6,1.08,1.53,1,1.5,1,1.4.93,1.31.92,1.27.84,1.18.82,1.11.73,1,.71.92c1,1.28,1.64,2.8,2.71,4.09a7.64,7.64,0,0,0,2.49,2.14,1.88,1.88,0,0,0,.83.23,2,2,0,0,0,1.47-1.15c1.28-2.27.8-5.45.93-8l.13-6.53v-.68l.18-54.08v-.66l-.26-3.76-.18-4.45v-2l-.39-4.19.86-.4,1.6-.82,5.19-2.61,1-.57,1.81-1.1,1.88-1,.92-.55,1.81-1.18,1.91-1.11,1.54-1,3.78-2.93.43-.34,1-.83.28-.15,1.3-.76.48-.32-.37,2.33-.4,2.63-.29,2.79-.23,2.9-.16,3V438.91l.24.55v.16l.15.26.22.4.23.47.32.56.34.63.4.66.42.79.44.81.5.84.53.93.53.94.58,1,.58,1,.6,1,.63,1,.64,1,.63,1,.66,1,.63,1,.63.95.66.9.63.89.6.84.61.77.58.73.58.64,1.95,2.87,1.23,2.18.56,1.53.23,1.23-.21,1.87-.71,1.43-1.16,1.58L983,474.63l-.92.51-1,.44-1.08.5-1.08.53-1.13.6-1.19.61-1.21.66-1.29.68-1.29.74-1.29.74-1.31.76-.55.32-3.84-.44a14.89,14.89,0,0,0-1.64-.1h-3a14.72,14.72,0,0,0-1.49.08l-4.62.48-.94.13-3.14.54-.7.14-4.17.93q-.52.12-1,.27L941,485a15.86,15.86,0,0,0-1.78.67l-1.65.75c-.31.14-.62.3-.92.46l-.55.18a15,15,0,0,0-2.07.85L931.87,489l-.32.17c-.34.18-.65.37-1,.56l-.47-.8-.69-1.13-.68-1.19-.68-1.26-.77-1.29-.76-1.32-.79-1.39-.82-1.42-.84-1.45-.84-1.48-.84-1.47-.87-1.5-.87-1.53-.87-1.52-.87-1.53L918,468l-.87-1.53L916.3,465l-.84-1.5-.84-1.45-.84-1.45-.79-1.42-.79-1.34-.77-1.35-.73-1.29-.71-1.21-.66-1.21-.63-1.1-.64-1.08-.58-1-.52-.92-.48-.84-.42-.76-.39-.72-.34-.55-.27-.5-.23-.37-.16-.29v-.18l-.53-1-1-1.79L902,439.81l-1.1-1.93-1.13-2-1.21-2.05-1.24-2.06-1.29-2.13-1.32-2.16-1.34-2.24L892,423l-1.42-2.29-1.45-2.35L887.69,416l-1.5-2.4-1.53-2.42-1.53-2.45-1.58-2.48L880,403.79l-1.58-2.63-1.63-2.64-1.6-2.63-1.66-2.63-1.66-2.63L870.18,388l-1.66-2.63-1.68-2.63-1.69-2.64-1.66-2.63-1.66-2.63-1.68-2.63-1.66-2.64-1.69-2.63-1.63-2.63-1.66-2.48-1.63-2.47-1.6-2.45-1.61-2.42-1.61-2.4-1.55-2.37L844,347.4l-1.53-2.29-1.5-2.27-1.47-2.21L838,338.47l-1.42-2.13-1.4-2-1.37-2.06-1.32-2-1.26-1.9L830,326.49l-1.21-1.79L827.61,323l-1.13-1.68-1.08-1.58-1-1.56-1-1.44-.95-1.4-.9-1.29-.79-1.19L820,311.7l-.71-1.06-.66-.94-.6-.87-.53-.79-.45-.66-.39-.61-.34-.47-.27-.4-.18-.26v-.16l-3-3.68L810.89,300l-1.34-.94h-.9l-.37.52-1,3.9-.37,3.47v74l.13.61v2.92l.34,6.64v16.21l.13,1.69.14,1.74.15,1.79.16,1.84.16,1.84.18,1.9.21,1.95.21,1.94.24,2,.21,2,.27,2,.29,2,.28,2,.32,2,.32,2,.34,2,.34,1.92.37,1.89.42,1.87.4,1.82.36,1.74.45,1.74.48,1.73.5,1.64.5,1.58.55,1.5.55,1.44.58,1.37.61,1.29s.58,1.1.63,1.18A26.06,26.06,0,0,0,832,472.68a15.73,15.73,0,0,1,3,1.25c3.39,2.11,2.73,5.7,2.48,9.05l-.29.9c-1.07,1.85-1.81,3.25-3.91,4.08-3.57,1.41-7.5,1.46-11.34,1.5l-3.5,0H755c-1-.07-1.9-.15-2.84-.25s-1.59-.21-2.38-.36a7.17,7.17,0,0,1-3.5-1.41c-1.65-1.45-1.86-3.9-1.85-6.09S744.66,476.77,746.11,475.1Zm93.58-66.74-.32-6.27V398l-.13-.6v-31.1l.62.94,1.65,2.51.06.09,1.52,2.26,1.49,2.42.11.17,1.66,2.59,1.63,2.59.06.09,1.66,2.59,1.63,2.58,1.65,2.64.06.09,1.69,2.63,1.65,2.59,1.63,2.59,1.66,2.63,1.66,2.63,1.6,2.55,1.56,2.54,0,.09,1.58,2.54,1.52,2.55.21.33,1.58,2.48,1.54,2.41,1.49,2.39,1.56,2.48,1.48,2.36L877,426l1.43,2.31,1.39,2.24,1.33,2.19,1.31,2.2.06.09,1.31,2.15,1.27,2.09,1.19,2,1.13,1.92,1.08,1.9,1.12,1.94,1.09,1.89.92,1.59.37.7.09.34.16.29.37.62,0,.07.5.87.16.26.23.42.4.73.06.1.48.84,0,.08.53.92.13.22.55.93.57,1,.52.91.58,1.08.23.41.67,1.14.7,1.22.75,1.31.1.19.7,1.19.71,1.26.14.25.84,1.45.79,1.35.79,1.41.15.26.81,1.38.81,1.43.06.09.83,1.45.85,1.49.87,1.52.87,1.53.05.09.87,1.5.8,1.41.85,1.47,0,.1.84,1.45.78,1.35.75,1.32.07.13.76,1.32.07.1.62,1.06.56,1,.19.35L917,495l.14.25.63,1.05.49.83.47.84h0a58.44,58.44,0,0,0-7.46,7.81l-.09,0-1.66-.87-1.85-1-2-.41-.59-.11-.27-.65-.58-1.11-.69-1.81-.79-1.72-1.42-2.64-1.91-2.72-.63-.71-2.25-2L895,488.89l-1.82-1.13-1.66-.87-3.88-1.37-2.13-.42-2.79-.27h-3.58l-3,.31-.87.18-1,.24-3.43,1-2.73.7-.5.11a19.13,19.13,0,0,0-7.16-7.66,25.14,25.14,0,0,0-5.28-2.41l-.41-.15a12.45,12.45,0,0,1-3.13-1.7c0-.24,0-.47-.11-.72a19.69,19.69,0,0,0-6.18-10.83l-.21-.76-.34-1.33-.31-1.44-.41-1.89v-.1l-.37-1.67-.31-1.57-.32-1.81-.32-1.82-.3-1.88-.3-1.86-.27-1.88-.28-1.92-.23-1.71-.19-1.78v-.19l-.23-1.89-.2-1.87-.2-1.87-.17-1.73-.15-1.77-.16-1.84-.15-1.73-.13-1.65-.09-1.17v-16ZM656.87,298.2l.49-.89.58-.91.56-.83.49-.64.52-.62.63-.66.78-.77.54-.52.5-.41.63-.49.63-.45.67-.45.64-.4.47-.28.64-.33.08-.05.08,0,.31-.17.27-.12h0l1.85-.49,1.9-.52,2.05-.33,2.13-.34,1.94-1,1.6-.79,1.66-.82.19-.16.26.14,1.08.55.93.48,1,.33,1.16.4,1.22.41,1.28.2.77.11.53,1.86.46,1.83.41,2.06.49,2.56.32,1.33,1.14,3.94.74,3.07.41,1.39.47,1.36.41,1.75,5,23.25.89,4.74,1.48,8.05.83,5.48,1.17,7.46L704.25,373l0,.25.68,4.44.16,1.3v.1l.29,2.27.05.36.12.78L706,386l0,.39.16,1.11,3.95,31.64v10.94l-.09.94-.14,1.46-.15,1.25-.22,1.4-.22,1.26-.29,1.35-.32,1.44-.33,1.24L708,441.8l-.39,1.2-.41,1.1-.55,1.29-.57,1.28-.59,1.2-.54,1-.62,1-.78,1.17-.72,1-.75,1-.86,1-.91,1-.89.86-1,.85-1.06.83-1.13.8-1.22.78-1.25.71-1.42.71-1.54.7-1.57.63-2,.67-1.67.69h0l-3.67,1.07-5.84,1.33-2,.26-3,.32h-3.39l-2.53-.19-1.18-.21-.35-.05-4.5-.66-1.51-.14-2.36-.09-5.42-.91-3.15-1-3.22-.61-.3,0-.05,0-1.64-.63,0-.14-.81-3.25-.23-4.33V437.05l.13-1.11.08-.79v-1.67l.22-3.74.17-1.56,0-.22v-.22l.48-6.06.15-1.27,0-.13v-.12l.6-6v-.1l.44-4.65.28-2.52,0-.21,0-.2.15-1.86.29-2.08.06-.45,0-.46.34-4.55.43-3.08.07-.5,0-.51.23-3.42.38-3.11.06-.53,0-.54.1-2.27.71-5.64.47-3.44.08-.6,0-.61.07-1.35.21-.91.25-1.09.08-1.12.16-2.18V366l.27-4.4,4.19-37.46.36-2.93,1.07-8.45.12-.9v-1.25l.53-3.15.48-2.24.14-.49.08-.25.07-.26.43-1.65.37-1.17.45-1.19.45-1.06ZM552,249.86l.4-2.9.42-1.92.68-1.08.5-.42,1.79-.66,1.87-.29h1.79l78.51.5h2.16l2.44.21h5.95l3.24.43,2,.71,1,.68,1,1.21.27.9.36,2.47-.44,1.92-.5,1.16-1,1.24-1,.84-1.6.79-2.79.45-2.64.71h-.81l-.45.13-.55.21-.63.24-.69.29-.76.34-.84.37-.87.47-.9.48-.95.55-1,.63-1,.69-1,.73-1,.79-1.08.9-1,1-1,1-1,1.11-1,1.18-1,1.26-.92,1.37L627,272l-.84,1.53-.82,1.63-.74,1.74-.68,1.81-.61,1.9-.52,2-.32,1.05-.66,3.11-.79,4.63V293L620,301.49l-.37,3-4.24,37.91-.29,4.77-.16,2.18-.5,2.16-.13,2.63-.48,3.5-.79,6.27-.13,2.84-.42,3.48-.26,3.79-.5,3.55-.37,5-.34,2.48-.19,2.26L610.5,390l-.44,4.77-.61,6-.18,1.55-.51,6.35-.21,1.92-.26,4.53v1.29l-.21,1.89v18.12l.32,6.11,1.16,4.6.18,1.27.29.94.66,2.11.81,1.71.56,1.11,3.21,6.08,1.87,2.68,1.63,1.9,2.63,2.42,2.63,2.06,1.87,1.13,2.51,1.24,1.05.73.89.29,1.74.63,2.63,1.11,3.51,1.34,2,.71,2.18.16,4.08,1.27,7.27,1.21,3.27.13,4.5.66,1.84.31,3.74.29h4.71l4-.42,2.82-.37,6.89-1.58,5.27-1.52,1.13-.56,2.32-.79,2.24-.89,2.08-.95,2-1,1.89-1.08,1.82-1.16,1.71-1.21,1.61-1.26,1.52-1.32,1.43-1.37,1.34-1.42,1.26-1.45,1.21-1.53,1.08-1.52,1-1.56,1-1.58.87-1.63.82-1.66.74-1.66.71-1.68.63-1.68.55-1.72.5-1.71.45-1.68.39-1.77.37-1.71.29-1.68.27-1.71.21-1.66.15-1.66.16-1.63V418.27l-4.08-32.67-.18-1.26-.45-3.79-.16-1-.29-2.26-.18-1.53-.71-4.66-2.11-15.64-1.18-7.55-.87-5.69-1.53-8.32-.92-4.92-5.06-23.54-.6-2.63-.74-2.11-.82-3.39L703.44,293l-.5-2.63-.5-2.5-.61-2.37-.63-2.24-.66-2.13-.74-2-.73-1.92-.79-1.82-.85-1.71-.84-1.61-.89-1.52-.9-1.42-.95-1.35-.92-1.26-.95-1.16-1-1.08-1-1-1-.92-.95-.84-1-.79-.94-.74-.95-.65-1-.61-.92-.53-.92-.5-.87-.44-.89-.37-.82-.35-.81-.28-.77-.27-.73-.21-.72-.18-.63-.19h-3.42l-1.92-.29-1.16-.39-1.08-.55-.61-.72-.78-2.13v-1l.15-1.93.53-2.13.61-1.08.65-.71,1.19-.55,2.63-.48h1.34l61.71-.23h.77l1.71.71,1.63.92.58.84.11,1.21.29,3.58v2.87l.18,2.19v2.63l-.16,1.24-.42.89-1,2-2.81,3.87-.82,1.32L735.06,269l-1.82,3.71-1.32,3.24-.87,2.13v.21l-.13.24-.18.34-.19.45-.23.5-.24.58-.26.66-.29.73-.29.85-.32.89-.31,1-.32,1-.32,1.19-.34,1.24-.31,1.34-.32,1.42-.29,1.5-.29,1.61-.26,1.71-.27,1.76-.23,1.9-.21,1.95-.19,2.05-.16,2.16v14.93l.16,2.84.19,2.92.34,3.08.32,3.13.42,3.22.44,3.34.56,3.45.68,3.53.66,3.66.76,3.74v.57l.24,1.29.13,1.27.42,1.55.24,1.92.68,3.69L733.29,374l.37,2,.45,2.18c2.58,14.13,6.4,28.31,8,42.57v2.11l.13.68v1.56l.13.89v16.85l-.13,1.56-.16,1.57-.18,1.61-.24,1.61-.26,1.63-.32,1.68-.37,1.64-.39,1.68-.45,1.66-.53,1.66-.55,1.66-.63,1.68-.32.79a19.84,19.84,0,0,0-2.56,2.42,21,21,0,0,0-4.71,9.95l-.86,1-1.32,1.42-1.37,1.4-1.47,1.37L724,482.12l-1.64,1.26-1.73,1.24-1.82,1.13-2,1.11-.21.11-1.87-.66-2.13-.42-2.79-.27h-3.58l-3,.32-.87.18-.92.23-3.44,1-2.73.7-6.1,1.25-4.57.59-.19,0-2.67.39h-74.8c-.78-.28-1.57-.55-2.33-.87a103.31,103.31,0,0,1-13.36-7.06c-6.28-3.73-13.13-7.43-18.86-12l-2.47-2-1.56-1.56-1.66-1.89-1.6-2.35-1.21-1.84L561.4,454l-.42-1.89-1.39-6.72-.66-5.71-.5-8.64-.37-2.63.26-4.19V422l.16-1.58.29-9.16L559,410l1-11.85.21-1.87.47-4.42.93-7.53v-1.58l.52-4,.21-2.18.27-1.53.68-6.93.76-7.89v-.87l5.45-55.08.37-3.39.32-3.53.5-4.79.34-4.77.32-2.87.52-5.9v-3.18l.13-1.58v-1.92l-.31-3.16-.58-2.45-1.24-2.9-1.47-2.47-1.21-1-1.16-1.44-1.79-1.32-1.58-.71-3.53-1.08-4.26-.74-.82-.47-1-.76-.58-.85-.53-1.87ZM369.69,456.34l-.77,1.45-2.29,2.9-2.31,2.63L362,466l-2.37,2.64L357.18,471l-2.42,2.29-2.45,2.14-2.47,2-2.5,2-2.48,1.81L342.23,483l-2.63,1.63L337,486.12l-2.63,1.45-2.5,1.37-2.5,1.23-2.48,1.19-2.47,1.08-2.45,1-2.45.94-2.39.84-2.35.8-2.37.73-2.29.66-2.26.6-2.21.53-2.19.48-2.13.42-2.08.37-2,.34-1.95.29-1.92.26-1.82.16-1.73.18H271.17l-3.63-.29-3.61-.31L260.4,500l-3.47-.52-3.42-.63-3.32-.69-3.29-.76-3.19-.82-3.16-.89-3.08-1-3-1-2.95-1.08-2.87-1.13C214.28,485.53,201,479,189,468.93a144.55,144.55,0,0,1-30.76-35.62l-1.58-2.64-1.5-2.63-1.42-2.63-1.34-2.63-1.27-2.64-1.18-2.63L148.8,415l-1-2.45-1-2.4-.89-2.37-.84-2.31-.79-2.29-.72-2.24-.65-2.16-.58-2.11-.56-2.1-.5-2-.44-1.95-.42-1.87-.35-1.81-.31-1.74-.29-1.66-.27-1.58-.21-1.47-.18-1.42V357.64l.29-3.74.34-3.58.4-3.52.5-3.45.58-3.4.57-3.37.74-3.26.79-3.24.87-3.16.92-3.08,1-3,1.1-2.77,1.08-2.89,1.13-2.85,1.19-2.79,1.21-2.63,1.24-2.63,1.29-2.64,1.29-2.63,1.34-2.45,1.31-2.37,1.37-2.31,1.32-2.4,1.4-2.16,1.36-2.1,1.37-2,1.4-1.95,1.34-1.9,1.34-1.79,1.32-1.76,1.32-1.63,1.26-1.61,1.29-1.5,1.21-1.42,1.19-1.37,1.13-1.26,1.1-1.24,1-1.11,1-1.05.92-.95.9-.89.81-.82.74-.68.66-.66.58-.55.53-.48.42-.39.34-.27.26-.23H187l.63-.5,2.63-1.87L193.4,253l3.08-2.1,3.11-2,3.08-1.84,3.21-1.84,3.05-1.61,3.06-1.47,2.89-1.29,3-1.24,3-1.13,3-1,3-.92,3-.87,2.93-.74,2.89-.6,2.79-.42,2.93-.61,2.81-.37,2.79-.29,2.64-.18,2.63-.13h7.9l2.63.15,2.63.21,2.63.27,2.45.31,2.45.37,2.37.42,2.34.42L280,235l2.24.53,2.18.58,2.16.58,2.11.63,2.05.66,2,.68,2,.69,1.86.71,1.82.68,1.79.74,1.69.74,1.66.73,1.57.71,1.51.77,1.52.81,1.4.69,1.31.71,1.24.68,1.29.9,1.11.6,1,.64.95.57a92.22,92.22,0,0,0,48.73,13.35l.53-.16.5-.15h1.11l.26-.14h.18l1.32-.15.92.23.76.58.72,1.08v.21s.24.85.57,2.37l-.25.28-1.68,1.95-.18.21-1.69,2-.24.3-1.66,2.1-.15.21-1.66,2.18-.25.35-1.64,2.29-.15.21-1.61,2.35-.28.43L359,284.59l-.24.39-1.55,2.64-.11.18-1.5,2.64-.11.19-1.45,2.63-.35.68-1.45,3-.07.15L350.81,300l-.13.28-1.31,3-.17.4-1.27,3.11-.15.41-1.19,3.18-.07.2-1.16,3.27-.18.55-1.06,3.39-.09.31-1,3.5-.1.37-.92,3.58-.07.29-.87,3.68-.1.46-.76,3.79-.11,1.09-.32,1.43-.26,1.64-.21,2.08-.07,1.45v25.13l-.62.49L332,371.73l-2.14,1.34-5,2.63-4.35,1.64-5,1.36-4.6.95-4.64.29-3,.37H292.63l-1.79-.32-3.95-.5-5.13-.84-3.09-.5-5.1-1.1-3.85-1.22-3.23-1.29-2.16-1.26-2.22-1.16-1.71-1-5.55-4.5-3.71-3.74-4.06-5.27-4.71-7-3.05-6.4-2-5.95L237,337l-.5-1.79-.34-1.79-.23-1.74v-5l.15-1.58.27-1.56.31-1.5.37-1.44.42-1.43.5-1.34.53-1.26.55-1.24.58-1.18.61-1.14.6-1,.63-1,.61-.93.58-.84.58-.79.55-.71.53-.63.47-.55.42-.48.35-.39.28-.32.24-.18.13-.16,1.87-1.58,2.64-1.76,3.39-1.74,2.95-1,4.95-.57,4.05.31,3.37.63,2.37.87,2.45,1.29,1.53,1.24.92.95,1,.84,1.71,2.29.42.9.45.81V309l.16.23.13.21.18.4.22.45.23.6.24.55.24.58.21.66.18.69.19.73.18.79v5.32l-.18.95-.27,1-.34.95-.42,1-.5,1-.63,1-.71,1-.85.94-.92,1-1.05.95-1.19.95-.68.47-2,.85-2.16.52H265l-2.79.19-1.21.44-1.05.72-.63.68-.48.79-.42,1.53v3.26l.45,2.27s.65,1.38.66,1.39c1.45,3.08,3.8,6.82,6.76,8.46a22.56,22.56,0,0,0,11,2.66,28.75,28.75,0,0,0,9.13-1.51c7.7-2.58,14.16-8,19.57-14a46.34,46.34,0,0,0,7-9.77c1.72-3.37,2-6.77,3.1-10.3l.55-2.26.42-2.27.32-2.21.21-2.19v-6.31l-.21-2-.29-2-.37-1.95-.45-1.92-.53-1.9-.6-1.81-.66-1.79-.71-1.77-.76-1.71-.82-1.66-.87-1.63-.89-1.55-1-1.56-1-1.45-1-1.47-1-1.37-1-1.34L304.34,274l-1-1.24-1.05-1.18-1-1.14-1-1.1-1-1-1-1-1-.92-1-.87-.92-.82-.9-.76-.81-.69-.79-.65-.77-.58-.66-.53-.63-.47-.55-.43-.47-.34-.43-.29-.31-.21-.24-.18h-.16l-1.89-1.21-2.13-1.27-2.11-1.1-2.13-1-2.11-.87-2.08-.76-2.08-.66-2.08-.52-2-.45-2.06-.34-2-.27-2-.18h-7.79l-1.9.24-1.87.29-1.81.34-1.82.42-1.79.45-1.74.52-1.68.56-1.69.6-1.63.63-1.6.66-1.56.74-1.52.71-1.5.76-1.43.79-1.39.77-1.37.81-1.29.79-1.26.82-1.22.79-1.15.81-1.11.79-1,.77-1,.79-1,.73-.9.72L219,268l-.79.66-.71.63-.63.58-.61.55-.53.48-.44.42-.4.39-.32.32-.23.23-.21.22-1.82,1.84-1.89,2-1.8,2-1.71,2.11-1.6,2.15-1.5,2.16L202.41,287l-1.32,2.21-1.26,2.24-1.19,2.26-1,2.27-1,2.29-.92,2.26-.87,2.29-.79,2.29-.74,2.29-.65,2.32L192,312l-.53,2.27-.5,2.26-.39,2.24-.4,2.21-.31,2.21-.29,2.19-.21,2.16-.19,2.1-.16,2.08v19.93l.16,1.45.16,1.37.16,1.29.16,1.23.15,1.14.19,1.05v1l.16.87.15.79v3.08l.29,1.61.35,1.65.47,1.64.4,1.79.44,1.84.45,1.92.53,1.95.55,1.92.58,2,.66,2.06.68,2,.74,2.11.79,2.15.84,2.14.87,2.13.95,2.18,1,2.22,1.05,2.18,1.11,2.21,1.18,2.21,1.24,2.19,1.32,2.21,1.34,2.19,1.42,2.21,1.5,2.13,1.55,2.16,1.66,2.13L216,422.2l1.79,2.08,1.85,2.05,2,2,2,2,2.08,1.94,2.19,1.87L230.1,436l2.34,1.79,2.45,1.71,2.64,1.72,2.63,1.6,2.63,1.56,2.79,1.47,2.92,1.45a113.74,113.74,0,0,0,28.15,8.29,68.42,68.42,0,0,0,11.17.71l5.89,0h8.87l2.32-.16,2.39-.21,2.42-.24,2.45-.29,2.5-.32,3.16-.6,2.64-.45,2.63-.47,2.63-.56,2.63-.6,2.64-.66,2.63-.76,2.63-.82,2.63-.84,2.64-1,2.63-1,2.63-1.1,2.64-1.19,2.63-1.26,2.63-1.34,2.63-1.45,1.81-1.05.1.16.16.27L361,443l.28.43,1.76,2.64.11.15,1.82,2.64.22.31,1.92,2.63.25.34.69.88.08.26.18.27.81,1,.22.27.27.32.22.27ZM222.37,377l0-.18v-.91l-.22-1.22-.14-.81-.11-.8-.15-1.16-.14-1.15-.15-1.31-.06-.61v-18.6l.11-1.45.17-2,.18-1.84.25-1.87.26-1.88.36-2v-.11l.33,1.18.16.78.49,1.82,2,5.95.63,1.56,3,6.4,1.05,1.83,4.71,7,.54.75,4.05,5.26,1.19,1.36,3.72,3.74,1.15,1,5.55,4.5,1.64,1.12.14.2.25.39.28.36,4.06,5.27.55.71.64.64,3.71,3.74.55.55.6.49,5.55,4.5.92.75,1,.58,1.72,1,.21.13.23.11,1.91,1,1.87,1.09.93.55,1,.4,3.24,1.29.49.19.51.16,3.84,1.21.63.2.65.14,5.11,1.11.36.08.37.06,3.08.5,5.11.84.26,0,.27,0,3.6.46,1.44.25,1.24.22H322l.85-.1,2.65-.32,4.22-.26,1-.07,1-.2,4.6-.95.45-.09.43-.12,5-1.37.65-.17.63-.24,1.83-.68.59,2,.05.17.87,2.77.1.31.9,2.64.09.26,1,2.77.22.56,1.08,2.63.09.23,1.14,2.63,0,.09.9,2.07-2.17,1.26L348,429.71l-2.28,1.16L343.35,432l-2.3,1-2.29,1-2.29.89-2.21.79-2.32.74-2.45.76-2.25.66-2.24.56-2.37.54-2.29.48-2.37.43-2.56.43-.29.06-2.71.52-2,.25-2.25.26-2.21.22-2.18.19-1.69.12H287.82a56,56,0,0,1-8.83-.52,98.89,98.89,0,0,1-24.34-7.11L252.13,433l-2.32-1.23-2.25-1.33L245.19,429l-2.26-1.47-1.34-.94-.86-1.2-1.28-1.81-1.19-1.84-1.2-2-1.19-2-1.08-1.9-1-1.88-1-1.95-.93-1.92-.88-2-.84-1.94-.78-1.91-.75-1.89-.69-1.89-.67-1.92-.62-1.87-.57-1.78-.53-1.8-.51-1.79-.43-1.59-.39-1.68,0-.06V388l-.41-1.7-.37-1.64-.1-.46-.13-.45-.31-1.08-.2-.93,0-.16v-3.22Zm46.44-92.42,1.19-.3,1.41-.32,1.29-.25,1.43-.22.8-.1h6.23l1,.1,1.52.2,1.45.24,1.47.32,1.44.36,1.37.43,1.5.56,1.6.66,1.53.7,1.43.75,1.6.95.22.13.65,1.07.68,1.19.65,1.22.6,1.2.54,1.23L301,296l.51,1.38.42,1.26.35,1.25.31,1.34.25,1.35L303,304l.1,1v4.79l-.33-.26-1.52-1.24-1.1-.89-1.25-.65-2.45-1.3-.85-.44-.9-.33-.63-.24-.13-.28-.21-.44-.16-.35-.5-.92-.21-.84-.24-.43-.23-.49-1.49-2.49-1.71-2.29L287,293.49l-.45-.38-.42-.43-1.26-1.15-1.53-1.24L281,288.74l-2.44-1.29-1.76-.78-2.37-.87-2.3-.63Zm236.4,208.85-4.21.89a86.34,86.34,0,0,1-16.33,1.48A146,146,0,0,1,461,493.56l-3.53-.63-3.39-.74-3.35-.78-3.23-.9-3.22-.95c-2.33-.74-4.75-1.19-7-2.09-21.09-8.39-39.25-21.91-54.34-38.74l-.68-.76-.58-.74-.5-.61-.45-.55-.37-.45-.29-.34-.18-.26v-.19l-1.19-1.52-1.92-2.64L375,438l-1.77-2.63-1.63-2.63L370,430.14l-1.47-2.63-1.39-2.63-1.29-2.77-1.21-2.76-1.14-2.63-1.08-2.64-1-2.76-.89-2.63-.87-2.77-.79-2.63-.71-2.63-.66-2.64-.61-2.63-.55-2.63-.5-2.63-.45-2.64-.36-2.63-.35-2.63-.31-2.48-.27-2.39-.21-2.37-.15-2.32-.16-2.26v-29l.21-2.08.47-2.16v-.61l.77-3.79.86-3.69.93-3.58,1-3.5,1.05-3.39,1.16-3.27,1.18-3.18,1.27-3.11,1.31-3,1.37-2.92,1.45-3,1.45-2.63,1.5-2.63,1.55-2.64,1.55-2.44,1.61-2.35,1.63-2.29L377.6,283l1.66-2.11,1.69-2,1.68-1.94,1.71-1.87,1.71-1.79,1.69-1.72,1.71-1.6,1.68-1.58,1.69-1.5,1.66-1.42,1.63-1.32,1.63-1.29,1.61-1.21,1.55-1.13,1.53-1.08,1.5-1,1.81-1.4,1.43-.87,1.34-.81,1.29-.77,1.26-.71,1.19-.66,1.1-.57,1.06-.53,1-.5.92-.42.82-.4.76-.34.66-.29.55-.24.48-.18.37-.13h.44l1.24-.42,1.26-.19h1.24l.87.29.76.58.9,1.29.68,2.48.32.58.58.26h.31l1.08-.61,1.85-1.47,1.87-1.45,1.89-1.34,2-1.29,2-1.21,2-1.16,2.08-1.11,2.11-1,2.13-1,2.13-.92,2.16-.87,2.19-.79,2.18-.76,2.19-.71,2.15-.66,2.19-.63,2.16-.56,2.16-.52,2.13-.5,2.11-.42,2.1-.4,2-.37,2-.34,2-.29,1.92-.24,1.89-.26,1.85-.21,1.76-.18,1.71-.16H512l2.9.23,2.81.35,2.64.39,2.63.5,2.63.58,2.64.66,2.44.68,2.37.79,2.29.82,2.22.87,2.11.9L538.8,242l-.42,1.93-.2,1.13-.4,2.9-.13,1.94v1.26l.54,3.9.53,1.87,2,4.25.58.84,3,3.17,1,.76,1.65,1.12.82.48,4.77,1.73,3.37.58.93.29.36.36.32.75.08.32.15,1.49v.61l-.09,1,0,.69-.66.58L554,278.82l-1.23,1.5-.93.92-2.47,2.92-1.63,1.45-.5.76-2.64,3.19-.86.94-.56.85-2.31,3.29L538,298.32l-1.24,1.5-.82.56-1.18.31-.9-.15-2.08-1.45-2.26-1.69-5.71-4.29-1.11-.66-3.05-1.81-1-.79-6.48-3-3.5-1.29-3.63-1-1.79-.52-4.71-1.29-5.27-.69H491l-2.42-.21-6.47.29-3.06.4c-5.19.79-10.34.92-15.34,2.75A50.8,50.8,0,0,0,446.92,296a38.77,38.77,0,0,0-5.27,5.82,42.44,42.44,0,0,0-5.21,10.78l-.55,5-.29,2.21.16.93.18,3.52.24,4,.45,2.82,1,3,1.55,3.48,2.64,4.42,2.29,2.64,2.34,1.65,1.58,1.06,2.13.76,4.14,1.11,2.87.36,3.73.19,3.64-.61,2.63-.71,2.63-1.21,2.63-1.63.66-.69,1.58-1.52,2.22-2.63,2.39-3.61.82-2.06v-1.18l-.21-.16h-.29l-1.77.69-2.87,1.18-1.79.45-2.63.53h-2.13l-2.5-.27-2.29-.81L461,334.29l-1.29-.9L458,331.94l-1.37-1.71-1.24-2.63-.87-2.77-.42-2.84v-.92l.45-2.19.61-1.81,1-2.29,1.08-1.93,1.92-2.5,1-.87,3.37-2.21,3.68-2,2.64-.89,3.58-.56h2.18l2.45.26,3,.56,3.68.81,2,.71,2.16,1.24,1.63,1.08,2.64,2.21,1,1.16,1,1.58,1.11,1.55,1.26,2.14.9,2,.71,1.42,1.08,3,.34,1.05S509,350.9,480.2,366.38l-1.92,1-1.79.58-.85.5-1.44.66-3.56,1.08L467,371l-2.76.47-4.06.42h-2.63l-7.37-.84-1.08-.24-2.63-.66-2.64-.68-2.42-.79-2.31-.84-2.22-.9-2.1-.95-2-1.05-1.93-1L429,362.8l-1.71-1.13-1.66-1.16-1.55-1.24-1.48-1.21-1.39-1.24-1.32-1.26-1.23-1.27L417.51,353l-1.1-1.29-1-1.26-1-1.29-.87-1.26-.82-1.27L412,345.4l-.68-1.22-.64-1.18-.57-1.13-.56-1.13-.45-1.08-.44-1c-1.24-3.27-2.67-6.11-3.48-9.57a114.67,114.67,0,0,1-2.56-15.95c-.21-2.38.45-4.74.19-7l-.26-.55-.26-.16H402l-.26.13-.48.47-.47,1.11v.74l-.19.44-.21.56-.23.63-.27.76-.26.79-.26.95-.29,1.05-.32,1.13-.29,1.22-.29,1.31-.29,1.42-.26,1.53-.29,1.61-.24,1.71-.23,1.79-.19,1.89-.16,2v14l.16,2.63.21,2.63.29,2.82.35,2.92.42,3,.5,3.08.58,3.22.68,3.26.74,3.37.87,3.45,1.15,4.29v.48l.19.79.24.92.26,1,.34,1.08.32,1.21.42,1.29.42,1.34.47,1.45.56,1.53.55,1.6.6,1.69.69,1.71.74,1.76.76,1.84.84,1.9.87,1.92.95,2,1,2,1.05,2,1.13,2.08L416,411l1.26,2.1,1.32,2.14,1.34,2.15,1.48,2.16,1.52,2.14,1.61,2.15,1.66,2.14,1.74,2.16,1.81,2.1,1.9,2.11,2,2.05,2.06,2.06,2.13,2,2.21,2,2.32,1.92,2.37,1.89,2.47,1.87,2.63,1.77,2.64,1.74,2.63,1.65,2.84,1.61,2.92,1.53,3,1.47,3.14,1.34,3.23,1.32,1.35.61,2.23.92,2.24.81,2.26.74,2.27.61,2.29.57,2.29.45,2.26.4,2.32.31,2.27.24,2.26.18,2.24.14h10.92l2.11-.21,2.05-.21,2-.29,2-.3,1.92-.31,1.87-.34,1.79-.34,1.76-.4,1.66-.37,1.63-.39,1.56-.4,1.47-.42,1.4-.39,1.31-.37,1.24-.4,1.13-.37,1-.36,1-.32.85-.32.76-.26.63-.26.55-.21.43-.16.31-.13h.19l1.55-.69.92-.23h.63l.85.36,1.15,1.06.71,1.08L549.4,463l1,2.66,1.48,2.93,0,.05-.16.24-1.45,1.35-2.63,2.1-2.84,2-1.11.64-1.87,1.18-1.37.71-1.1.58-2.24,1.29L534.85,480l-2,1.45-1.19.53-.73.6-5,2.64-4.44,2.13-1.74.74-2.63,1.13-5.48,2.31Zm38.61-63,.29,2.06.46,8.05.07.82.08.69-1.55-.32h-.63l-3.58.45-.92.24-2.22.77-1.14.5-.16,0v0l-.15.05h0l-.07,0-.19.06-.62.24-.41.16-.22.09-.33.12-.36.13-.54.2-.67.22-.42.14-.82.3-.93.3-.91.29-1.07.3-1.43.41-1.31.37-1.27.32-1.42.35-1.53.33-1.56.36-1.52.29-1.68.3-1.67.28-1.85.27-1.68.24-1.76.18-1.35.14H497l-1.66-.1-1.93-.16-1.88-.19-1.83-.25-1.85-.33-1.77-.34-1.81-.46-1.8-.48-1.66-.54-1.72-.63-1.75-.72-1.13-.51-.49-.21L472.57,444l-2.69-1.15-2.53-1.23-2.53-1.33-2.34-1.32-2.21-1.39-2.47-1.63-2.25-1.5-1.31-1-.25-.32-1.44-1.93-1.36-1.9L450,427.49l-1.18-1.89-1.24-2-1.11-1.85-1-1.84-1-1.88-.92-1.77-.9-1.82-.84-1.75-.79-1.74-.74-1.69-.7-1.67-.71-1.7-.55-1.37-.48-1.36-.53-1.51,0-.11,0-.11-.48-1.31-.37-1.15-.4-1.26,0-.08,0-.08-.29-.88-.2-.79-.1-.36-.11-.36-.23-.73-.12-.46v-.63l-.5-1.84-.69-2.56,1,.81.35.28.37.26,1.66,1.16.15.1.15.1,1.71,1.13.27.18.27.16,1.84,1.11.31.18.31.17,1.92,1,2.08,1.09.4.21.4.18,2.11.95.25.11.25.1,2.21.9.24.09.24.09,2.32.85.23.08.23.07,2.42.79.42.14.42.11,2.63.68.07,0,.06,0,2.64.65.2,0,.2.05,1.08.24.72.15.73.09,7.37.84.81.09h4.2l.74-.07,4.06-.43.47,0,.47-.08,2.76-.48.36-.06.34-.08,3.66-.81.53-.12.52-.16,3.56-1.08.9-.27.87-.4,1.45-.65.71-.33.14-.08.26-.08,1.07-.35,1-.51,1.92-1,.16-.08L505,397c31-16.71,31.44-45.77,27.32-58.8l0,0v-.06l-.35-1.05-.07-.23-.09-.23-1.07-3-.29-.78-.37-.74-.59-1.18-.78-1.73-.33-.71-.4-.68-1.26-2.13-.31-.52-.35-.49-.93-1.31-.86-1.32-.58-.9-.71-.8-1-1.16-.7-.79-.81-.68-1.7-1.43.21.06.12,0,.12,0,3.05.84,2.39.88,4.49,2.08.44.34.74.44,3,1.81.44.26,5.1,3.83,2.31,1.72.18.14.19.13,2.08,1.45,2.6,1.81,3.12.55.89.15,2,.36-2.44,24.73-.07,1.42v.17l-.7,7.21-.63,6.38-.18,1-.14,1.06-.19,1.94-.49,3.79-.12,1.86v.7l-.82,6.66,0,.22-.48,4.42-.2,1.79,0,.37-1,11-.08.37-.31,2.54-.28,8.67-.1,1.1-.08,1.43v1.78l-.23,3.74ZM698.91,647.74l-.73-.44-.69-.37-.58-.34-.52-.32L696,646l-.36-.21-.29-.15h-.16l-.79-.5-4.42-2.24-8.45-4.08L669.32,634l-2.92-1-5.79-2.21-5-1.5-4.45-1.24-1.52-.26-4.24-1.06-5.77-1.21-7.9-1.18-5.66-.53-11.82.16-1.55.13-6.48.63-2.82.29-3.1.24-1.45.32-3.53,1.52-1,.82-1.21,1.4-.66,1.47-.81,3.71-.35,3.16V654l-.13,3.16-.15,1.32v1.24l0,.52v41.59l.19,7.42.14,1.33.28,4.81.19,2,.92,5.31,2.21,6,.64,1.19.72,1.52,2.77,4.29,1.46,1.85,2.36,2.77,1.24,1.08,1.47,1.44,2.46,1.55,1.83.77,1,.25c.58.14,1.15.09,1.73.28a6.4,6.4,0,0,1,2.9,1.59,5.66,5.66,0,0,1,1.09,2.77,6.65,6.65,0,0,1,.21,1.93,10,10,0,0,1-.63,2.19,13.88,13.88,0,0,1-.53,1.4,8.73,8.73,0,0,1-2.07,2.8,13.94,13.94,0,0,1-1.89,1,3,3,0,0,1-.85.1c-3.27,0-6.51-.07-9.77-.09l-5.38,0-7.84,0-9.59,0-10.65,0-11-.05-10.66,0-9.62,0-7.88,0-5.43,0c-2.2,0-4.9.33-6.75-1.12a5.18,5.18,0,0,1-1.69-2.72,10.91,10.91,0,0,1-.3-3.23,6.36,6.36,0,0,1,.16-1.44,5.11,5.11,0,0,1,1.93-2.65,21.61,21.61,0,0,1,2.87-1.69,56.69,56.69,0,0,0,6.86-4.76l2.29-2L530,738l1.55-1.72,1.53-1.75.58-.85,2.49-4.79,1.47-3.65.27-1.33.42-1.33.66-3.27.5-3.57.72-6.23v-1.69l.22-3.4V673.11s0-5.83,0-5.83v-93l.18-1.61-.26-1.92-.19-7-.26-3.93-.37-5.73-.39-3.66-.22-2.43-.29-2.34-.34-2.24-.42-2.08-.5-2-.55-1.93-.58-1.81-.66-1.74-.66-1.63-.73-1.53-.77-1.45-.76-1.37-.84-1.26-.85-1.19-.81-1.13-.9-1-.84-1-.87-.9-.87-.82-.84-.76a20.25,20.25,0,0,0-3.24-2.47,22.25,22.25,0,0,0-3.61-1.48,5.89,5.89,0,0,1-3.43-2.2,6.77,6.77,0,0,1-.69-2.06c-.37-1.75-.69-3.76.4-5.18a4.15,4.15,0,0,1,2.52-1.43,21.3,21.3,0,0,1,4-.27H673.45l-.07.57-.11,1.75v2.63l.26,2.72.36,1.86h0v.05c.74,3.88,3.5,11,13.65,15.22l.59.24c.67.28,1.56.64,2,.87l.24.22.36.37.53.61.47.56.48.66.67.95.41.6.4.72.57,1.08.41.87.43,1,.46,1.23.4,1.25.42,1.47.37,1.46.29,1.45.26,1.69.23,1.88.19,2.16,0,.3.36,3.35.35,5.42.24,3.67.06,2.23-.31-.15-2.08-1.27-2.16-1.18-2.11-1.37-2.21-1.29-3.79-2.92-2.21-1.85-1.68-.87L677.83,552l-2.19-1.94-3.5-2.11-1.24-1-2.16-1.37-2.47-1.24-1.74-.74-3.92-2-2.5-1.18-1-.48-2.4-1.1-2.37-1L650,537l-2.34-.87-2.32-.79-2.29-.71-2.26-.61-2.22-.58-2.21-.5-2.13-.44-2.11-.37-2-.34-2-.29-1.95-.21-1.87-.22H604.5l-1.71.45-1.68.77-1.63.94-2.64,2.22-1.18,1.5-1.37,2.1-.69,3.79v1.27l-.15,6v3.5l-.13,4.79v8.32l-.14,3.85v9.37l-.15,4.4L593,586v8l.19,1.87.63,1.77,1.1,1.87,1.22,1.1,2.08,1.48.81.44,1.34.74,1.48.5,3.32.82,2.21.29,2.89.13,3.08.31h1.95l3.19-.13h4.34l6.85-.47,7.45-1.08,5.53-.69,4-.65h1.58l1.76-.45,4.56-.61,2.63-.44,7.27-2.06,4.45-1.26,6.87-3.16,5.9-2.84,1.07-.66,3-1.61,6.64-4.11,1.73-.76,2-.5L698,584l.85.32.05.05v63.41Zm-19.32-71.61-1,.58L676,578.1l-.75.42-.48.29-5.14,2.48-5.74,2.64-3.38,1L654,586.73l-1.61.28-4.3.57-1.64.31-.13,0-2,.16-3.79.62-5.26.65-.29,0-6.92,1-2.59.18v-1.82l.13-3.6v-8.62l.12-4.59v-3.71l.13-4.84h15.46l1.07.12,1.76.19,1.61.23,1.84.31,1.79.31,1.79.38,1.86.42,2,.52,1.91.51,1.83.57,1.95.66,2,.73,2,.83,2.05.86,2.18,1,1,.45,2.24,1.06,3.74,1.91.45.23.47.19,1.32.56ZM911,728.86l-1,1.65-.47,1.24-.61,1.08-.26.9-1.23,2-.57.54-.88.61-2.9,2.67-.64.77-1,1.44-.72,1.14L899,747l-.41,1.58-.48,3.65v2.05l.14,2,.28,2,.23.79a8.31,8.31,0,0,1-2.91.86c-4,.58-7.74.12-11.7-.28H877.6l-8.71-.13H851.44l-4.09-.16h-6.16l-2.81-.16-1.64.21h-3.15l-10.54.13h-130l-1.52-.21-1.11-.45-.76-.63-.32-.53-.16-1.29v-2.63a5.23,5.23,0,0,1,2.54-4.7,26,26,0,0,1,3.93-1.72,22.12,22.12,0,0,0,6.33-4.51l.87-.89.84-1,.89-1,.82-1.13.84-1.19.84-1.26.77-1.37.76-1.45.74-1.53.66-1.63.66-1.74.57-1.81.56-1.92.5-2,.42-2.08.34-2.24.26-2.12V573.5l.19-1.61-.27-1.92-.18-7.05L712.8,559l-.37-5.74-.4-3.66-.21-2.42-.29-2.34-.34-2.24-.42-2.08-.5-2-.55-1.92-.58-1.81-.66-1.74-.66-1.63-.74-1.53-.76-1.45-.76-1.37-.85-1.26-.84-1.19-.82-1.13-.89-1.05-.84-1-.87-.89-.87-.82a21.49,21.49,0,0,0-6.52-3.54c-2-.82-4.59-2.3-5-4.65,0,0-.37-1.92-.37-1.92V507l.16-1.29.32-.52.76-.64,1.11-.44,1.52-.21H855.65l3.68-.53,5.08-.66,7-1.42,3.26-.84,3.61-1,.87-.18h3.58l2.13.42,1.66.87,1.47,1.07.64.72,1.42,2.63,1,2.63,1,1.9.39,1.23.61,1.77,2.45,5.92.55,1.13.5,1.45.82,1.37,3.1,6.63a52,52,0,0,0,.95,24.8,1,1,0,0,0,0,.1l.39,1.2c0,.16.1.32.16.47l1.23,3.39a14.62,14.62,0,0,0,.65,1.53l.69,1.37.91,2a13.09,13.09,0,0,0,.72,1.39l1.44,2.42a11.08,11.08,0,0,0,.66,1l1.08,1.52,1,1.54a15.2,15.2,0,0,0,1.29,1.7l.91,1-2.22.45-2.18.16-3.5-.14-3.37-.29-6.37-.94-1.53-.45-1.58-.21-2.63-1-2.43-.66-3.84-1.13-2.63-1-2-.84-1.69-.87-5.26-2.64-2.08-1.26-2.16-1.18L865,561.05l-2.21-1.29L859,556.83,856.78,555l-1.69-.87-4.37-2.87-2.18-2-3.5-2.1-1.24-1-2.16-1.37-2.48-1.23-1.73-.74-3.93-2-2.5-1.19-1-.47-2.4-1.1-2.37-1-2.34-.94-2.35-.87-2.31-.79-2.29-.71-2.27-.61-2.21-.58-2.21-.5-2.13-.45L805,531.3l-2-.35-2-.28-2-.21-1.87-.21H777.4l-1.71.44-1.68.77-1.64.94-2.63,2.21-1.18,1.5-1.37,2.11L766.5,542v1.27l-.16,6v3.5l-.13,4.79v8.32l-.13,3.84v9.38l-.16,4.39,0,1.71v8l.18,1.87.64,1.77,1.1,1.86L769,599.8l2.08,1.47.82.45,1.34.74,1.48.5,3.31.82,2.21.29,2.9.13,3.08.31h1.95l3.19-.13h4.34l6.84-.47,7.45-1.08,5.53-.69,4.06-.65h1.58l1.76-.45,4.56-.61,2.63-.45,7.27-2.05,4.44-1.26,6.88-3.16,5.89-2.85,1.08-.65,3-1.61,6.63-4.11,1.74-.76,2-.5,1.84.16.84.31,1,.87.68,1.11.85,2,.47,1.53.55,2.18.19,1.32.65,1.5.82,2.63.66,1.79,1.71,5.11L880,605v.29q4.49,11.64,9.23,23.17c3.32,8,7.16,15.83,10.5,23.83a12,12,0,0,1,.92,2.83,4,4,0,0,1-.53,2.87c-1.88,2.77-7.9-.27-10.1-1.26q-8.18-3.69-16-8.11c-3.78-2.14-7.28-4.56-11.15-6.52L854.38,638l-12.16-4.82-2.92-1L833.51,630l-5-1.5-4.45-1.24-1.53-.26-4.24-1.06-5.76-1.21-7.9-1.18L799,623l-11.82.16-1.55.13-6.48.63-2.82.29-3.1.24-1.45.31-3.53,1.53-1,.82L766,628.52l-.66,1.48-.82,3.71-.34,3.16v16.37l-.13,3.16-.16,1.32V659l-.16,5.68v5.69l-.15,5.4v4l-.27,5.72v25.27l.14,1.92.18,2.29.26,2.21v5.35l.32,3.87.63,2.79,1.21,3,.77,1.08,1.18,1,1.37.69,3.53,1.21,2.13.5h4.74l5.08-.19,6.19-.42,1.63-.18H794l5-.74,5.27-1,3.92-1.08,2.47-.47,9.56-2.64,4.37-1.63,6.61-2.63,9.4-4.29,1.45-.5,5-2.4,3.77-2.16,6.71-4.08,1.11-.63,2.63-1.53L872.39,704l3.74-1.63,4-1.9,6.68-2.63,1.61-.34,3.63-1.13,3.74-.66,7.32-.58,4.45.26,2.13.42,2.11.24,2.16.32,2.63.63.82.37,2,1,1.58,1.1,1.11,1.19,1,2.63.21,2.18-.18,1.9-.58,2.18-.77,1.77-1.5,2-1,1.68-2,3.19-1,1.92-2.92,4.47-1.66,2.85ZM852.48,575.34l-.94.58-2.61,1.38-.74.43-.48.29-5.14,2.48-5.74,2.64-3.38,1-6.51,1.84-1.62.27-4.29.57-1.65.32-.12,0-2,.16-3.78.62-5.26.65-.3,0-6.92,1-2.58.18V588l.13-3.6v-8.62l.13-4.59v-3.71l.12-4.84h15.47l1.06.12,1.77.19,1.61.23,1.84.31,1.78.31,1.79.38,1.87.42,2,.52,1.92.51,1.83.57,1.95.66,2,.73,2,.83,2,.86,2.19,1,1,.45,2.24,1.06,3.74,1.9.45.23.46.2,1.33.56Zm37.83,106.73-.8.14-1.78.43-3,.94-1,.2-2.27.68-6.69,2.64-.95.41-3.72,1.79-3.5,1.53-1.13.55-11.16,6.08-.34.19-2.59,1.5-1.07.61-.33.2-6.55,4-3.16,1.81-3.75,1.81-.65.22-1.3.52-9.07,4.14-6.13,2.45-3.63,1.35-8.39,2.31-1.92.37-1.11.26-3.36.92-4.41.84-.89.13V703.8l.24-5.38,0-.33v-4.18l.15-5.18v-5.91l.15-5.49v-.78l.06-.47.07-.55,0-.55.13-3.16V656.43l2-.21,6.32-.62,1-.08,10.54-.14,4.5.42,7.08,1.06,5.1,1.07,4,1,.51.13.51.09.82.14,3.6,1,4.33,1.31,5.31,2,.24.09.23.08,2.6.89,11.37,4.5,7.84,3.79c1.77.9,3.62,2,5.57,3.23,1.55.95,3.15,1.94,4.89,2.92S888.48,681.11,890.31,682.07Zm29.1-43.72a25,25,0,0,0,2.77,3.86l.09.35.2.62.43,2.11.27,1.94c-.93-2.1-1.84-4.18-2.7-6.27C920.11,640.1,919.76,639.22,919.41,638.35Zm95.38,115.36a7.05,7.05,0,0,1-3.2,4.93,10.6,10.6,0,0,1-4.94.92c-4.46.12-9-.09-13.45-.11l-17.7-.07-21.69-.1-20.1-.08-12.93-.06h-4.32l-1.83-.64-.86-.52-.61-.83-.41-.92-.28-2v-2.05l.42-1.57.72-1.14.63-.77,1.36-1,.58-.8,4.84-3.07,3.13-2.35,2.3-2,1.66-1.55,1.55-1.72,1.52-1.75.58-.85,2.49-4.79,1.47-3.65.28-1.33.41-1.33.67-3.27.5-3.57.72-6.23v-1.69l.22-3.4V657.76l-.22-3.41v-1.69l-.72-6.23-.5-3.57-.67-3.26-.41-1.33-.28-1.33-1.47-3.65-2.49-4.79-.58-.86-1.52-1.74-1.55-1.72-1.66-1.55-2.3-2a40.9,40.9,0,0,0-6.2-3.55,10.14,10.14,0,0,1-5.48-9.15l.28-2,.41-.91.61-.83.86-.53,1.83-.63h2.29l3.32,0a14.3,14.3,0,0,0,6.45,7.39,68.86,68.86,0,0,0,77.13-7.61l2.29.07-.64,0h2.27l.94.25,1.14.58,1.21,1.16.75,1.08.39,1.24c2.6,8.33-3.16,10.34-9.27,13.94a27,27,0,0,0-9.22,9.76c-2.45,4.16-4.85,9.07-5.62,13.84l-.19,2-.28,4.82-.14,1.33-.19,7.41v41.59l.19,7.42.14,1.33.28,4.81.19,2,.91,5.31,2.22,6,.63,1.19.72,1.52,2.77,4.29,1.47,1.85,2.35,2.77,1.25,1.08,1.46,1.44c.66.41,1.31.87,2,1.25a18.77,18.77,0,0,0,4.21,1.33,10,10,0,0,1,3,1.19,3.45,3.45,0,0,1,1.1,1.16A9.42,9.42,0,0,1,1014.79,753.71ZM961.53,604.42a54.25,54.25,0,0,1-26.11-6.66l4.21-.48,5.3-.81,2-.45,1.38-.18,4.77-1c11.6-3.68,22-9.58,29-19.89s7.71-21.17,5.83-33l-1.11-3.39-1.77-4-3-5-2.61-3-2.67-1.88-1.8-1.2-2.42-.87-4.71-1.26-3.27-.42-4.25-.21-4.14.69-3,.81-3,1.38-3,1.85-.75.78-1.8,1.74-2.51,3-2.73,4.1-.93,2.34v1.35l.24.18h.33l2-.78,3.26-1.35,2-.51,3-.6h2.43l2.84.3,2.61.93,3,1.38,1.47,1,1.91,1.65,1.56,2,1.41,3,1,3.15.48,3.24v1l-.51,2.48L966.9,558l-1.17,2.61-1.23,2.19-2.18,2.84-1.11,1-3.84,2.52-4.2,2.25-3,1-4.08.63h-2.49l-2.78-.3-3.45-.63-4.19-.93-2.28-.81-2.46-1.41-1.86-1.23-3-2.52-1.16-1.31-1.17-1.8L920,560.3l-1.44-2.43-1-2.25-.81-1.62-1.23-3.38-.39-1.2s-9.47-30,23.26-47.59l2.19-1.11,2-.66.95-.57,1.65-.75,4-1.23,4.17-.93,3.14-.54,4.62-.48h3l8.4,1,1.22.27,2.83.71a54.53,54.53,0,0,1-15.09,106.92Zm65.92,54-.23,6.87v3.15l-.28,8.64v32.84l-.1,1.13,0,.21-.13,1.76-.11,1.48-.16,1.45-.18,1.74,0,.15-.12,1.27-.19,1.26-.05.39-.15,1.27-.17,1-.23,1.3-.21,1.09-.24,1.11,0,.1-.14.69-.16.54-.23.74-.08.22,0,.09-1,1.57,0,.09-.46.71-.67.82-.25-4.33,0-.34,0-.33-.08-.77-.17-6.67V678.44l.17-6.68.08-.77,0-.33,0-.33.26-4.54.11-1.15c.31-1.54,1.22-4.2,3.75-8.49a19.23,19.23,0,0,1,1.67-2.39Zm152.27-87.6-2.24-.52-2.64-1-2-.84-1.68-.87-5.27-2.63-2.08-1.26-2.16-1.18-2.11-1.36-2.22-1.29-3.79-2.92-2.21-1.84-1.69-.87-4.37-2.86-2.19-1.95-3.51-2.1-1.23-1-2.17-1.37-2.47-1.23-1.74-.74-3.93-2-2.5-1.18-1-.47-2.39-1.11-2.37-1-2.35-1-2.34-.86-2.32-.79-2.29-.71-2.27-.6-2.21-.58-2.21-.5-2.13-.44-1.38-.24h0l-.5,1.19-.5,1.29-.48,1.34-.45,1.45-.44,1.53-.42,1.6-.4,1.66-.34,1.79-.34,1.87-.29,2-.29,2.06-.21,2.16-.19,2.23-.13,2.35v10.37l.13,2.92.16,3,.21,3.14.29,3.24v12.68l.13,5.06v5.74l.77,33.91v11.32l.21,11.37.23,7v2.9l.29,8.87v33l.16,1.76.13,1.77.13,1.74.19,1.68.18,1.71.16,1.63.24,1.61L1099,724l.24,1.48.26,1.45.26,1.39.29,1.32.27,1.24.34,1.15.32,1,.34,1,.37.87.39.76.4.69.42.55.39.79,1.35,2.08,2,2.4,3.9,3.47,1.81,1.69.71,1.39.32.9v4.74l-.37,2.23-.5.87-.68.63-1.06.64-1.79.42h-1.92l-5,.16-3.37.18H1040.3l-3.37-.18-5-.16H1030l-1.66-.39c.22-.72.42-1.46.57-2.21a24.86,24.86,0,0,0-.43-10.94l3.86-3.44,2-2.4,1.34-2.08.4-.79.42-.55.39-.69.4-.76.37-.87.34-1,.31-1,.35-1.15.26-1.24.29-1.32.26-1.39.27-1.45.23-1.48.19-1.55.23-1.61.16-1.63.19-1.71.18-1.68.13-1.74.13-1.77.16-1.76v-33l.29-8.87v-2.9l.24-7,.21-11.37V636.07l.76-33.91v-5.74l.13-5.06V578.68l.29-3.24.21-3.14.16-3,.13-2.92V556l-.13-2.35-.18-2.23-.21-2.16-.29-2.06-.29-2-.35-1.87-.34-1.79-.39-1.66-.42-1.6-.45-1.53-.45-1.45-.47-1.34-.5-1.29-.46-1.09-1.43.25-2.13.45-2.21.5-2.21.58-2.27.61h0a69.45,69.45,0,0,0-15.63-29.91l47.64-.06v0l89.57-.12,3.68-.53,5.08-.66,7-1.43,3.26-.85,3.61-1,.87-.19h3.58l2.13.42,1.66.86,1.47,1.08.64.71,1.42,2.63,1,2.64,8,50.4A11.36,11.36,0,0,1,1179.72,570.78Zm131.92-104-1.53,1.44-.89.62-3,2.78-.63.77-1.07,1.48-.71,1.12-1.83,4.19-.41,1.55-.49,3.8v2l.15,2.06.27,2,.64,2.21a50.07,50.07,0,0,1-10.94-.35h-6.53l-8.71-.13h-17.46l-4.08-.16h-6.16l-2.82-.16-1.63.21h-3.16l-10.53.14h-36.63l-.29-.32-2.26-2.05-1.47-1.08-1.83-1.13-1.66-.87-3.89-1.36-2.13-.42-2.79-.27h-3.58l-3,.31-.87.18-1,.25-3.43,1-2.73.71-6.11,1.25-4.56.6-.19,0-2.67.39-52.8.07,0-.39v-2.63a5.24,5.24,0,0,1,2.53-4.7,28.28,28.28,0,0,1,3.94-1.72,22.1,22.1,0,0,0,6.32-4.5l.87-.9.85-1,.89-1.06.82-1.13.84-1.18.84-1.27.76-1.37.77-1.44.74-1.53.65-1.63.66-1.74.58-1.82.55-1.92.5-2,.43-2.08.34-2.23.26-2.12V306.35l.18-1.6-.26-1.92-.18-7.06-.27-3.92-.37-5.74-.39-3.66-.21-2.42-.29-2.35-.34-2.23-.42-2.08-.5-2-.56-1.92-.58-1.82-.65-1.74-.66-1.63-.74-1.53-.76-1.45-.77-1.36-.84-1.27-.84-1.18-.82-1.13-.89-1.06-.85-1-.86-.9-.87-.81c-1.89-1.71-4.2-2.58-6.52-3.55-2-.82-4.59-2.3-5-4.64,0,0-.37-1.92-.37-1.92v-2.64l.16-1.29.31-.52.77-.63,1.1-.45,1.53-.21h164.12l3.69-.53,5.08-.66,7-1.42,3.26-.84,3.61-1,.87-.18h3.58l2.13.42,1.66.87,1.47,1.08.63.71,1.43,2.63,1,2.63,1,1.9.39,1.24.61,1.76,2.45,5.92.55,1.14.5,1.44.82,1.37,4.71,10.06,3.81,7.9.77,1.74.89,1.68.79,1.74.58.76.66,1.45,1,2,1.87,3.71,3,5.9,2.63,5.26.74,2.45.26,1.87-.21,1.29-.42.87-1.37,1.29-1,.66-1.94,1.16-3.69.73-2.19.16-3.5-.13-3.37-.29-6.37-.95-1.52-.45-1.58-.21-2.64-.94-2.42-.66-3.84-1.13-2.64-1.06-2-.84-1.68-.87-5.27-2.63-2.08-1.27-2.16-1.18-2.1-1.37-2.21-1.29-3.79-2.92-2.22-1.84-1.68-.87-4.37-2.87-2.19-1.95-3.5-2.11-1.23-1-2.16-1.37-2.48-1.24-1.74-.74-3.92-2-2.5-1.18-1-.47-2.39-1.11-2.37-1-2.35-1-2.34-.87-2.32-.79-2.29-.71-2.26-.6-2.21-.58-2.21-.5-2.14-.45-2.1-.37-2-.34-2-.29-1.94-.21-1.87-.21h-19.72l-1.71.45-1.69.76-1.63.95-2.63,2.21-1.19,1.5-1.37,2.1-.68,3.8v1.26l-.16,6v3.5l-.13,4.8v8.31l-.13,3.85V312l-.16,4.4,0,1.71v8l.18,1.86.63,1.77,1.11,1.87,1.21,1.1,2.08,1.48.82.44,1.34.74,1.47.5,3.32.82,2.21.29,2.9.13,3.08.32h2l3.18-.14h4.35l6.84-.47,7.45-1.08,5.53-.68,4-.66h1.58l1.77-.45,4.55-.61,2.64-.44,7.26-2,4.45-1.27,6.87-3.16,5.9-2.84,1.08-.66,3-1.61,6.63-4.1,1.74-.77,2-.5,1.84.16.84.32,1,.87.68,1.1.84,2,.48,1.53.55,2.19.18,1.31.66,1.5.82,2.63.66,1.79,1.71,5.11.63,1.48v.29q4.47,11.64,9.23,23.17c3.32,8,7.16,15.82,10.5,23.82a12.48,12.48,0,0,1,.92,2.83,4.08,4.08,0,0,1-.53,2.87c-1.89,2.77-7.91-.26-10.1-1.25q-8.19-3.69-16-8.12c-3.79-2.14-7.28-4.56-11.15-6.52l-8.45-4.08-12.16-4.82-2.93-1-5.79-2.21-5-1.5-4.45-1.24-1.53-.26-4.24-1.05-5.76-1.22-7.9-1.18-5.66-.53-11.82.16-1.56.13-6.47.63-2.82.29-3.11.24-1.44.32-3.53,1.52-1,.82-1.21,1.4-.66,1.47-.82,3.71-.34,3.16V386.1l-.13,3.16-.16,1.31v1.24l-.16,5.69v5.68l-.16,5.4v4.06l-.26,5.71v25.27l.13,1.92.19,2.3.26,2.21v5.34l.32,3.87.63,2.79,1.21,3,.76,1.08,1.19,1,1.37.68L1180,469l2.14.5h4.74l5.08-.18,6.18-.42,1.64-.19h1.31l5-.73,5.26-1,3.93-1.08,2.47-.48,9.56-2.63,4.37-1.63,6.61-2.64,9.39-4.29,1.45-.5,5-2.39,3.76-2.16,6.72-4.08,1.1-.63,2.63-1.53,11.17-6.08,3.74-1.64,3.94-1.89,6.69-2.63,1.61-.35,3.63-1.13,3.74-.66,7.32-.58,4.45.27,2.13.42,2.11.24,2.16.31,2.63.63.81.37,2,.95.37.26v5.47l-.19,2.87,0,1v.81l-.59,5.11-.3,2.14-1.39,2.22-1,1.92-2.92,4.48-1.66,2.84-.55,1.45-.77,1.31-1.4,1.05Zm6.57-116.6-.4-.94-1.53-4.55-.06-.2-.08-.19-.53-1.45-.7-2.27-.24-.78-.19-.42,0-.13-.19-.76-.13-.52.8.11.49.06.47.14.95.28,1,.15,6.37.94.44.07.45,0,1.75.15,0,32.16c-2.51-6.11-5-12.34-7.44-18.62v-.56Zm-58.68-42-.94.59-2.61,1.38-.75.42-.47.29-5.14,2.48-5.75,2.64-3.38,1-6.5,1.84-1.62.28-4.3.57-1.64.32-.12,0-2,.16-3.79.61-5.25.65-.3,0-6.92,1-2.58.17v-1.82l.12-3.6V308.6l.13-4.6v-3.71l.13-4.84h15.46l1.07.12,1.77.19,1.6.23,1.85.31,1.78.31,1.78.38,1.87.42,2,.52,1.92.51,1.83.57,1.94.66,2,.73,2,.83,2,.87,2.18,1,1,.45,2.25,1.06,3.73,1.91.46.23.46.19,1.33.57Zm37.82,106.73-.79.14-1.79.43-3,.94-1,.2-2.28.69-6.68,2.63-1,.42-3.72,1.78-3.5,1.53-1.12.55-11.16,6.08-.34.19-2.59,1.51-1.07.6-.33.2-6.56,4-3.16,1.81-3.75,1.81-.66.22-1.28.51-9.08,4.15-6.13,2.44-3.63,1.36-8.39,2.31-1.91.36-1.11.26-3.36.93-4.41.84-.9.13V436.65l.25-5.38,0-.33v-4.17l.15-5.19v-5.91l.16-5.49v-.77l.06-.47.06-.55,0-.56.13-3.16V389.28l2-.21,6.31-.61,1-.08,10.55-.14,4.5.41,7.08,1.07,5.1,1.07,4,1,.5.12.52.09.81.14,3.61,1,4.33,1.3,5.31,2,.23.09.24.08,2.6.89,11.36,4.5,7.85,3.79c1.77.9,3.62,2,5.57,3.24,1.55.95,3.15,1.93,4.89,2.91S1295.53,414,1297.35,414.92Zm271.58,69-.13,1.26-.55,1.87-.61.79-1.09.8-1.86.63-2.61.46-6.1,0-6.84,0h-4.31l-2.34,0-1.65.07-1-.18-2,.08-2,0-2,.11-9.09.16-11.51.33-1.65-.11-1.58.21-1.3,0-6.63.5-1.92.27-1.33.21-2.22,0-2.9.31-3.1-.09-1-.25-1.68-.86-1.58-1.13-1.39-1.78-1.67-3.31-.24-.89-.74-3.82-.74-3.42-2-7.12-1.76-5-1.24-3.65-37.3-73.87-2.69,1.21-2,1.15-2.41,1.89-1.23,1.14-1.66,1.72-2.29,2.49-2.21,3-1.15,2-.82,1.75-1.53,4.12-.27,1.88v3.63l.33,1.23.6,1.18.79,1,.82.52,1,.22,1-.17,3.25-1.45,2.73-.57h3.22l3.39.9,2.73,1.34,1.55,1.09,2.3,2.29,1.17,1.59.9,2.1.57,2.18.49,1.61.25,2.32-.3,2v1.33l-.82,2.93-.65,1.47-1.15,2-1.26,1.59-1.41,1.45-1,.84-2.73,1.94-2.19,1.23-2.89,1.47-2.57.52h-1.69l-1.91-.25-3.47-.84-3.24-1.37-2.24-1.39-3.06-2.35-2.08-2.07-3.16-3.88-1.72-2.73-1.2-1.93-1.86-3.8-1.23-3.11-1.17-5.19v-1l-.36-3.33.33-5.46.57-2.73,1-3.79.82-2.18,1.64-3.55,1.39-2.73,2-2.73,1.47-2.21,6.12-7.29,1-1,1.09-1.29,2.24-2.26,3.69-3.17,4.48-3.28,4.17-3,3.25-2,4-2.73,3.93-2.13,3.09-1.91,7-4.15,4.31-3.46,3.58-2.9,1.8-1.83,2-2.29,4-4.89,1.77-2.34.14-.25,1.42-2.13,1.31-2.1,1.15-2.08,1.06-2,1-2,.84-1.88.74-1.83.66-1.77.54-1.72.52-1.61.41-1.59.33-1.53.27-1.42.19-1.39.19-1.28V300.67l-.3-2.73-.38-1.93-.87-2.74-.79-2.21-1.26-3.16-1.39-2.73-3.14-4.56-1-1.23-1.42-1.37-2.27-2.4-3.19-3.16-5.22-4-1.88-1.23L1456,264l-2.59-1.37-3.14-1.55-3.63-1.42-4.62-1.45-5.29-1.34-6-1.39-6.72-1h-2.23l-3.66-.58-6.91-.3-.93.17s-19.38-3-16.84,23.15l-.35,32-.71,52.22v2.73l-.6,2.84v6.06l.16,2-.25,1.61.3,2.3V384l-.13,4.62-.14,5V396l-.14,1.72V434.9l.2,7.32.13,1.31.27,4.75.2,2,.9,5.24c1.91,5.22,3.09,9.56,6.9,13.83a36.66,36.66,0,0,0,11.34,8.58c3.54,1.71,5,2.09,5.43,6.15l-.8,3.22-.38,1.23-.74,1.06-1.2,1.15-1.12.57-.92.25h-2.24l.62,0-6.46.2-81.49-.36h-2.27l-1.8-.63-.85-.52-.6-.82-.4-.9-.28-2v-2l.41-1.56.71-1.12.63-.76,1.34-.93.57-.79,4.78-3,3.08-2.32,2.27-2,1.64-1.53,1.52-1.7,1.51-1.71.57-.85,2.46-4.72,1.44-3.61.28-1.31.41-1.31.65-3.22.49-3.52.71-6.14v-1.67l.22-3.36v-3.63l.14-148.28-.17-4.56-.13-1.34v-2.35L1341,274l-.28-1.28-.24-1.31v-2l-.74-3.22-1-2.73-1.67-3.9-.6-.82-2.54-3.85-2.92-3-2.1-1.45-2.32-1.09-3.36-1-1.53-.6-.74-.68-.3-.63-.13-.9v-5.9l.16-1.28.33-.9.46-.44.93-.41,2.24-.24h2.13l72.83.63h17.42l5.73.24h6.5l9.66.17,2.57.16h21.24l1.31.14h1.42l1.52.16,1.53.19,1.64.22,1.75.19,1.75.27,1.8.3,1.85.3,1.91.39,1.94.38,2,.44,2,.46,1.94.46,2.05.58,2.07.57,2.13.63,2.13.46,2.1.74,2.13.79,2.13.82,2.1.87,2.13,1,2.08,1,2.1,1.07,2,1.09,2,1.17,2,1.23,2,1.28,1.93,1.37,1.89,1.45,1.85,1.47,1.78,1.58,1.72,1.61,1.66,1.72,1.61,1.8,1.56,1.86,1.47,1.94,1.4,2,1.31,2.13,1.22,2.18,1.15,2.27,1,2.35,1,2.45.85,2.54.74,2.73.16.57.33,1.4.3,1.47.27,1.5.3,1.59.25,1.63.22,1.7.19,1.72.16,1.77V311l-.16,2-.25,2-.3,2-.35,2-.47,2-.52,2-.62,2-.74,2-.82,2-.9,1.94-1,2-1.12,1.94-1.25,1.88-1.4,1.88-1.47,1.83-1.61,1.8-.68,1.15-3.8,3.52-5,3.61-3.63,2.1-1.94,1.17-7,3.93-5,2.4-1.55.69-3.41,1.91-1.75.82-4.61,2.24-4.34,1.31-5.66,2.23-2.73,1-1.85.68-4,1.37-4.34,1.55-5.56,2,9.17,18.14,1.07,1.64,1.1,1.7,1.22,1.74,1.26,1.72,1.33,1.77,1.41,1.77,1.5,1.81,1.57,1.78,1.61,1.81,1.73,1.79,1.82,1.77,1.9,1.77c5.88,5.14,11.05,10.65,17.77,14.84,8.67,5.4,18.31,9,27.2,13.82l2.1,1.45,2.14,1.33,4.9,3.65,1.59,1.15,1.72,1.46,2.2,1.94,2.85,3,1.74,1.93,2.11,2,.93,1.36,1.13,1.21,3.85,5.45,1.85,3,1.76,3.18.87,2.1,1,3.75ZM1425.67,293.56c-.44-4.57.14-6.72.42-7.45l.24,0,2.65.65,1.46-.65,4.17.19,2.86.44,1.11.18h2.31l5.1.74,5.28,1.23,4.77,1.2,3.76,1.18,2.58,1,2.41,1.2,2,1.07.62.38.56,1.42.62,1.74.54,1.67.09.47.14,1.29v8.91l0,.19,0,.18-.14,1-.16.87-.23,1.07-.22.86-.39,1.19-.46,1.46-.46,1.24-.55,1.36-.63,1.41-.71,1.47-.88,1.62-.93,1.68-1,1.57-1.29,1.94-.07.11-1.17,1.54-3.66,4.5-1.54,1.76-.88.9-2.93,2.37-3.46,2.78-6.06,3.62-.22.13-2.72,1.68-3.55,1.92-1.28.78-3.76,2.56-3,1.86-.89.6-1.18.85.42-30.32.35-32v-.78Z"/><path d="M821.38,121.35a1.21,1.21,0,0,1-.93,1h-39a1,1,0,0,1-.83-.93v-.08c.08-.55.31-.78.74-.85h39a1.06,1.06,0,0,1,1,.84Z"/><path d="M821.38,111.17a1.22,1.22,0,0,1-.93,1h-39a1,1,0,0,1-.83-.93v-.09a1,1,0,0,1,.84-1.05l38.82,0a1.26,1.26,0,0,1,1.11,1Z"/><path d="M810.39,86.53c0,.49-.28,2-.94,2H793.29c-.41-.16-.73-.9-.87-2.06-.09-.8-.09-1.78.33-1.84h17.49A2.84,2.84,0,0,1,810.39,86.53Z"/><path d="M1072,47.51H635.85a63.22,63.22,0,0,0,0,126.44H1072a63.22,63.22,0,1,0,0-126.44ZM652.13,105a2.08,2.08,0,0,1-.06.24c-3.39-2.31-5.2-5-5.55-8.25s.92-6.29,3.87-9.3c7.21-7.28,14.48-14.75,21.59-22.21a9.13,9.13,0,0,1,6.9-2.78h.28a12.73,12.73,0,0,1,8.23,3.4c7.4,7.53,14.72,15.39,21.75,23.37a9.9,9.9,0,0,1,2,8.09,8.45,8.45,0,0,1-5.2,6.75l-.09,0c-.29-7.29-4.39-11.18-11.89-11.25h-8.3c-1.56-2.15-3.29-4.6-5.22-7.35l-.24-.24a1.91,1.91,0,0,0-2.21,0l-.21.19q-3.72,4.68-5.84,7.4h-9.57C657.73,93.21,652.2,95.43,652.13,105Zm55,37.36a23.9,23.9,0,0,1-3.59,9.69c-2.11,4.72-5.45,7.08-10.18,7.21H663.21c-4-.06-5.92-1.79-6-5.42V106.13c-.25-4.86,1.51-7.41,5.41-8h31.16c4.62,0,6.86,2.06,7,6.44l0,25.51a.29.29,0,0,1-.14.05C694,129,689.57,131,687.61,136h-5.68c-.87,0-3.52,0-3.79-6.44v-2.4c.12-2.67.66-4.45,1.63-5.3a2.74,2.74,0,0,1,2.16-.56h1.27a2.92,2.92,0,0,0,2.84-2.06l0-3.52a2.4,2.4,0,0,0-2.32-2.53h-8.55l-.2,0a2.49,2.49,0,0,0-1.89,1.84l0,27.34,0,.26a2.94,2.94,0,0,0,2.89,2.07h11.47c1.29-.1,2.35-1,3.14-2.65.64-1.35,1.26-2.59,1.88-3.76,1-2,2.38-3.05,4.19-3.17a14.07,14.07,0,0,1,6.22,1.14C706,137.77,707.33,139.74,707.1,142.34Zm-.45-10.51V109.6a10.59,10.59,0,0,0,8.05-6.28,16.17,16.17,0,0,0,1.72-8.66,13.17,13.17,0,0,0-2.66-7.6Q710,82.71,706.65,79v-.18c.18-1.86,1.07-4.28,6.64-4.07h3.49c6.14-.28,6.94,2.18,7,4v53c-.54,3.54-2.76,5-7,4.73h-3.69C709.11,136.56,707.06,135.06,706.65,131.83Zm34,18.12c-.06,6.18-3.1,9.22-9.28,9.29H716.17c-2.2-.08-5.12-.86-5-6.84v-3.33c-.37-4.69,1.25-7.1,5-7.58h1.44c4.52-.08,7.73-1.17,9.55-3.23a8.05,8.05,0,0,0,1.72-6.43V78.93c.21-4.19-1.9-7-6.11-8.27v-.09c.07-2.46,1.23-3.15,2.1-3.46a13.71,13.71,0,0,1,5.14-.76h3.32c6.09-.43,7.14,2.26,7.39,4.19Zm35.42-6.58a118.82,118.82,0,0,1-11.23,14.87c-2.86,2.49-6,2.41-9.58-.17-2.76-2.7-3.24-5.19-1.53-7.79,3.56-4.89,7.11-9.67,10.56-14.21,3.07-3.48,6.49-3.44,10.75.13C777.19,137.9,777.5,140.28,776.11,143.37Zm33.47-12a19,19,0,0,1-5.67-3.46l-.14-.09c-3.7-2-7-2.44-9.8-1.21a10.86,10.86,0,0,0-5.44,4.76H776.58c-4.09-3.24-8.32-3.69-12.61-1.28l-.13.07a7.36,7.36,0,0,1-1.34-3.59V108.42c0-4,1.8-6,5.61-6.23h64.35c4,0,6,1.74,6.23,5.41v18.1a6,6,0,0,1-1.57,4.38,6.17,6.17,0,0,1-4.66,1.26ZM811,147.41c-1.26,1.81-2.68,2.71-4.33,2.77a6.3,6.3,0,0,1-4.28-1.27c-2-1.92-3.63-3.42-4.89-4.48s-2.62-2.21-4-3.41c-2.27-2.63-2.22-5,.28-7.68a4.21,4.21,0,0,1,3.65-2.26,7.91,7.91,0,0,1,3.66,1.1,58.85,58.85,0,0,1,10.61,8.6C813,142.43,812.74,144.61,811,147.41Zm14.26,10.91a8,8,0,0,1-4.36,1.33h-32.6q-3.12.07-4.58-1.3a5.66,5.66,0,0,1-1.42-4.11V141.81a4.58,4.58,0,0,1,3.82-5c.45.08.61.23.67.35-.44,2.54.56,4.94,3,7.13,4,3.67,7.87,7,11.55,9.88a9,9,0,0,0,7.37.76,11.75,11.75,0,0,0,6.71-5,14.09,14.09,0,0,0,2-8.72.94.94,0,0,1,.17-.18h2.76a89,89,0,0,1,7.07,10.34V154C827.17,156.07,826.49,157.49,825.21,158.32Zm20.87-1.61c-4.46,2.41-7.67,2.1-9.79-.9a148.65,148.65,0,0,0-9.87-14.58,3.75,3.75,0,0,1-.75-3c.16-1.51.82-1.73,1.17-1.8H832a11.43,11.43,0,0,0,7.15-1.7c.15-.07.17-.06.18,0a76.6,76.6,0,0,1,9.23,13.83C850.07,152,849.27,154.66,846.08,156.71ZM846,103.45h-2.74c-1.88-4.75-5.88-6.87-11.83-6.32H769.15C764,97,760.58,98.71,759,102.22h-3.37a4.87,4.87,0,0,1-3.41-1.5,4.61,4.61,0,0,1-.68-3.51v-2c.39-4.59,2.43-5,4-4.88h14.25l.25,0c.82-.23,2.12-1,1.66-3.63-.12-1.18-.4-3.83-2.11-3.83h-9.12c-3.33-.18-4.93-1.84-5-5.21V75.1c.29-3.35,1.9-5,5-5.08h25.45l.22,0a2.21,2.21,0,0,0,1.67-1.67l0-.11V66.92c.11-2.28,1-3.61,2.73-4.18a20.05,20.05,0,0,1,6.55-.87H803a26.13,26.13,0,0,1,7.57.88,4.2,4.2,0,0,1,3.32,4.13V68.1l0,.31A2.44,2.44,0,0,0,815.77,70l26.64,0c.71,0,2.85.07,3.2,5.41v2.41c-.15,4.3-1.92,4.94-3.17,5h-10c-1.17.07-2.57.84-2.68,4.12-.09,2.11.45,3.25,1.71,3.38h14.62c1.44.07,3.39.69,3.63,5.21v2.53C850,101.15,848.81,102.85,846,103.45Zm51.17-32.68v77.42c.1,2.94-.47,5-1.71,6.14-1.05,1-2.67,1.33-4.92,1.07h-10c-3.7-.54-5.33-2.84-5.14-7.25v-2.07a12.61,12.61,0,0,1,1.09-5.8,4.21,4.21,0,0,1,3.91-2.44h2c2.62,0,4.1-1.23,4.19-3.74v-5.55l0-.07a1.67,1.67,0,0,1,.29-.39c3.86-2.93,6-6.3,6.26-10.08V116.3a11.13,11.13,0,0,0-6.48-9.45l.06,0c5.68-2.66,8.59-6.49,8.66-11.41V93.73a8.77,8.77,0,0,0-3.21-6.38,28.7,28.7,0,0,0-6-3.93l.08,0V81.8a3.84,3.84,0,0,0-.95-3.09A2.69,2.69,0,0,0,883,78h-1.89a2.4,2.4,0,0,0-2.47,2.53v.67l-2.33-.36-.11,0c-2.44.22-4.6,1.67-6.41,4.3A13.92,13.92,0,0,0,867,92.56v1.52c.3,3,1.51,5,3.46,5.75l6.83,4.44-1.05-.18h-1.94a8.39,8.39,0,0,0-6.25,4.29c-1.53,2.48-2.28,4.43-2.28,6v1.16a6.34,6.34,0,0,0,2.11,5.4,27.3,27.3,0,0,0,9.43,6.08c.09,0,.23.1.27.4v5.29c0,.16,0,.17,0,.17a10,10,0,0,0-6.08,5.52,17.63,17.63,0,0,0-1.66,7.75v1.36a12.77,12.77,0,0,0,2.28,8.36,9.14,9.14,0,0,1-7.43,1.8,12,12,0,0,1-6.06-1.81c-1.25-.9-1.6-2.55-1.07-5a229.92,229.92,0,0,0,5.32-49.07V70c.48-5.29,3.09-5.9,5-5.9H893.8a18,18,0,0,1,5.59.55A6.15,6.15,0,0,0,897.18,70.77Zm-9.64,19.84c2.43,2.16,2.82,4.8,1.22,8-1.84,3-4.23,3.51-7.6,1.49-2.09-1-4-2-5.61-2.79-1.89-1.22-3-2.54-3.24-3.92A5.78,5.78,0,0,1,873.75,89l.1-.16A4.87,4.87,0,0,1,876.58,86a3.4,3.4,0,0,1,1.08-.17,8,8,0,0,1,3.77,1.23A32.32,32.32,0,0,1,887.54,90.61Zm-2.3-7,.81-.21a.33.33,0,0,1,.08.17Zm.47,29.39c2.47,2.4,2.74,5.15.79,8.43-1.13,2-2.66,2.48-5,1.42a39.54,39.54,0,0,1-7.63-3.62,4,4,0,0,1-2.18-2.28c-.45-1.39-.06-3.3,1.09-5.56a4.66,4.66,0,0,1,3.91-2.21,7.92,7.92,0,0,1,3,.69A34.79,34.79,0,0,1,885.71,113ZM953,153.22c-3.16,3.16-6.15,3.46-9.41.94a67.5,67.5,0,0,1-6.34-5.51,2,2,0,0,0-2.47,0l-.15.14a61.68,61.68,0,0,1-5.83,5.83c-4,3.59-8.29,3-13.19-1.77-2.43-2.74-2.55-5.28-.43-7.94,3.06-3.12,5.88-6.22,8.39-9.21l.14-.22a2.69,2.69,0,0,0-.08-2.28,53.57,53.57,0,0,1-5.41-10.63c-1.52-3.77-.37-6.38,3.64-8.23a8.93,8.93,0,0,1,3.88-1,6.1,6.1,0,0,1,5,2.84l1.55,1.94a1.85,1.85,0,0,0,2.22,1.22l.81-.21.3-.14a2.58,2.58,0,0,0,.69-3.78l-.84-1.69-1.25-2.08a7.92,7.92,0,0,0-7-3.8,18.17,18.17,0,0,0-8,2.09c-6.69,3.57-8.68,8.75-5.87,15.46a88.24,88.24,0,0,1,4,8.76,1.85,1.85,0,0,1,0,.45,71.45,71.45,0,0,1-6.53,7.49,7.69,7.69,0,0,0-2.06,5.29v2.26a10.76,10.76,0,0,0,2.46,6.6l-3.39.62h-1.39c-3-.11-4.29-1.34-4.23-4V71c.18-4.24,2.24-6.29,6.43-6.47h36.27c4.1-.17,6.2,1.43,6.61,4.8V92.07c-.3,3.06-1.95,4.48-5.22,4.48H928.85a4.76,4.76,0,0,1-3.52-1.22,5.38,5.38,0,0,1-1.1-4v-2c.08-4.47,1.84-4.58,2.36-4.62h6.79a1.49,1.49,0,0,0,1.85-1.3V80.84a1.68,1.68,0,0,0-1.71-1.6h-12A3.49,3.49,0,0,0,917.78,82l0,.11V99.65a2.34,2.34,0,0,0,2.31,2h24.51c2.89-.24,5,.23,6.36,1.37a5.86,5.86,0,0,1,1.83,4.26v2.64a30.43,30.43,0,0,1-1.2,8.39,52.41,52.41,0,0,1-4.77,14.54,2,2,0,0,0,0,2.39l.2.23a46.88,46.88,0,0,1,6.4,6.2C956.81,145.52,956.68,149.33,953,153.22Zm95.08-7c0,4.95-1,8.5-3.21,10.54-1.79,1.69-4.43,2.43-7.9,2.19h-21.13c-3.41-.18-5.76-1-7-2.48a5.62,5.62,0,0,1-.94-4.57v-2.75c.31-2.85,1.23-4.89,2.71-6s3.45-1.47,6.17-1.1h11c.49,0,2.12-.18,2.11-2.48s.27-4.61.41-6.47a2.67,2.67,0,0,0-.55-2.09,3.22,3.22,0,0,0-2.38-.94h-15a1.89,1.89,0,0,0-1.5,1.54,99.85,99.85,0,0,1-26,27,8.92,8.92,0,0,1-10-.68c-4.66-4.15-5-8.18-1-12.69a78.06,78.06,0,0,0,13.79-11.37,2.77,2.77,0,0,0,.62-2.4,1.71,1.71,0,0,0-1.37-1l-.09,0h-2.24c-3.9-.42-5.72-2.34-5.72-6v-2.14c.56-5.17,2.9-7.38,7.45-6.94h8.09a2.18,2.18,0,0,0,2-2.15c2.11-6.24,5.58-9,10.69-8.43,3.77.1,6.3,1,7.53,2.59,1,1.3,1.19,3.21.59,5.65a2.09,2.09,0,0,0,.27,2,1.53,1.53,0,0,0,1.51.36h22.33c3.1-.08,5.44.61,7,2.09s2.38,3.85,2.48,7C1048.74,131.39,1048.53,138.71,1048.12,146.18Zm13.25-36.39c-.7,4.76-2.89,7.92-6.7,9.65-.49.08-.63,0-.63,0a.39.39,0,0,1,0-.2l0-.19c-1.8-6.1-6.66-9.19-14.44-9.19h-18.19a1.3,1.3,0,0,1-.49-.07c.3-3.45-.87-6.06-3.5-7.78a15.93,15.93,0,0,0-8.84-2.54h-2.88c-4.15.15-7.42,1.36-9.71,3.62a20.33,20.33,0,0,0-4.73,7.18h-7.12c-5,0-8.31,2.11-9.8,6.29l-.06.31a1,1,0,0,1-.22.74,1.94,1.94,0,0,1-1.42.19c-5.28-.62-7.82-3.78-7.76-9.76-.31-4.25,1.34-6.61,5.11-7.39a134.78,134.78,0,0,0,26-5.58,1.72,1.72,0,0,0,.77-2.5,19.07,19.07,0,0,0-2.78-3.42l-.32-.21a3.13,3.13,0,0,0-2.53.23,80.78,80.78,0,0,1-9.24,3.62c-4.32,1.29-7.23.31-8.88-2.92a14.51,14.51,0,0,1-1-6.09c.11-1.81,1.15-3.18,3.16-4.19A221.37,221.37,0,0,0,999,65.86a24.34,24.34,0,0,1,7.31-3.49c2.37-.64,4.77-.1,7.35,1.66a15.82,15.82,0,0,1,3.85,3.85l.27.38h23.87c3.09,0,5.09.71,6,2s.7,3.34-.41,6a119.87,119.87,0,0,1-11.52,16.77l-.13.22c-.75,1.75-.23,2.56.33,2.93l.23.11c6.63,2.1,13.17,3.89,19.37,5.3C1059.87,102.86,1061.79,105.54,1061.37,109.79Z"/><path d="M1016.93,85.35c-.83.37-1.46.47-1.75.25a60.4,60.4,0,0,1-4.58-4.51h10A39.23,39.23,0,0,1,1016.93,85.35Z"/><rect class="cls-1" width="1728" height="840"/></g></g></svg>