<svg id="Layer_1" data-name="Layer 1" xmlns="http://www.w3.org/2000/svg" viewBox="0 0 1728 840"><defs><style>.cls-1{fill-rule:evenodd;}</style></defs><title>Logo4-Black</title><g id="Logo4-Black"><g id="Logo4-Copyright-Black"><polygon id="Logo4-CopyrightW-Black" points="1481.95 698.33 1486.83 680.05 1491.57 698.33 1499.1 698.33 1506.99 666.35 1499.52 666.35 1495.42 683.81 1490.83 666.35 1483.14 666.35 1478.44 683.67 1474.44 666.35 1466.54 666.35 1474.47 698.33 1481.95 698.33"/><path id="Logo4-CopyrightCircle-Black" d="M1486.77,643.83a36.82,36.82,0,1,0,36.81,36.82A36.86,36.86,0,0,0,1486.77,643.83Zm0,7.46a29.36,29.36,0,1,1-29.36,29.36A29.39,29.39,0,0,1,1486.77,651.29Z"/></g><g id="Logo4-TitleShape-Black"><path id="Logo4-CharacterShape3-Black" class="cls-1" d="M1261.79,405.32c-15.49,0-25.14,11.15-27.92,25h48.2C1281.58,416.23,1276.18,405.32,1261.79,405.32Z"/><path id="Logo4-CharacterShape2-Black" class="cls-1" d="M937.63,405.32c-15.49,0-25.13,11.15-27.93,25h48.21C957.42,416.23,952,405.32,937.63,405.32Z"/><path id="Logo4-CharacterShape1-Black" class="cls-1" d="M444.8,406.77c-18.32,0-29.76,22.06-29,42.89.56,16,8.4,28.1,21.93,28.1,21.16,0,29.59-20.59,28.73-45.3C465.85,416,458.11,406.77,444.8,406.77Z"/><path id="Logo4-TitleBackground-Black" class="cls-1" d="M1516.19,399.14l-1.46-19.88-2.52-19.6-3.44-19.21-4.37-18.94L1499.1,303l-6.23-18.28-7-17.75-7.95-17.36-8.61-16.95-9.54-16.3-10.2-16-11-15.37-11.65-14.7-12.32-14.31-13.12-13.64-13.64-13L1373.51,117l-14.84-11.65-15.37-11-16-10.2-16.42-9.41-17-8.6-17.49-8-17.88-7-18.28-6.22-18.68-5.3-18.94-4.37-19.48-3.45-19.6-2.52-20-1.45-20.27-.53-20.13.53-20,1.45-19.6,2.52-19.34,3.45-19,4.37-18.68,5.3L988.4,51.12l-17.88,7-17.36,8-16.82,8.6-16.43,9.41L904,94.31l-15.37,11L873.81,117l-13.25,11.52L847.32,117l-14.84-11.65-15.37-11-15.89-10.2L784.79,74.7,768,66.1l-17.35-8-17.88-7L714.58,44.9,695.9,39.6,677,35.23l-19.34-3.45L638,29.26l-20-1.45-20.14-.53-20.26.53-20,1.45L538,31.78l-19.48,3.45L499.57,39.6l-18.68,5.3-18.28,6.22-17.89,7-17.48,8-17,8.6-16.43,9.41-16,10.2-15.36,11L347.62,117l-14.31,12.32-13.64,13-13.12,13.64-12.32,14.31-11.66,14.7-11,15.37-10.2,16-9.54,16.3-8.61,16.95-7.95,17.36-7,17.75L222,303l-5.3,18.55-4.37,18.94-3.44,19.21-2.52,19.6-1.46,19.88-.52,20.13.52,20.27,1.46,20,2.52,19.6,3.44,19.48,4.37,18.94,5.3,18.68,6.23,18.28,7,17.88,7.95,17.49,8.61,17,9.54,16.42,10.2,16,11,15.36,11.66,14.84,12.32,14.31,13.12,13.64,13.64,13.12,14.31,12.32,14.84,11.65,15.36,11,16,10.2,16.43,9.54,17,8.61,17.48,8,17.89,7,18.28,6.22,18.68,5.31,18.94,4.37L538,808.22l19.6,2.52,20,1.45,20.26.53,20.14-.53,20-1.45,19.61-2.52L677,804.78l18.95-4.37,18.68-5.31,18.15-6.22,17.88-7,17.35-8,16.83-8.61,16.43-9.54,15.89-10.2,15.37-11,14.84-11.65,13.24-11.52,13.25,11.52,14.84,11.65,15.37,11,15.89,10.2,16.43,9.54,16.82,8.61,17.36,8,17.88,7,18.15,6.22,18.68,5.31,19,4.37,19.34,3.44,19.6,2.52,20,1.45,20.13.53,20.27-.53,20-1.45,19.6-2.52,19.48-3.44,18.94-4.37,18.68-5.31,18.28-6.22,17.88-7,17.49-8,17-8.61,16.42-9.54,16-10.2,15.37-11,14.84-11.65,14.31-12.32,13.64-13.12,13.12-13.64,12.32-14.31,11.65-14.84,11-15.36,10.2-16,9.54-16.42,8.61-17,7.95-17.49,7-17.88,6.23-18.28,5.3-18.68,4.37-18.94,3.44-19.48,2.52-19.6,1.46-20,.53-20.27Zm-171.48-72.56h39.69l-5,32h-39.7ZM366.38,501.75c-9.91,3.63-26.38,6.54-40.34,6.54-48.21,0-78.31-31.25-80-78.74-1.95-56,31.76-96.18,89.57-96.18,21.59,0,39.81,3.14,54,9L381.22,377c-10.92-6.79-22-10.18-38.09-10.18-41,0-56.25,32-55.13,64,1,28.1,16.8,44.1,43.42,44.1,14.17,0,27.58-3.39,38.06-9.45Zm70,6.54c-39,0-59.9-22.53-61.13-57.9-1.53-43.86,26-74.14,70.7-74.14,35.77,0,59.87,21.8,61.09,56.69C508.69,481.15,482.81,508.29,436.35,508.29Zm195.44-35.86c-.88,5.82-2.8,19.63-3.65,32.95H591.72l2.33-20.59h-.43c-12.93,17.2-25.8,23.5-42.81,23.5-22.25,0-36.17-17.69-37.08-43.61-.38-10.9.91-17.93,2.48-29.07l8.06-56.45h40.57L556,438.27c-1.06,7-2.17,12.84-2,18.9.24,6.78,3.79,14.78,15.14,14.78,19,0,26.19-18.17,28.32-32.22l9.44-60.57H646.2Zm143.59-25.92L767,505.38H726.4l8.84-59.11c1-7.51,2.16-13.09,2-19.14-.19-5.33-2.91-14.54-15.12-14.54-22.91,0-27.44,26.41-28.32,32.46l-9.45,60.33H645l14.05-91.09c1.43-9,3.34-23.26,4-35.13h36.42l-2.33,20.59h.43c12.93-17.2,25.79-23.5,42.81-23.5,22.46,0,36.18,17.93,37.07,43.61C777.87,430.28,776.8,437.06,775.38,446.51Zm83.77,59.36c-14.54,2.18-20,2.42-25,2.42-25.08,0-36.17-11.39-36.92-33a92.28,92.28,0,0,1,1.33-17.93l7.28-47.73H784l4.82-30.52h22L815.17,352l41.23-12.36-6.47,39.5h27.48l-4.82,30.52H845.1l-7.29,47.25a60.19,60.19,0,0,0-.74,9.93c.31,9,4.35,12.36,12.86,12.36,4.14,0,9.77-1.21,12.38-1.7ZM988.66,455H908.17c.94,14.29,8.26,24.23,31.17,24.23,11.56,0,25.19-3.15,35.47-8.73l-3.95,30.78c-13.58,4.6-27.89,7-39.45,7-34.68,0-59.23-22.05-60.52-58.87-.83-24,12.49-73.17,65.5-73.17,33.38,0,53.07,20.35,54.27,54.75C990.92,438.51,989.39,450.87,988.66,455Zm51.24-9.94-9.45,60.33H991.18l14.05-91.09c1.44-9,3.35-23,4-35.13h36.42l-3.45,25.92h.43c7-17.44,19.71-28.83,34.11-28.83a40.51,40.51,0,0,1,16.69,3.15l-7.6,38.52c-5.4-4.6-11.53-5.33-18.07-5.33C1051.85,412.59,1042.75,426.64,1039.9,445.05Zm149.93-7.75h-58.89l-10.5,68.08h-41l26.38-169.11h101.87l-4.56,32h-61.94l-6.35,37.07h59.77Zm123,17.69h-80.49c.93,14.29,8.26,24.23,31.16,24.23,11.56,0,25.2-3.15,35.47-8.73L1295,501.27c-13.58,4.6-27.89,7-39.45,7-34.69,0-59.23-22.05-60.52-58.87-.83-24,12.5-73.17,65.5-73.17,33.38,0,53.06,20.35,54.27,54.75C1315.08,438.51,1313.54,450.87,1312.82,455Zm44.24,50.39h-39.71l19.16-126.22h39.69Zm110.7-95.7h-27.48l-7.3,47.25a61.42,61.42,0,0,0-.75,9.93c.32,9,4.37,12.36,12.88,12.36,4.14,0,9.77-1.21,12.37-1.7l-3.15,28.35c-14.55,2.18-20,2.42-25,2.42-25.08,0-36.16-11.39-36.92-33a90.8,90.8,0,0,1,1.34-17.93l7.27-47.73H1379.2l4.82-30.52h22l4.29-27.14,41.23-12.36-6.47,39.5h27.48Z"/></g></g></svg>