<svg id="Layer_1" data-name="Layer 1" xmlns="http://www.w3.org/2000/svg" viewBox="0 0 1728 840"><title>Logo6-Black</title><g id="Logo6-Black"><g id="Logo6-W-Black"><path id="Logo6-W-Shape19-Black" d="M1588.41,677.4l-197.08,0-12.91-36.68c-.1,0,209.93,0,209.93,0S1588.47,677.4,1588.41,677.4Z"/><polygon id="Logo6-W-Shape18-Black" points="1022.53 640.8 1234.81 640.8 1221.72 677.4 1022.53 677.4 1022.53 640.8"/><polygon id="Logo6-W-Shape17-Black" points="1354.04 572.08 1588.43 572.08 1588.43 608.56 1366.87 608.56 1354.04 572.08"/><path id="Logo6-W-Shape16-Black" d="M1022.53,572.13h236.61s-12.9,36.4-12.84,36.42H1022.53Z"/><polygon id="Logo6-W-Shape15-Black" points="1342.64 539.89 1329.7 503.29 1518.54 503.29 1518.54 539.89 1342.64 539.89"/><polygon id="Logo6-W-Shape14-Black" points="1283.33 503.29 1270.34 539.88 1092.69 539.83 1092.69 503.37 1283.33 503.29"/><path id="Logo6-W-Shape13-Black" d="M1413.65,463.77s0-27.7,0-27.76h104.91v36.43H1318.63l-12.41-34s-12,34-12,34H1092.76V436h104.39c0,.06.06,27.76.06,27.76l9.65-27.76,197.14.06Z"/><path id="Logo6-W-Shape12-Black" d="M1413.65,403.77h104.89V367.35s-104.93,0-104.93,0S1413.5,403.77,1413.65,403.77Z"/><path id="Logo6-W-Shape11-Black" d="M1218.23,403.77c.48.06,12.22-36.41,12.71-36.42l148.7-.07c.12.06,13.07,36.55,13.08,36.49Z"/><rect id="Logo6-W-Shape10-Black" x="1092.76" y="367.35" width="104.38" height="36.42"/><rect id="Logo6-W-Shape9-Black" x="1413.65" y="298.68" width="104.89" height="36.42"/><path id="Logo6-W-Shape8-Black" d="M1255.36,298.49c0,.17-12.87,36.64-13.07,36.6h126.4c.23,0-13-36.43-13-36.43S1255.39,298.35,1255.36,298.49Z"/><rect id="Logo6-W-Shape7-Black" x="1092.77" y="298.66" width="104.37" height="36.43"/><rect id="Logo6-W-Shape6-Black" x="1413.65" y="231.4" width="174.78" height="36.44"/><polygon id="Logo6-W-Shape5-Black" points="1278.85 231.4 1332.17 231.4 1344.96 267.84 1266.52 267.84 1278.85 231.4"/><rect id="Logo6-W-Shape4-Black" x="1022.55" y="231.4" width="174.6" height="36.44"/><rect id="Logo6-W-Shape3-Black" x="1413.65" y="162.57" width="174.78" height="36.59"/><polygon id="Logo6-W-Shape2-Black" points="1303.02 162.65 1307.92 162.65 1320.38 199.16 1290.22 199.16 1303.02 162.65"/><rect id="Logo6-W-Shape1-Black" x="1022.55" y="162.57" width="174.6" height="36.59"/></g><g id="Logo6-F-Black"><path id="Logo6-F-Shape8-Black" d="M826.64,641s-.11,36.35,0,36.35-247.94.15-248,.07.06-36.52,0-36.52S826.53,641.1,826.64,641Z"/><path id="Logo6-F-Shape7-Black" d="M578.64,572.15v36.43h248c.11,0-.11-36.41,0-36.41Z"/><rect id="Logo6-F-Shape6-Black" x="647.99" y="504.88" width="106.48" height="36.42"/><path id="Logo6-F-Shape5-Black" d="M980.05,472.64V436.21H648.36s.08,36.42,0,36.42Z"/><rect id="Logo6-F-Shape4-Black" x="647.82" y="367.54" width="332.27" height="36.43"/><rect id="Logo6-F-Shape3-Black" x="647.82" y="300.27" width="106.67" height="36.42"/><rect id="Logo6-F-Shape2-Black" x="578.65" y="231.43" width="401.44" height="36.42"/><rect id="Logo6-F-Shape1-Black" x="578.65" y="162.59" width="401.44" height="36.6"/></g><g id="Logo6-C-Black"><path id="Logo6-C-Shape8-Black" d="M264,677.41c-32.48-3.13-60.72-14.7-84.77-36.66,0,0,357.24,0,357.24,0v36.67Z"/><path id="Logo6-C-Shape7-Black" d="M151.41,608.57c-4.71-12-10.29-22.31-10.29-36.42H536.4v36.42Z"/><rect id="Logo6-C-Shape6-Black" x="141.48" y="504.88" width="106.48" height="36.42"/><rect id="Logo6-C-Shape5-Black" x="141.48" y="436.22" width="106.48" height="36.42"/><rect id="Logo6-C-Shape4-Black" x="141.48" y="367.35" width="106.48" height="36.42"/><rect id="Logo6-C-Shape3-Black" x="141.48" y="298.6" width="106.48" height="36.42"/><path id="Logo6-C-Shape2-Black" d="M139.57,267.85c2.61-12,5-26.67,13.78-36.45l3.28,0H536.42v36.43Z"/><path id="Logo6-C-Shape1-Black" d="M536.47,162.65v36.46l-359.34,0c24.06-23,57.07-36,92.61-36.5l266.68.08"/></g></g></svg>