<svg id="Layer_1" data-name="Layer 1" xmlns="http://www.w3.org/2000/svg" viewBox="0 0 1728 840"><title>Logo2-Black</title><g id="Logo2-Black"><path id="Logo2-O2-Black" d="M1454.2,182.52a20.51,20.51,0,0,0-1-2.25,20.87,20.87,0,0,0-12.49-10.71c-.66-.2-1.32-.37-2-.51a20.84,20.84,0,0,0-22.51,30.23l0,.06c.11.21.25.41.37.61a21.18,21.18,0,0,0,3.21,4.19A20.82,20.82,0,0,0,1455,185.23,20.46,20.46,0,0,0,1454.2,182.52Z"/><path id="Logo2-O1-Black" d="M578.44,227.28a20,20,0,0,0,4-.4c.56-.12,1.11-.25,1.65-.41a19.77,19.77,0,0,0,14.06-18.88,19.05,19.05,0,0,0-.1-2c0-.15,0-.29-.06-.44-.07-.51-.13-1-.24-1.51a19.55,19.55,0,0,0-3.71-8,19.88,19.88,0,0,0-1.65-1.9,20.27,20.27,0,0,0-1.78-1.56,19.34,19.34,0,0,0-2.12-1.45,19.77,19.77,0,0,0-10-2.76,19.68,19.68,0,0,0-19.68,19.68,19.38,19.38,0,0,0,.1,2A19.68,19.68,0,0,0,578.44,227.28Z"/><path id="Logo2-TitleShape-Black" d="M1503.24,239.08a69.6,69.6,0,0,0,10.81-14l.41-.67.21-.37a70.84,70.84,0,0,0-55-107v-.21l-4.28,0H1344.83L1333,128.3V116.8H904.74v26.89l-77.17-18.55V116.8H744.66v29.88L713.85,116.8H630.94v7.73a98,98,0,0,0-116.3,8.36A222,222,0,0,0,370.58,79.71c-122.37,0-221.92,99.55-221.92,221.92a225.08,225.08,0,0,0,66.86,159.24l-.09.08,63.15,63.15a219.34,219.34,0,0,0,117.06,61.2V760.8h1.06v.46l81.74,79H694.77V703h95.52l-1.9-1.84,0-98.11h290.36l81.74-79v-.45h1.07V467l56.71-54.92h.64v-.62l.47-.45h.6v-.58l.5-.49h-.5V385.79H1497.2l82.14-79.49Zm-495.2-118H1192.5v68.38h-58.41V302H1029.3V189.47H1008ZM827.57,207.6V129.54L909,149.12v-28h94.76v68.38h0V302H936.48l-7-6-57.83-49.75h0V302h-79.3V282.89A98.15,98.15,0,0,0,827.57,207.6ZM635.22,121.08h74.35v86.51c0,.68,0,1.35.1,2a19.69,19.69,0,0,0,19.59,17.67,19.92,19.92,0,0,0,4-.4c.56-.12,1.11-.25,1.66-.41a20.14,20.14,0,0,0,2.94-1.15,19.68,19.68,0,0,0,11.12-17.73V121.08h74.35v7.43h0V207.6c0,1.41,0,2.82-.09,4.22s-.14,2.62-.26,3.92a93.51,93.51,0,0,1-21,51.56q-2.86,3.48-6,6.67c-1.13,1.14-2.29,2.24-3.48,3.32-1.38,1.26-2.82,2.45-4.28,3.63a93.64,93.64,0,0,1-58.84,20.71,95.76,95.76,0,0,1-10.22-.56c-2.67-.29-5.31-.7-7.91-1.2-2.24-.44-4.46-1-6.64-1.56s-4.09-1.19-6.09-1.88c-1.06-.37-2.12-.76-3.16-1.17a94.09,94.09,0,0,1-38.7-28,98.13,98.13,0,0,0-21.32-139.81Zm-56.78-7.52a93.58,93.58,0,0,1,52.5,16c1.46,1,2.88,2,4.28,3.08a94.34,94.34,0,0,1,22.18,23.9c.85,1.32,1.67,2.65,2.46,4,.9,1.55,1.75,3.14,2.56,4.74q1.4,2.76,2.6,5.61,1.5,3.53,2.7,7.17.6,1.83,1.14,3.69a94,94,0,0,1,3.62,25.83q0,3.94-.32,7.82c-.22,2.57-.53,5.12-.95,7.64-.21,1.25-.44,2.5-.7,3.74a93.53,93.53,0,0,1-16.66,37h0c-.87,1.17-1.77,2.31-2.7,3.44a93.94,93.94,0,0,1-52.38,32.2c-1.39.31-2.8.59-4.22.83a91.06,91.06,0,0,1-10.65,1.22c-1.81.11-3.63.16-5.46.16a95.57,95.57,0,0,1-10.21-.56c-2.68-.29-5.31-.7-7.91-1.2-2.25-.44-4.46-1-6.65-1.56s-4.08-1.19-6.08-1.88c-1.07-.37-2.12-.76-3.17-1.17a94.36,94.36,0,0,1-48.28-42.17,91.59,91.59,0,0,1-4.14-8.44l60.47-64.23,2.38-2.53-2-2.84a221.78,221.78,0,0,0-35-39.37A93.69,93.69,0,0,1,578.44,113.56ZM396.65,517.73a220,220,0,0,1-59.21-1q-10.81-1.65-21.25-4.34-5.22-1.35-10.33-2.94t-10.11-3.42q-5-1.83-9.88-3.9c-2.45-1-4.86-2.1-7.26-3.22q-7-3.26-13.64-7a217.59,217.59,0,0,1-112-190.35C152.94,181.43,250.38,84,370.58,84q9.45,0,18.69.79c2.06.18,4.1.38,6.14.61a218,218,0,0,1,24,4.11,215.51,215.51,0,0,1,27.5,8.27q8.91,3.34,17.44,7.42a218.23,218.23,0,0,1,47.08,30.56c1.08.92,2.15,1.84,3.21,2.78h0a219.46,219.46,0,0,1,21.63,22c4.62,5.43,9,11.07,13.08,16.94l-59.11,62.78L487,243.69l-29.79,31.65a51.12,51.12,0,0,0-32.42-23.1A52.05,52.05,0,0,0,414,251.07h0a50.64,50.64,0,0,0-17.39,3.07c-1.2.44-2.39.93-3.56,1.46a51.1,51.1,0,0,0-9.22,5.46c-.77.57-1.53,1.17-2.27,1.79a50.6,50.6,0,0,0-15.14,55.91c.27.76.57,1.52.88,2.26s.73,1.7,1.13,2.53c.54,1.12,1.13,2.21,1.75,3.28.24.43.48.85.74,1.26a50.74,50.74,0,0,0,16.28,16.41c.9.56,1.82,1.11,2.75,1.61a51.24,51.24,0,0,0,7.42,3.27c1,.33,2,.64,3,.92.77.22,1.56.42,2.35.6a49.65,49.65,0,0,0,8.42,1.2c1,.06,1.93.09,2.9.09h0a50.34,50.34,0,0,0,17.21-3c.77-.28,1.53-.58,2.28-.89a50.24,50.24,0,0,0,10.1-5.68A51.13,51.13,0,0,0,453.7,333l27.49,30.95A221.84,221.84,0,0,0,396.65,517.73Zm307.55-5.14a50.55,50.55,0,0,0-80.53-7.79l-.32.37a50.06,50.06,0,0,0-3.69,4.64c-.45.64-.88,1.29-1.3,1.95-.31.48-.61,1-.9,1.46a50.31,50.31,0,0,0-7,25.66H703v80.35H610.46v137.3H399.91V538.88q0-8.76.69-17.33c.12-1.47.25-2.94.39-4.4a216.28,216.28,0,0,1,13.69-57.21q1.5-3.87,3.15-7.66,1.1-2.52,2.26-5a217.58,217.58,0,0,1,38.81-57.35,220.35,220.35,0,0,1,16.66-16q4.13-3.54,8.41-6.89c1.13-.87,2.26-1.75,3.41-2.61a216.94,216.94,0,0,1,52.26-28.84q4-1.55,8.14-2.94A218,218,0,0,1,742.13,360.4c1.44,1,2.86,2,4.28,3.08l2,1.53q3.46,2.61,6.82,5.35a219.13,219.13,0,0,1,41.07,44.38l-49.93,53h0l-4.28,4.55Zm238.52,6.69H746.41V474l53-56.33,2.38-2.53-2-2.85a222.51,222.51,0,0,0-53.44-54V338.33H913.93v28H836.14v16.86h77.79v23.49H836.14v31.66h77.79l24.52,38.36,4.27,6.7,12.79,20,10.11,15.83Zm75.88-112.56h0V519.28H970.7L969.23,517l-26.51-41.48V338.33h75.88Zm197.08,0h-58.42V519.28H1052.47V406.72h-29.59V338.33h192.8ZM1349.11,302H1161.2V193.74h35.58V121.08h132v28h-77.79V166h77.79v23.48h-77.79v31.65h77.79l16.1,25.21,4.28,6.69,11.08,17.35L1380.41,302Zm128.13,0-11-7.92-40.71-29.19V302h-40l-1.47-2.3-34.91-54.64v-124h106.26v0A66.29,66.29,0,0,1,1479,126a65.5,65.5,0,0,1,8.56,4.24,69.33,69.33,0,0,1,5.94,3.93,67.14,67.14,0,0,1,14.81,15.19,68,68,0,0,1,4.67,7.68c.46.89.9,1.79,1.33,2.7a65.76,65.76,0,0,1,4.07,11.46,66.64,66.64,0,0,1-7.44,50.63c-.29.48-.58,1-.88,1.43a66.4,66.4,0,0,1-6.22,8.29,65.54,65.54,0,0,1-7.4,7.22l60.82,53.72L1568,302Z"/></g></svg>