<svg id="Layer_1" data-name="Layer 1" xmlns="http://www.w3.org/2000/svg" viewBox="0 0 1728 840"><title>Logo1-Black</title><g id="Logo1-Black"><polygon id="Logo1-W-Black" points="1339.25 443.89 1304.56 311.88 1246.47 311.88 1210.93 442.82 1180.72 311.88 1120.95 311.88 1180.89 553.64 1237.42 553.64 1274.37 415.5 1310.2 553.64 1367.11 553.64 1426.72 311.88 1370.27 311.88 1339.25 443.89"/><path id="Logo1-Circle-Black" d="M1273.85,127.21c-161.45,0-292.79,131.34-292.79,292.79s131.34,292.79,292.79,292.79,292.8-131.34,292.8-292.79S1435.3,127.21,1273.85,127.21Zm0,514.69c-122.36,0-221.9-99.54-221.9-221.9s99.54-221.9,221.9-221.9,221.91,99.54,221.91,221.9S1396.22,641.9,1273.85,641.9Z"/><path id="Logo1-F-Black" d="M895.63,127.33c-161.66,0-292.71,131-292.73,292.7V712.79h87.89V463.86H865.9v-88H695.59c20.22-91.86,102.1-160.61,200-160.61a207.33,207.33,0,0,1,28.91,2V128.75Q910.28,127.35,895.63,127.33Z"/><path id="Logo1-C-Black" d="M454.09,624.9c-113.13,0-204.84-91.71-204.84-204.84S341,215.22,454.09,215.22a207.07,207.07,0,0,1,28.9,2V128.75q-14.26-1.4-28.9-1.42c-161.68,0-292.74,131.06-292.74,292.73S292.41,712.79,454.09,712.79q14.63,0,28.9-1.42V622.86A207.07,207.07,0,0,1,454.09,624.9Z"/></g></svg>