<svg xmlns="http://www.w3.org/2000/svg" viewBox="0 0 1728 840"><defs><style>.cls-1{fill:none;}</style></defs><title>B-Logo-5</title><g id="Layer_2" data-name="Layer 2"><g id="Layer_1-2" data-name="Layer 1"><polygon points="915.65 653.01 938.96 653.01 938.96 749.6 915.65 749.6 915.65 771.61 984.27 771.61 984.27 749.6 960.96 749.6 960.96 653.01 984.27 653.01 984.27 631.01 915.65 631.01 915.65 653.01"/><polygon points="743.73 631.01 743.73 653.01 767.04 653.01 767.04 749.6 743.73 749.6 743.73 771.61 877.61 771.61 899.61 771.61 899.61 749.6 899.61 720.54 877.61 720.54 877.61 749.6 789.04 749.6 789.04 712.31 830.44 712.31 830.44 726.84 852.44 726.84 852.44 675.78 830.44 675.78 830.44 690.31 789.04 690.31 789.04 653.01 877.61 653.01 877.61 682.07 899.61 682.07 899.61 653.01 899.61 631.01 877.61 631.01 743.73 631.01"/><polygon points="571.81 631.01 571.81 653.01 595.12 653.01 595.12 749.6 571.81 749.6 571.81 771.61 658.52 771.61 658.52 749.6 617.12 749.6 617.12 712.31 658.52 712.31 658.52 726.84 680.52 726.84 680.52 675.78 658.52 675.78 658.52 690.31 617.12 690.31 617.12 653.01 705.69 653.01 705.69 682.07 727.7 682.07 727.7 653.01 727.7 631.01 705.69 631.01 571.81 631.01"/><polygon points="1134.18 631.01 1022.31 631.01 1000.3 631.01 1000.3 653.01 1000.3 682.07 1022.31 682.07 1022.31 653.01 1067.24 653.01 1067.24 749.6 1034.89 749.6 1034.89 771.61 1121.6 771.61 1121.6 749.6 1089.25 749.6 1089.25 653.01 1134.18 653.01 1134.18 682.07 1156.19 682.07 1156.19 653.01 1156.19 631.01 1134.18 631.01"/><polygon points="342.99 293.61 342.99 359.14 322.61 379.83 315.82 372.93 315.82 283.26 342.99 293.61"/><polygon points="315.82 483.29 315.82 393.63 322.61 386.73 342.99 407.42 342.99 472.95 315.82 483.29"/><path d="M444.88,507.44H332.8q-13.59-3.45-17-17.25L343,479.85h91.7Z"/><path d="M434.69,286.71H343.33l-27.17-10.34q3.39-13.8,17-17.25H444.88Z"/><polygon points="465.76 483.29 465.76 393.63 472.55 386.73 492.94 407.42 492.94 472.95 465.76 483.29"/><path d="M584.63,507.44H482.74q-13.58-3.45-17-17.25l27.17-10.34h81.52Z"/><path d="M601.62,386.73l6.79,6.9v96.56q-3.39,13.8-17,17.25l-10.19-27.59V407.42Z"/><polygon points="492.94 293.61 492.94 359.14 472.55 379.83 465.76 372.93 465.76 283.26 492.94 293.61"/><path d="M574.45,286.71H492.93l-27.17-10.34q3.39-13.8,17-17.25H584.63Z"/><path d="M581.24,359.14V286.71l10.19-27.59q13.58,3.45,17,17.25v96.56l-6.79,6.9Z"/><path d="M730,379.83l-6.79-6.9V276.37q3.38-13.8,17-17.25l10.19,27.59v72.43Z"/><polygon points="723.16 483.29 723.16 393.63 729.95 386.73 750.33 407.42 750.33 472.95 723.16 483.29"/><path d="M842,507.44H740.14q-13.59-3.45-17-17.25l27.17-10.34h81.51Z"/><path d="M838.63,359.14V286.71l10.19-27.59q13.59,3.45,17,17.25v96.56l-6.79,6.9Z"/><path d="M859,386.73l6.79,6.9v96.56q-3.39,13.8-17,17.25l-10.19-27.59V407.42Z"/><path d="M893.48,379.83l-6.79-6.9V276.37q3.39-13.8,17-17.25l10.19,27.59v72.43Z"/><path d="M913.86,407.42v72.43l-10.19,27.59q-13.59-3.45-17-17.25V393.63l6.79-6.9Z"/><polygon points="995.37 359.14 971.59 359.14 920.65 307.41 920.65 286.71 941.03 286.71 995.37 341.89 995.37 359.14"/><path d="M1002.16,359.14V286.71l10.19-27.59q13.59,3.47,17,17.25v96.56l-6.79,6.9Z"/><path d="M1022.54,386.73l6.79,6.9v96.56q-3.39,13.8-17,17.25l-10.19-27.59V407.42Z"/><path d="M1126.36,286.71l-27.17-10.34q3.39-13.8,17-17.25h108.34q13.59,3.45,17,17.25l-27.18,10.34Z"/><polygon points="1156.59 366.04 1156.59 293.61 1183.76 293.61 1183.76 366.04 1170.17 379.83 1156.59 366.04"/><path d="M1170.17,386.73l13.59,13.79v89.67q-3.4,13.8-17,17.25l-10.19-27.59V400.52Z"/><polygon points="1289.56 293.61 1289.56 359.14 1269.17 379.83 1262.38 372.93 1262.38 283.26 1289.56 293.61"/><polygon points="1262.38 483.29 1262.38 393.63 1269.17 386.73 1289.56 407.42 1289.56 472.95 1262.38 483.29"/><path d="M1391.45,507.44H1279.36q-13.58-3.45-17-17.25l27.17-10.34h91.7Z"/><path d="M1381.25,286.71h-91.36l-27.17-10.34q3.39-13.8,17-17.25h111.75Z"/><polygon points="1377.86 369.48 1391.44 383.28 1377.86 397.07 1289.56 397.07 1275.97 383.28 1289.56 369.48 1377.86 369.48"/><polygon points="1439.5 293.61 1439.5 359.14 1419.12 379.83 1412.33 372.93 1412.33 283.26 1439.5 293.61"/><path d="M1439.5,407.42v72.43l-10.19,27.59q-13.59-3.45-17-17.25V393.63l6.79-6.9Z"/><path d="M1521,286.71h-81.17l-27.17-10.34q3.39-13.8,17-17.25H1531.2Z"/><polygon points="1527.8 369.48 1541.39 383.28 1527.8 397.07 1439.5 397.07 1425.91 383.28 1439.5 369.48 1527.8 369.48"/><path d="M1446.29,404h20.38L1555,493.64q-6.81,13.8-27.18,13.8l-81.51-82.77Z"/><path d="M1527.8,359.14V286.71L1538,259.12q13.59,3.45,17,17.25v96.56l-6.8,6.9Z"/><circle cx="665.78" cy="386.73" r="13.96"/><circle cx="665.78" cy="493.64" r="13.96"/><circle cx="1086.54" cy="493.64" r="13.96"/><path d="M1559.88,207.58a51.32,51.32,0,0,1,51.32,51.32V507.82a51.31,51.31,0,0,1-51.32,51.32H168.11a51.31,51.31,0,0,1-51.31-51.32V258.9a51.32,51.32,0,0,1,51.31-51.32H1559.88m0-31.42H168.11A82.84,82.84,0,0,0,85.37,258.9V507.82a82.84,82.84,0,0,0,82.74,82.75H1559.88a82.84,82.84,0,0,0,82.75-82.75V258.9a82.84,82.84,0,0,0-82.75-82.74Z"/><path d="M159.65,260.26h11.16l3.76,29.94,6.61-29.94h13.74l6,29.71,3.75-29.71h10.15l-6.95,41.1H194.41l-7-30.45L180,301.36h-13.4Z"/><path d="M221.09,264.82c5.1-5.24,12.84-5.7,15.81-5.7,16.15,0,20.52,11.79,20.52,21.8,0,16.4-11.43,21.4-21.08,21.4-10.76,0-20.8-6-20.8-21.34C215.54,278.25,216,270.05,221.09,264.82ZM236.46,294c8,0,9.36-7.52,9.36-13.21s-1.35-8.59-2.58-10.41c-1.63-2.28-4.26-3-6.73-3-7.4,0-9.42,6.49-9.42,13.54C227.09,287.47,229,294,236.46,294Z"/><path d="M162.85,308.65h18.72c7.29,0,10,.45,12.45,3,1.23,1.25,2.8,3.52,2.8,8s-1.79,6.43-3.7,7.62a14.74,14.74,0,0,1-6.16,2.11v.23c7.85.22,8.29,3.75,9.19,10.07a65.71,65.71,0,0,0,1.91,10.13H185.89a66,66,0,0,1-1.34-9.28c-.51-4.95-.68-6.77-5.72-6.77h-4.71v16.05H162.85Zm11.27,17.64h4.2c2.47,0,3.7,0,4.65-.34,2.47-.8,3-3.36,3-4.67,0-5.06-4.38-5.06-7.63-5.06h-4.2Z"/><path d="M203.57,308.65H215v18l13-18h13.29l-14,18.1,15.08,23h-13.9L215,327.89v21.85H203.57Z"/><path d="M254.16,484.43c-6.11-4.6-9.13-11.25-10.69-18.39a103.93,103.93,0,0,1-2.67-20.14c-.29-14.26-6.39-24.3-18.62-30.61a3.54,3.54,0,0,1-1.92-3.14v-1.28a3.53,3.53,0,0,0-3.53-3.53H200.34a3.53,3.53,0,0,0-3.53,3.53v1.28a3.53,3.53,0,0,1-1.92,3.14c-12.22,6.31-18.33,16.35-18.61,30.61A105.5,105.5,0,0,1,173.61,466c-1.56,7.14-4.58,13.79-10.7,18.39-2.22,1.67-3.95,3.41-3,6.37s3.6,3.3,6.27,3.31c7,0,14.05.11,21.07-.05,2.65-.07,4.07.6,5.28,3.21,3,6.57,8.46,10.2,16,10.16s12.94-3.59,16-10.16c1.21-2.61,2.62-3.28,5.28-3.21,7,.16,14,.05,21.07.05,2.67,0,5.28-.28,6.27-3.31S256.39,486.1,254.16,484.43Zm-77.95.11c1.16-2.28,2.27-4.29,3.22-6.37,4.63-10.23,6.3-21.06,6.31-32.19,0-8.89,3.25-16.08,11-20.82a21.78,21.78,0,0,1,23.68,0c7.7,4.74,10.94,11.93,11,20.82,0,11.13,1.69,22,6.32,32.19.94,2.08,2,4.09,3.21,6.37Z"/><path d="M208.53,507.44h0s0,0,0,0S208.52,507.43,208.53,507.44Z"/><rect class="cls-1" width="1728" height="840"/></g></g></svg>