<svg id="logo-6_svg__Layer_1" data-name="Layer 1" xmlns="http://www.w3.org/2000/svg" viewBox="0 0 1728 840"><g id="logo-6_svg__Logo6-Black"><g id="logo-6_svg__Logo6-W-Black"><path id="logo-6_svg__Logo6-W-Shape19-Black" d="M1588.41,677.4l-197.08,0-12.91-36.68c-.1,0,209.93,0,209.93,0S1588.47,677.4,1588.41,677.4Z"/><path id="logo-6_svg__Logo6-W-Shape18-Black" d="M1022.53 640.8L1234.81 640.8 1221.72 677.4 1022.53 677.4 1022.53 640.8z"/><path id="logo-6_svg__Logo6-W-Shape17-Black" d="M1354.04 572.08L1588.43 572.08 1588.43 608.56 1366.87 608.56 1354.04 572.08z"/><path id="logo-6_svg__Logo6-W-Shape16-Black" d="M1022.53,572.13h236.61s-12.9,36.4-12.84,36.42H1022.53Z"/><path id="logo-6_svg__Logo6-W-Shape15-Black" d="M1342.64 539.89L1329.7 503.29 1518.54 503.29 1518.54 539.89 1342.64 539.89z"/><path id="logo-6_svg__Logo6-W-Shape14-Black" d="M1283.33 503.29L1270.34 539.88 1092.69 539.83 1092.69 503.37 1283.33 503.29z"/><path id="logo-6_svg__Logo6-W-Shape13-Black" d="M1413.65,463.77s0-27.7,0-27.76h104.91v36.43H1318.63l-12.41-34s-12,34-12,34H1092.76V436h104.39c0,.06.06,27.76.06,27.76l9.65-27.76,197.14.06Z"/><path id="logo-6_svg__Logo6-W-Shape12-Black" d="M1413.65,403.77h104.89V367.35s-104.93,0-104.93,0S1413.5,403.77,1413.65,403.77Z"/><path id="logo-6_svg__Logo6-W-Shape11-Black" d="M1218.23,403.77c.48.06,12.22-36.41,12.71-36.42l148.7-.07c.12.06,13.07,36.55,13.08,36.49Z"/><path id="logo-6_svg__Logo6-W-Shape10-Black" d="M1092.76 367.35H1197.1399999999999V403.77000000000004H1092.76z"/><path id="logo-6_svg__Logo6-W-Shape9-Black" d="M1413.65 298.68H1518.5400000000002V335.1H1413.65z"/><path id="logo-6_svg__Logo6-W-Shape8-Black" d="M1255.36,298.49c0,.17-12.87,36.64-13.07,36.6h126.4c.23,0-13-36.43-13-36.43S1255.39,298.35,1255.36,298.49Z"/><path id="logo-6_svg__Logo6-W-Shape7-Black" d="M1092.77 298.66H1197.1399999999999V335.09000000000003H1092.77z"/><path id="logo-6_svg__Logo6-W-Shape6-Black" d="M1413.65 231.4H1588.43V267.84000000000003H1413.65z"/><path id="logo-6_svg__Logo6-W-Shape5-Black" d="M1278.85 231.4L1332.17 231.4 1344.96 267.84 1266.52 267.84 1278.85 231.4z"/><path id="logo-6_svg__Logo6-W-Shape4-Black" d="M1022.55 231.4H1197.1499999999999V267.84000000000003H1022.55z"/><path id="logo-6_svg__Logo6-W-Shape3-Black" d="M1413.65 162.57H1588.43V199.16H1413.65z"/><path id="logo-6_svg__Logo6-W-Shape2-Black" d="M1303.02 162.65L1307.92 162.65 1320.38 199.16 1290.22 199.16 1303.02 162.65z"/><path id="logo-6_svg__Logo6-W-Shape1-Black" d="M1022.55 162.57H1197.1499999999999V199.16H1022.55z"/></g><g id="logo-6_svg__Logo6-F-Black"><path id="logo-6_svg__Logo6-F-Shape8-Black" d="M826.64,641s-.11,36.35,0,36.35-247.94.15-248,.07.06-36.52,0-36.52S826.53,641.1,826.64,641Z"/><path id="logo-6_svg__Logo6-F-Shape7-Black" d="M578.64,572.15v36.43h248c.11,0-.11-36.41,0-36.41Z"/><path id="logo-6_svg__Logo6-F-Shape6-Black" d="M647.99 504.88H754.47V541.3H647.99z"/><path id="logo-6_svg__Logo6-F-Shape5-Black" d="M980.05,472.64V436.21H648.36s.08,36.42,0,36.42Z"/><path id="logo-6_svg__Logo6-F-Shape4-Black" d="M647.82 367.54H980.09V403.97H647.82z"/><path id="logo-6_svg__Logo6-F-Shape3-Black" d="M647.82 300.27H754.49V336.69H647.82z"/><path id="logo-6_svg__Logo6-F-Shape2-Black" d="M578.65 231.43H980.0899999999999V267.85H578.65z"/><path id="logo-6_svg__Logo6-F-Shape1-Black" d="M578.65 162.59H980.0899999999999V199.19H578.65z"/></g><g id="logo-6_svg__Logo6-C-Black"><path id="logo-6_svg__Logo6-C-Shape8-Black" d="M264,677.41c-32.48-3.13-60.72-14.7-84.77-36.66,0,0,357.24,0,357.24,0v36.67Z"/><path id="logo-6_svg__Logo6-C-Shape7-Black" d="M151.41,608.57c-4.71-12-10.29-22.31-10.29-36.42H536.4v36.42Z"/><path id="logo-6_svg__Logo6-C-Shape6-Black" d="M141.48 504.88H247.95999999999998V541.3H141.48z"/><path id="logo-6_svg__Logo6-C-Shape5-Black" d="M141.48 436.22H247.95999999999998V472.64000000000004H141.48z"/><path id="logo-6_svg__Logo6-C-Shape4-Black" d="M141.48 367.35H247.95999999999998V403.77000000000004H141.48z"/><path id="logo-6_svg__Logo6-C-Shape3-Black" d="M141.48 298.6H247.95999999999998V335.02000000000004H141.48z"/><path id="logo-6_svg__Logo6-C-Shape2-Black" d="M139.57,267.85c2.61-12,5-26.67,13.78-36.45l3.28,0H536.42v36.43Z"/><path id="logo-6_svg__Logo6-C-Shape1-Black" d="M536.47,162.65v36.46l-359.34,0c24.06-23,57.07-36,92.61-36.5l266.68.08"/></g></g></svg>