<svg id="logo-9_svg__Layer_1" data-name="Layer 1" xmlns="http://www.w3.org/2000/svg" viewBox="0 0 1728 840"><g id="logo-9_svg__Logo9-Black"><path id="logo-9_svg__Logo9-Path3-Black" d="M1228.48,216.49a40.26,40.26,0,0,1,40.21,40.21V585.34a13.66,13.66,0,0,0,9.43,13.14,13.37,13.37,0,0,0,15.5-6.08L1547.22,152h-74.44L1333.14,394.58V256.7a104.7,104.7,0,0,0-195.28-52.49l0,.1,0,.09L1028.27,394.58V256.7A104.67,104.67,0,0,0,923.6,152H579.28A104.66,104.66,0,0,0,474.62,256.7V524.06a10.57,10.57,0,0,1-10.57,10.57H345.11c-62.58,0-114.3-50.17-114.66-112.76A113.55,113.55,0,0,1,343.87,307.79H450.78V243.34H345.4c-97.78,0-179.36,80-179.4,177.78-.05,98.12,79.76,178,177.87,178H525.71a13.36,13.36,0,0,0,13.36-13.36v-329a40.21,40.21,0,0,1,40.21-40.21H923.6a40.22,40.22,0,0,1,40.22,40.21V585.34a13.66,13.66,0,0,0,9.42,13.14,13.38,13.38,0,0,0,15.51-6.08l204.86-355.84a40.39,40.39,0,0,1,34.87-20.07"/><path id="logo-9_svg__Logo9-Path2-Black" d="M565.92,425.42V256.7a13.36,13.36,0,0,1,13.36-13.36H923.6A13.36,13.36,0,0,1,937,256.7v329a40.22,40.22,0,0,0,75,20.12L1216.86,250a13.4,13.4,0,0,1,25,7.05V585.72a40.22,40.22,0,0,0,75,20.12L1578,152h74.53L1372.73,638l0,.09,0,.09a104.67,104.67,0,0,1-195.24-52.46v-138L1067.86,638l0,.09-.06.09a104.67,104.67,0,0,1-195.24-52.46V307.79H640.94a10.57,10.57,0,0,0-10.57,10.57V361H848.08v64.45Z"/><path id="logo-9_svg__Logo9-Path1-Black" d="M848.08,516.73V452.27H565.92V585.72a40.21,40.21,0,0,1-40.21,40.21H345.43c-54.26,0-106.69-20.85-145.32-59A204.72,204.72,0,0,1,343.87,216.49H450.78V152H343.87a269.18,269.18,0,1,0,0,538.35H525.71A104.66,104.66,0,0,0,630.37,585.72v-69Z"/></g></svg>