<?xml version="1.0" standalone="no"?>
<!DOCTYPE svg PUBLIC "-//W3C//DTD SVG 20010904//EN"
 "http://www.w3.org/TR/2001/REC-SVG-20010904/DTD/svg10.dtd">
<svg version="1.0" xmlns="http://www.w3.org/2000/svg"
 width="512.000000pt" height="512.000000pt" viewBox="0 0 512.000000 512.000000"
 preserveAspectRatio="xMidYMid meet">
<metadata>
Created by potrace 1.11, written by Peter Selinger 2001-2013
</metadata>
<g transform="translate(0.000000,512.000000) scale(0.100000,-0.100000)"
fill="#000000" stroke="none">
<path d="M2310 5113 c-876 -90 -1635 -609 -2039 -1397 -110 -214 -203 -504
-248 -771 -26 -157 -26 -611 0 -770 91 -547 321 -1009 697 -1399 383 -397 870
-652 1425 -747 153 -27 512 -37 677 -20 591 61 1124 316 1549 740 341 342 563
734 678 1196 57 231 66 314 66 615 0 221 -4 297 -18 385 -95 563 -336 1035
-726 1425 -222 222 -427 367 -706 501 -370 177 -705 251 -1125 247 -107 0
-211 -3 -230 -5z m513 -308 c228 -47 493 -151 665 -261 221 -142 422 -349 556
-571 305 -509 348 -1182 112 -1769 -260 -649 -824 -1090 -1502 -1175 l-101
-13 -6 -224 c-4 -124 -7 -267 -7 -319 0 -51 -3 -93 -7 -93 -12 0 -139 74 -236
137 -153 101 -290 214 -438 362 -207 208 -345 405 -437 627 l-36 87 23 66
c125 360 477 781 871 1043 84 55 228 138 242 138 4 0 9 -142 10 -315 l3 -316
80 39 c164 80 348 226 566 449 284 291 482 608 467 747 -26 228 -426 724 -824
1022 -85 64 -205 132 -261 149 l-22 6 6 -274 c3 -150 3 -285 -1 -300 -6 -26
-9 -27 -79 -27 -241 -1 -560 -90 -791 -222 -467 -267 -826 -776 -938 -1330
-20 -97 -23 -143 -23 -318 1 -285 33 -485 117 -730 109 -315 283 -569 538
-783 44 -37 43 -37 -30 9 -511 321 -885 864 -1004 1456 -38 187 -49 329 -43
532 10 342 80 619 232 931 274 560 779 988 1380 1170 216 65 397 92 645 94
129 1 175 -3 273 -24z"/>
</g>
</svg>
